NotoSerifTamil-CondensedLight.ufo
<glyph name="exclam" format="2">
  <advance width="216"/>
  <unicode hex="0021"/>
  <outline>
    <contour>
      <point x="99" y="167" type="line"/>
      <point x="119" y="167" type="line"/>
      <point x="122" y="714" type="line"/>
      <point x="94" y="714" type="line"/>
    </contour>
    <contour>
      <point x="108" y="-5" type="curve" smooth="yes"/>
      <point x="122" y="-5"/>
      <point x="136" y="5"/>
      <point x="136" y="34" type="curve" smooth="yes"/>
      <point x="136" y="64"/>
      <point x="122" y="74"/>
      <point x="108" y="74" type="curve" smooth="yes"/>
      <point x="91" y="74"/>
      <point x="78" y="64"/>
      <point x="78" y="34" type="curve" smooth="yes"/>
      <point x="78" y="5"/>
      <point x="91" y="-5"/>
    </contour>
  </outline>
</glyph>
<glyph name="quotedbl" format="2">
  <advance width="235"/>
  <unicode hex="0022"/>
  <outline>
    <contour>
      <point x="167" y="525" type="line"/>
      <point x="186" y="525" type="line"/>
      <point x="198" y="714" type="line"/>
      <point x="155" y="714" type="line"/>
    </contour>
    <contour>
      <point x="48" y="525" type="line"/>
      <point x="67" y="525" type="line"/>
      <point x="79" y="714" type="line"/>
      <point x="36" y="714" type="line"/>
    </contour>
  </outline>
</glyph>
<glyph name="numbersign" format="2">
  <advance width="425"/>
  <unicode hex="0023"/>
  <outline>
    <contour>
      <point x="40" y="0" type="line"/>
      <point x="68" y="0" type="line"/>
      <point x="109" y="219" type="line"/>
      <point x="255" y="219" type="line"/>
      <point x="214" y="0" type="line"/>
      <point x="242" y="0" type="line"/>
      <point x="283" y="219" type="line"/>
      <point x="389" y="219" type="line"/>
      <point x="389" y="244" type="line"/>
      <point x="288" y="244" type="line"/>
      <point x="331" y="476" type="line"/>
      <point x="421" y="476" type="line"/>
      <point x="421" y="501" type="line"/>
      <point x="336" y="501" type="line"/>
      <point x="376" y="714" type="line"/>
      <point x="348" y="714" type="line"/>
      <point x="308" y="501" type="line"/>
      <point x="162" y="501" type="line"/>
      <point x="202" y="714" type="line"/>
      <point x="174" y="714" type="line"/>
      <point x="134" y="501" type="line"/>
      <point x="33" y="501" type="line"/>
      <point x="33" y="476" type="line"/>
      <point x="129" y="476" type="line"/>
      <point x="86" y="244" type="line"/>
      <point x="1" y="244" type="line"/>
      <point x="1" y="219" type="line"/>
      <point x="81" y="219" type="line"/>
    </contour>
    <contour>
      <point x="114" y="244" type="line"/>
      <point x="157" y="476" type="line"/>
      <point x="303" y="476" type="line"/>
      <point x="260" y="244" type="line"/>
    </contour>
  </outline>
</glyph>
<glyph name="percent" format="2">
  <advance width="672"/>
  <unicode hex="0025"/>
  <outline>
    <contour>
      <point x="174" y="0" type="line"/>
      <point x="204" y="0" type="line"/>
      <point x="494" y="714" type="line"/>
      <point x="464" y="714" type="line"/>
    </contour>
    <contour>
      <point x="155" y="280" type="curve" smooth="yes"/>
      <point x="233" y="280"/>
      <point x="269" y="359"/>
      <point x="269" y="503" type="curve" smooth="yes"/>
      <point x="269" y="649"/>
      <point x="234" y="724"/>
      <point x="156" y="724" type="curve" smooth="yes"/>
      <point x="78" y="724"/>
      <point x="43" y="647"/>
      <point x="43" y="503" type="curve" smooth="yes"/>
      <point x="43" y="354"/>
      <point x="79" y="280"/>
    </contour>
    <contour>
      <point x="155" y="305" type="curve" smooth="yes"/>
      <point x="91" y="305"/>
      <point x="71" y="376"/>
      <point x="71" y="503" type="curve" smooth="yes"/>
      <point x="71" y="629"/>
      <point x="91" y="699"/>
      <point x="155" y="699" type="curve" smooth="yes"/>
      <point x="222" y="699"/>
      <point x="241" y="629"/>
      <point x="241" y="503" type="curve" smooth="yes"/>
      <point x="241" y="376"/>
      <point x="222" y="305"/>
    </contour>
    <contour>
      <point x="516" y="-10" type="curve" smooth="yes"/>
      <point x="594" y="-10"/>
      <point x="630" y="69"/>
      <point x="630" y="213" type="curve" smooth="yes"/>
      <point x="630" y="359"/>
      <point x="595" y="434"/>
      <point x="517" y="434" type="curve" smooth="yes"/>
      <point x="439" y="434"/>
      <point x="404" y="357"/>
      <point x="404" y="213" type="curve" smooth="yes"/>
      <point x="404" y="64"/>
      <point x="440" y="-10"/>
    </contour>
    <contour>
      <point x="516" y="15" type="curve" smooth="yes"/>
      <point x="452" y="15"/>
      <point x="432" y="86"/>
      <point x="432" y="213" type="curve" smooth="yes"/>
      <point x="432" y="339"/>
      <point x="452" y="409"/>
      <point x="516" y="409" type="curve" smooth="yes"/>
      <point x="583" y="409"/>
      <point x="602" y="339"/>
      <point x="602" y="213" type="curve" smooth="yes"/>
      <point x="602" y="86"/>
      <point x="583" y="15"/>
    </contour>
  </outline>
</glyph>
<glyph name="quotesingle" format="2">
  <advance width="115"/>
  <unicode hex="0027"/>
  <outline>
    <contour>
      <point x="48" y="525" type="line"/>
      <point x="67" y="525" type="line"/>
      <point x="79" y="714" type="line"/>
      <point x="36" y="714" type="line"/>
    </contour>
  </outline>
</glyph>
<glyph name="parenleft" format="2">
  <advance width="221"/>
  <unicode hex="0028"/>
  <outline>
    <contour>
      <point x="197" y="-115" type="curve"/>
      <point x="197" y="-87" type="line"/>
      <point x="128" y="-53"/>
      <point x="71" y="96"/>
      <point x="71" y="315" type="curve" smooth="yes"/>
      <point x="71" y="534"/>
      <point x="128" y="683"/>
      <point x="197" y="717" type="curve"/>
      <point x="197" y="745" type="line"/>
      <point x="107" y="702"/>
      <point x="43" y="565"/>
      <point x="43" y="315" type="curve" smooth="yes"/>
      <point x="43" y="62"/>
      <point x="107" y="-72"/>
    </contour>
  </outline>
</glyph>
<glyph name="parenright" format="2">
  <advance width="221"/>
  <unicode hex="0029"/>
  <outline>
    <contour>
      <point x="23" y="-115" type="line"/>
      <point x="113" y="-72"/>
      <point x="177" y="62"/>
      <point x="177" y="315" type="curve" smooth="yes"/>
      <point x="177" y="565"/>
      <point x="113" y="702"/>
      <point x="23" y="745" type="curve"/>
      <point x="23" y="717" type="line"/>
      <point x="92" y="683"/>
      <point x="149" y="534"/>
      <point x="149" y="315" type="curve" smooth="yes"/>
      <point x="149" y="96"/>
      <point x="92" y="-53"/>
      <point x="23" y="-87" type="curve"/>
    </contour>
  </outline>
</glyph>
<glyph name="asterisk" format="2">
  <advance width="343"/>
  <unicode hex="002A"/>
  <outline>
    <contour>
      <point x="149" y="382" type="line"/>
      <point x="191" y="382" type="line"/>
      <point x="178" y="550" type="line"/>
      <point x="287" y="466" type="line"/>
      <point x="303" y="510" type="line"/>
      <point x="180" y="571" type="line"/>
      <point x="303" y="633" type="line"/>
      <point x="287" y="678" type="line"/>
      <point x="178" y="592" type="line"/>
      <point x="191" y="760" type="line"/>
      <point x="149" y="760" type="line"/>
      <point x="161" y="593" type="line"/>
      <point x="52" y="680" type="line"/>
      <point x="35" y="634" type="line"/>
      <point x="158" y="571" type="line"/>
      <point x="35" y="509" type="line"/>
      <point x="52" y="464" type="line"/>
      <point x="160" y="549" type="line"/>
    </contour>
  </outline>
</glyph>
<glyph name="period" format="2">
  <advance width="157"/>
  <unicode hex="002E"/>
  <outline>
    <contour>
      <point x="80" y="-6" type="curve" smooth="yes"/>
      <point x="94" y="-6"/>
      <point x="107" y="4"/>
      <point x="107" y="33" type="curve" smooth="yes"/>
      <point x="107" y="63"/>
      <point x="94" y="73"/>
      <point x="80" y="73" type="curve" smooth="yes"/>
      <point x="63" y="73"/>
      <point x="50" y="63"/>
      <point x="50" y="33" type="curve" smooth="yes"/>
      <point x="50" y="4"/>
      <point x="63" y="-6"/>
    </contour>
  </outline>
</glyph>
<glyph name="slash" format="2">
  <advance width="219"/>
  <unicode hex="002F"/>
  <outline>
    <contour>
      <point x="0" y="-121" type="line"/>
      <point x="29" y="-121" type="line"/>
      <point x="219" y="760" type="line"/>
      <point x="190" y="760" type="line"/>
    </contour>
  </outline>
</glyph>
<glyph name="zero" format="2">
  <advance width="425"/>
  <unicode hex="0030"/>
  <outline>
    <contour>
      <point x="212" y="-10" type="curve" smooth="yes"/>
      <point x="322" y="-10"/>
      <point x="381" y="103"/>
      <point x="381" y="358" type="curve" smooth="yes"/>
      <point x="381" y="602"/>
      <point x="328" y="724"/>
      <point x="213" y="724" type="curve" smooth="yes"/>
      <point x="89" y="724"/>
      <point x="43" y="592"/>
      <point x="43" y="359" type="curve" smooth="yes"/>
      <point x="43" y="112"/>
      <point x="95" y="-10"/>
    </contour>
    <contour>
      <point x="212" y="15" type="curve" smooth="yes"/>
      <point x="112" y="15"/>
      <point x="71" y="141"/>
      <point x="71" y="358" type="curve" smooth="yes"/>
      <point x="71" y="575"/>
      <point x="112" y="699"/>
      <point x="213" y="699" type="curve" smooth="yes"/>
      <point x="312" y="699"/>
      <point x="353" y="575"/>
      <point x="353" y="358" type="curve" smooth="yes"/>
      <point x="353" y="141"/>
      <point x="312" y="15"/>
    </contour>
  </outline>
</glyph>
<glyph name="one" format="2">
  <advance width="425"/>
  <unicode hex="0031"/>
  <outline>
    <contour>
      <point x="91" y="0" type="line"/>
      <point x="328" y="0" type="line"/>
      <point x="328" y="20" type="line"/>
      <point x="283" y="20" type="line" smooth="yes"/>
      <point x="235" y="20"/>
      <point x="227" y="30"/>
      <point x="227" y="105" type="curve" smooth="yes"/>
      <point x="227" y="718" type="line"/>
      <point x="209" y="718" type="line"/>
      <point x="171" y="665" type="line" smooth="yes"/>
      <point x="131" y="609"/>
      <point x="98" y="597"/>
      <point x="68" y="587" type="curve"/>
      <point x="68" y="577"/>
      <point x="81" y="571"/>
      <point x="93" y="571" type="curve" smooth="yes"/>
      <point x="130" y="571"/>
      <point x="165" y="614"/>
      <point x="199" y="666" type="curve"/>
      <point x="199" y="105" type="line" smooth="yes"/>
      <point x="199" y="30"/>
      <point x="191" y="20"/>
      <point x="143" y="20" type="curve" smooth="yes"/>
      <point x="91" y="20" type="line"/>
    </contour>
  </outline>
</glyph>
<glyph name="three" format="2">
  <advance width="425"/>
  <unicode hex="0033"/>
  <outline>
    <contour>
      <point x="202" y="-9" type="curve" smooth="yes"/>
      <point x="277" y="-9"/>
      <point x="369" y="43"/>
      <point x="369" y="190" type="curve" smooth="yes"/>
      <point x="369" y="331"/>
      <point x="296" y="372"/>
      <point x="232" y="376" type="curve"/>
      <point x="301" y="390"/>
      <point x="350" y="471"/>
      <point x="350" y="561" type="curve" smooth="yes"/>
      <point x="350" y="665"/>
      <point x="301" y="724"/>
      <point x="219" y="724" type="curve" smooth="yes"/>
      <point x="138" y="724"/>
      <point x="86" y="668"/>
      <point x="86" y="593" type="curve" smooth="yes"/>
      <point x="86" y="563"/>
      <point x="97" y="553"/>
      <point x="107" y="553" type="curve"/>
      <point x="107" y="639"/>
      <point x="135" y="699"/>
      <point x="219" y="699" type="curve" smooth="yes"/>
      <point x="288" y="699"/>
      <point x="322" y="649"/>
      <point x="322" y="560" type="curve" smooth="yes"/>
      <point x="322" y="451"/>
      <point x="261" y="387"/>
      <point x="187" y="387" type="curve"/>
      <point x="169" y="387" type="line"/>
      <point x="169" y="362" type="line"/>
      <point x="189" y="362" type="line" smooth="yes"/>
      <point x="292" y="362"/>
      <point x="341" y="302"/>
      <point x="341" y="191" type="curve" smooth="yes"/>
      <point x="341" y="70"/>
      <point x="274" y="16"/>
      <point x="203" y="16" type="curve" smooth="yes"/>
      <point x="116" y="16"/>
      <point x="86" y="71"/>
      <point x="86" y="136" type="curve"/>
      <point x="71" y="136"/>
      <point x="65" y="119"/>
      <point x="65" y="98" type="curve" smooth="yes"/>
      <point x="65" y="42"/>
      <point x="111" y="-9"/>
    </contour>
  </outline>
</glyph>
<glyph name="four" format="2">
  <advance width="425"/>
  <unicode hex="0034"/>
  <outline>
    <contour>
      <point x="193" y="0" type="line"/>
      <point x="381" y="0" type="line"/>
      <point x="381" y="20" type="line"/>
      <point x="368" y="20" type="line" smooth="yes"/>
      <point x="314" y="20"/>
      <point x="307" y="29"/>
      <point x="307" y="101" type="curve" smooth="yes"/>
      <point x="307" y="208" type="line"/>
      <point x="415" y="208" type="line"/>
      <point x="415" y="233" type="line"/>
      <point x="307" y="233" type="line"/>
      <point x="307" y="714" type="line"/>
      <point x="278" y="714" type="line"/>
      <point x="17" y="226" type="line"/>
      <point x="17" y="208" type="line"/>
      <point x="279" y="208" type="line"/>
      <point x="279" y="101" type="line" smooth="yes"/>
      <point x="279" y="29"/>
      <point x="271" y="20"/>
      <point x="218" y="20" type="curve" smooth="yes"/>
      <point x="193" y="20" type="line"/>
    </contour>
    <contour>
      <point x="49" y="233" type="line"/>
      <point x="198" y="511" type="line" smooth="yes"/>
      <point x="220" y="553"/>
      <point x="273" y="653"/>
      <point x="281" y="674" type="curve"/>
      <point x="279" y="610"/>
      <point x="279" y="503"/>
      <point x="279" y="445" type="curve" smooth="yes"/>
      <point x="279" y="233" type="line"/>
    </contour>
  </outline>
</glyph>
<glyph name="five" format="2">
  <advance width="425"/>
  <unicode hex="0035"/>
  <outline>
    <contour>
      <point x="187" y="-10" type="curve" smooth="yes"/>
      <point x="289" y="-10"/>
      <point x="352" y="60"/>
      <point x="352" y="216" type="curve" smooth="yes"/>
      <point x="352" y="354"/>
      <point x="287" y="423"/>
      <point x="196" y="423" type="curve" smooth="yes"/>
      <point x="153" y="423"/>
      <point x="126" y="410"/>
      <point x="104" y="396" type="curve"/>
      <point x="124" y="684" type="line"/>
      <point x="258" y="684" type="line" smooth="yes"/>
      <point x="302" y="684"/>
      <point x="309" y="678"/>
      <point x="311" y="626" type="curve" smooth="yes"/>
      <point x="312" y="601" type="line"/>
      <point x="332" y="601" type="line"/>
      <point x="329" y="712" type="line"/>
      <point x="101" y="712" type="line"/>
      <point x="76" y="353" type="line"/>
      <point x="89" y="349" type="line"/>
      <point x="102" y="370"/>
      <point x="139" y="398"/>
      <point x="191" y="398" type="curve" smooth="yes"/>
      <point x="275" y="398"/>
      <point x="324" y="335"/>
      <point x="324" y="216" type="curve" smooth="yes"/>
      <point x="324" y="76"/>
      <point x="271" y="15"/>
      <point x="187" y="15" type="curve" smooth="yes"/>
      <point x="107" y="15"/>
      <point x="73" y="67"/>
      <point x="73" y="126" type="curve"/>
      <point x="59" y="126"/>
      <point x="52" y="115"/>
      <point x="52" y="88" type="curve" smooth="yes"/>
      <point x="52" y="57"/>
      <point x="88" y="-10"/>
    </contour>
  </outline>
</glyph>
<glyph name="six" format="2">
  <advance width="425"/>
  <unicode hex="0036"/>
  <outline>
    <contour>
      <point x="222" y="-10" type="curve" smooth="yes"/>
      <point x="299" y="-10"/>
      <point x="373" y="40"/>
      <point x="373" y="216" type="curve" smooth="yes"/>
      <point x="373" y="354"/>
      <point x="322" y="429"/>
      <point x="226" y="429" type="curve" smooth="yes"/>
      <point x="154" y="429"/>
      <point x="107" y="383"/>
      <point x="86" y="354" type="curve"/>
      <point x="86" y="608"/>
      <point x="137" y="699"/>
      <point x="239" y="699" type="curve" smooth="yes"/>
      <point x="309" y="699"/>
      <point x="335" y="661"/>
      <point x="335" y="587" type="curve"/>
      <point x="345" y="587"/>
      <point x="355" y="592"/>
      <point x="355" y="625" type="curve" smooth="yes"/>
      <point x="355" y="682"/>
      <point x="317" y="724"/>
      <point x="240" y="724" type="curve" smooth="yes"/>
      <point x="124" y="724"/>
      <point x="58" y="640"/>
      <point x="58" y="339" type="curve" smooth="yes"/>
      <point x="58" y="91"/>
      <point x="118" y="-10"/>
    </contour>
    <contour>
      <point x="223" y="15" type="curve" smooth="yes"/>
      <point x="137" y="15"/>
      <point x="88" y="110"/>
      <point x="86" y="317" type="curve"/>
      <point x="112" y="354"/>
      <point x="156" y="404"/>
      <point x="226" y="404" type="curve" smooth="yes"/>
      <point x="307" y="404"/>
      <point x="345" y="344"/>
      <point x="345" y="217" type="curve" smooth="yes"/>
      <point x="345" y="77"/>
      <point x="298" y="15"/>
    </contour>
  </outline>
</glyph>
<glyph name="seven" format="2">
  <advance width="425"/>
  <unicode hex="0037"/>
  <outline>
    <contour>
      <point x="148" y="0" type="line"/>
      <point x="174" y="0" type="line"/>
      <point x="378" y="690" type="line"/>
      <point x="378" y="712" type="line"/>
      <point x="51" y="712" type="line"/>
      <point x="47" y="568" type="line"/>
      <point x="67" y="568" type="line"/>
      <point x="70" y="628" type="line" smooth="yes"/>
      <point x="73" y="678"/>
      <point x="82" y="684"/>
      <point x="117" y="684" type="curve" smooth="yes"/>
      <point x="349" y="684" type="line"/>
    </contour>
  </outline>
</glyph>
<glyph name="eight" format="2">
  <advance width="425"/>
  <unicode hex="0038"/>
  <outline>
    <contour>
      <point x="210" y="-10" type="curve" smooth="yes"/>
      <point x="309" y="-10"/>
      <point x="377" y="53"/>
      <point x="377" y="172" type="curve" smooth="yes"/>
      <point x="377" y="281"/>
      <point x="331" y="328"/>
      <point x="248" y="377" type="curve"/>
      <point x="319" y="410"/>
      <point x="361" y="462"/>
      <point x="361" y="556" type="curve" smooth="yes"/>
      <point x="361" y="654"/>
      <point x="313" y="724"/>
      <point x="218" y="724" type="curve" smooth="yes"/>
      <point x="119" y="724"/>
      <point x="71" y="651"/>
      <point x="71" y="552" type="curve" smooth="yes"/>
      <point x="71" y="469"/>
      <point x="120" y="411"/>
      <point x="191" y="377" type="curve"/>
      <point x="102" y="339"/>
      <point x="51" y="273"/>
      <point x="51" y="171" type="curve" smooth="yes"/>
      <point x="51" y="58"/>
      <point x="108" y="-10"/>
    </contour>
    <contour>
      <point x="210" y="15" type="curve" smooth="yes"/>
      <point x="122" y="15"/>
      <point x="79" y="77"/>
      <point x="79" y="170" type="curve" smooth="yes"/>
      <point x="79" y="253"/>
      <point x="113" y="321"/>
      <point x="215" y="362" type="curve"/>
      <point x="318" y="314"/>
      <point x="349" y="259"/>
      <point x="349" y="170" type="curve" smooth="yes"/>
      <point x="349" y="70"/>
      <point x="294" y="15"/>
    </contour>
    <contour>
      <point x="224" y="391" type="curve"/>
      <point x="142" y="430"/>
      <point x="99" y="473"/>
      <point x="99" y="558" type="curve" smooth="yes"/>
      <point x="99" y="641"/>
      <point x="144" y="699"/>
      <point x="218" y="699" type="curve" smooth="yes"/>
      <point x="300" y="699"/>
      <point x="333" y="627"/>
      <point x="333" y="556" type="curve" smooth="yes"/>
      <point x="333" y="471"/>
      <point x="310" y="431"/>
    </contour>
  </outline>
</glyph>
<glyph name="nine" format="2">
  <advance width="425"/>
  <unicode hex="0039"/>
  <outline>
    <contour>
      <point x="178" y="-13" type="curve" smooth="yes"/>
      <point x="302" y="-13"/>
      <point x="366" y="89"/>
      <point x="366" y="388" type="curve" smooth="yes"/>
      <point x="366" y="638"/>
      <point x="296" y="724"/>
      <point x="198" y="724" type="curve" smooth="yes"/>
      <point x="100" y="724"/>
      <point x="51" y="642"/>
      <point x="51" y="484" type="curve" smooth="yes"/>
      <point x="51" y="348"/>
      <point x="106" y="285"/>
      <point x="201" y="285" type="curve" smooth="yes"/>
      <point x="277" y="285"/>
      <point x="323" y="331"/>
      <point x="338" y="357" type="curve"/>
      <point x="332" y="116"/>
      <point x="287" y="12"/>
      <point x="179" y="12" type="curve" smooth="yes"/>
      <point x="125" y="12"/>
      <point x="97" y="48"/>
      <point x="85" y="80" type="curve"/>
      <point x="79" y="77"/>
      <point x="76" y="70"/>
      <point x="76" y="55" type="curve" smooth="yes"/>
      <point x="76" y="22"/>
      <point x="114" y="-13"/>
    </contour>
    <contour>
      <point x="203" y="310" type="curve" smooth="yes"/>
      <point x="115" y="310"/>
      <point x="79" y="366"/>
      <point x="79" y="488" type="curve" smooth="yes"/>
      <point x="79" y="619"/>
      <point x="113" y="699"/>
      <point x="198" y="699" type="curve" smooth="yes"/>
      <point x="285" y="699"/>
      <point x="338" y="603"/>
      <point x="338" y="397" type="curve"/>
      <point x="324" y="373"/>
      <point x="287" y="310"/>
    </contour>
  </outline>
</glyph>
<glyph name="colon" format="2">
  <advance width="186"/>
  <unicode hex="003A"/>
  <outline>
    <contour>
      <point x="94" y="430" type="curve" smooth="yes"/>
      <point x="108" y="430"/>
      <point x="122" y="439"/>
      <point x="122" y="469" type="curve" smooth="yes"/>
      <point x="122" y="499"/>
      <point x="108" y="508"/>
      <point x="94" y="508" type="curve" smooth="yes"/>
      <point x="77" y="508"/>
      <point x="64" y="499"/>
      <point x="64" y="469" type="curve" smooth="yes"/>
      <point x="64" y="439"/>
      <point x="77" y="430"/>
    </contour>
    <contour>
      <point x="94" y="-5" type="curve" smooth="yes"/>
      <point x="108" y="-5"/>
      <point x="122" y="4"/>
      <point x="122" y="34" type="curve" smooth="yes"/>
      <point x="122" y="64"/>
      <point x="108" y="73"/>
      <point x="94" y="73" type="curve" smooth="yes"/>
      <point x="77" y="73"/>
      <point x="64" y="64"/>
      <point x="64" y="34" type="curve" smooth="yes"/>
      <point x="64" y="4"/>
      <point x="77" y="-5"/>
    </contour>
  </outline>
</glyph>
<glyph name="less" format="2">
  <advance width="425"/>
  <unicode hex="003C"/>
  <outline>
    <contour>
      <point x="375" y="117" type="line"/>
      <point x="375" y="153" type="line"/>
      <point x="81" y="357" type="line"/>
      <point x="375" y="563" type="line"/>
      <point x="375" y="599" type="line"/>
      <point x="50" y="371" type="line"/>
      <point x="50" y="344" type="line"/>
    </contour>
  </outline>
</glyph>
<glyph name="equal" format="2">
  <advance width="425"/>
  <unicode hex="003D"/>
  <outline>
    <contour>
      <point x="51" y="443" type="line"/>
      <point x="373" y="443" type="line"/>
      <point x="373" y="471" type="line"/>
      <point x="51" y="471" type="line"/>
    </contour>
    <contour>
      <point x="51" y="244" type="line"/>
      <point x="373" y="244" type="line"/>
      <point x="373" y="272" type="line"/>
      <point x="51" y="272" type="line"/>
    </contour>
  </outline>
</glyph>
<glyph name="greater" format="2">
  <advance width="425"/>
  <unicode hex="003E"/>
  <outline>
    <contour>
      <point x="50" y="117" type="line"/>
      <point x="375" y="344" type="line"/>
      <point x="375" y="371" type="line"/>
      <point x="50" y="599" type="line"/>
      <point x="50" y="563" type="line"/>
      <point x="344" y="357" type="line"/>
      <point x="50" y="153" type="line"/>
    </contour>
  </outline>
</glyph>
<glyph name="question" format="2">
  <advance width="352"/>
  <unicode hex="003F"/>
  <outline>
    <contour>
      <point x="150" y="192" type="line"/>
      <point x="170" y="192" type="line"/>
      <point x="173" y="323" type="line"/>
      <point x="261" y="369"/>
      <point x="306" y="438"/>
      <point x="306" y="552" type="curve" smooth="yes"/>
      <point x="306" y="664"/>
      <point x="250" y="724"/>
      <point x="167" y="724" type="curve" smooth="yes"/>
      <point x="74" y="724"/>
      <point x="38" y="663"/>
      <point x="38" y="614" type="curve" smooth="yes"/>
      <point x="38" y="585"/>
      <point x="49" y="574"/>
      <point x="59" y="574" type="curve"/>
      <point x="59" y="644"/>
      <point x="86" y="699"/>
      <point x="167" y="699" type="curve" smooth="yes"/>
      <point x="240" y="699"/>
      <point x="278" y="642"/>
      <point x="278" y="550" type="curve" smooth="yes"/>
      <point x="278" y="453"/>
      <point x="239" y="385"/>
      <point x="148" y="337" type="curve"/>
    </contour>
    <contour>
      <point x="161" y="-5" type="curve" smooth="yes"/>
      <point x="178" y="-5"/>
      <point x="192" y="4"/>
      <point x="192" y="34" type="curve" smooth="yes"/>
      <point x="192" y="64"/>
      <point x="178" y="73"/>
      <point x="161" y="73" type="curve" smooth="yes"/>
      <point x="146" y="73"/>
      <point x="133" y="64"/>
      <point x="133" y="34" type="curve" smooth="yes"/>
      <point x="133" y="4"/>
      <point x="146" y="-5"/>
    </contour>
  </outline>
</glyph>
<glyph name="bracketleft" format="2">
  <advance width="233"/>
  <unicode hex="005B"/>
  <outline>
    <contour>
      <point x="75" y="-128" type="line"/>
      <point x="204" y="-128" type="line"/>
      <point x="204" y="-108" type="line"/>
      <point x="159" y="-108" type="line" smooth="yes"/>
      <point x="109" y="-108"/>
      <point x="103" y="-97"/>
      <point x="103" y="-20" type="curve" smooth="yes"/>
      <point x="103" y="652" type="line" smooth="yes"/>
      <point x="103" y="729"/>
      <point x="109" y="740"/>
      <point x="159" y="740" type="curve" smooth="yes"/>
      <point x="204" y="740" type="line"/>
      <point x="204" y="760" type="line"/>
      <point x="75" y="760" type="line"/>
    </contour>
  </outline>
</glyph>
<glyph name="backslash" format="2">
  <advance width="219"/>
  <unicode hex="005C"/>
  <outline>
    <contour>
      <point x="190" y="-121" type="line"/>
      <point x="219" y="-121" type="line"/>
      <point x="29" y="760" type="line"/>
      <point x="0" y="760" type="line"/>
    </contour>
  </outline>
</glyph>
<glyph name="bracketright" format="2">
  <advance width="233"/>
  <unicode hex="005D"/>
  <outline>
    <contour>
      <point x="27" y="-128" type="line"/>
      <point x="156" y="-128" type="line"/>
      <point x="156" y="760" type="line"/>
      <point x="27" y="760" type="line"/>
      <point x="27" y="740" type="line"/>
      <point x="72" y="740" type="line" smooth="yes"/>
      <point x="122" y="740"/>
      <point x="128" y="729"/>
      <point x="128" y="652" type="curve" smooth="yes"/>
      <point x="128" y="-20" type="line" smooth="yes"/>
      <point x="128" y="-97"/>
      <point x="122" y="-108"/>
      <point x="72" y="-108" type="curve" smooth="yes"/>
      <point x="27" y="-108" type="line"/>
    </contour>
  </outline>
</glyph>
<glyph name="asciicircum" format="2">
  <advance width="425"/>
  <unicode hex="005E"/>
  <outline>
    <contour>
      <point x="40" y="271" type="line"/>
      <point x="72" y="271" type="line"/>
      <point x="211" y="665" type="line"/>
      <point x="352" y="271" type="line"/>
      <point x="384" y="271" type="line"/>
      <point x="223" y="714" type="line"/>
      <point x="199" y="714" type="line"/>
    </contour>
  </outline>
</glyph>
<glyph name="braceleft" format="2">
  <advance width="314"/>
  <unicode hex="007B"/>
  <outline>
    <contour>
      <point x="240" y="-132" type="curve" smooth="yes"/>
      <point x="261" y="-132" type="line"/>
      <point x="261" y="-107" type="line"/>
      <point x="245" y="-107" type="line" smooth="yes"/>
      <point x="196" y="-107"/>
      <point x="174" y="-70"/>
      <point x="174" y="13" type="curve" smooth="yes"/>
      <point x="174" y="188" type="line" smooth="yes"/>
      <point x="174" y="257"/>
      <point x="147" y="302"/>
      <point x="104" y="314" type="curve"/>
      <point x="104" y="317" type="line"/>
      <point x="151" y="331"/>
      <point x="174" y="373"/>
      <point x="174" y="443" type="curve" smooth="yes"/>
      <point x="174" y="614" type="line" smooth="yes"/>
      <point x="174" y="694"/>
      <point x="193" y="735"/>
      <point x="245" y="735" type="curve" smooth="yes"/>
      <point x="261" y="735" type="line"/>
      <point x="261" y="760" type="line"/>
      <point x="238" y="760" type="line" smooth="yes"/>
      <point x="176" y="760"/>
      <point x="146" y="710"/>
      <point x="146" y="621" type="curve" smooth="yes"/>
      <point x="146" y="445" type="line" smooth="yes"/>
      <point x="146" y="356"/>
      <point x="104" y="327"/>
      <point x="53" y="325" type="curve"/>
      <point x="53" y="305" type="line"/>
      <point x="122" y="301"/>
      <point x="146" y="258"/>
      <point x="146" y="185" type="curve" smooth="yes"/>
      <point x="146" y="8" type="line" smooth="yes"/>
      <point x="146" y="-77"/>
      <point x="176" y="-132"/>
    </contour>
  </outline>
</glyph>
<glyph name="braceright" format="2">
  <advance width="314"/>
  <unicode hex="007D"/>
  <outline>
    <contour>
      <point x="53" y="-132" type="line"/>
      <point x="74" y="-132" type="line" smooth="yes"/>
      <point x="138" y="-132"/>
      <point x="168" y="-77"/>
      <point x="168" y="8" type="curve" smooth="yes"/>
      <point x="168" y="185" type="line" smooth="yes"/>
      <point x="168" y="258"/>
      <point x="192" y="301"/>
      <point x="261" y="305" type="curve"/>
      <point x="261" y="325" type="line"/>
      <point x="210" y="327"/>
      <point x="168" y="356"/>
      <point x="168" y="445" type="curve" smooth="yes"/>
      <point x="168" y="621" type="line" smooth="yes"/>
      <point x="168" y="710"/>
      <point x="138" y="760"/>
      <point x="76" y="760" type="curve" smooth="yes"/>
      <point x="53" y="760" type="line"/>
      <point x="53" y="735" type="line"/>
      <point x="69" y="735" type="line" smooth="yes"/>
      <point x="121" y="735"/>
      <point x="140" y="694"/>
      <point x="140" y="614" type="curve" smooth="yes"/>
      <point x="140" y="443" type="line" smooth="yes"/>
      <point x="140" y="373"/>
      <point x="163" y="331"/>
      <point x="210" y="317" type="curve"/>
      <point x="210" y="314" type="line"/>
      <point x="167" y="302"/>
      <point x="140" y="257"/>
      <point x="140" y="188" type="curve" smooth="yes"/>
      <point x="140" y="13" type="line" smooth="yes"/>
      <point x="140" y="-70"/>
      <point x="118" y="-107"/>
      <point x="69" y="-107" type="curve" smooth="yes"/>
      <point x="53" y="-107" type="line"/>
    </contour>
  </outline>
</glyph>
<glyph name="asciitilde" format="2">
  <advance width="425"/>
  <unicode hex="007E"/>
  <outline>
    <contour>
      <point x="47" y="277" type="curve"/>
      <point x="75" y="277" type="line"/>
      <point x="85" y="354"/>
      <point x="95" y="409"/>
      <point x="134" y="409" type="curve" smooth="yes"/>
      <point x="155" y="409"/>
      <point x="168" y="394"/>
      <point x="203" y="345" type="curve" smooth="yes"/>
      <point x="236" y="298"/>
      <point x="257" y="278"/>
      <point x="290" y="278" type="curve" smooth="yes"/>
      <point x="357" y="278"/>
      <point x="370" y="368"/>
      <point x="378" y="435" type="curve"/>
      <point x="350" y="435" type="line"/>
      <point x="340" y="358"/>
      <point x="329" y="305"/>
      <point x="290" y="305" type="curve" smooth="yes"/>
      <point x="269" y="305"/>
      <point x="255" y="318"/>
      <point x="221" y="367" type="curve" smooth="yes"/>
      <point x="188" y="415"/>
      <point x="167" y="436"/>
      <point x="134" y="436" type="curve" smooth="yes"/>
      <point x="67" y="436"/>
      <point x="55" y="344"/>
    </contour>
  </outline>
</glyph>
<glyph name="twosuperior" format="2">
  <advance width="303"/>
  <unicode hex="00B2"/>
  <outline>
    <contour>
      <point x="37" y="386" type="line"/>
      <point x="248" y="386" type="line"/>
      <point x="249" y="483" type="line"/>
      <point x="229" y="483" type="line"/>
      <point x="228" y="464" type="line" smooth="yes"/>
      <point x="227" y="427"/>
      <point x="221" y="414"/>
      <point x="198" y="414" type="curve" smooth="yes"/>
      <point x="79" y="414" type="line"/>
      <point x="164" y="543" type="line" smooth="yes"/>
      <point x="198" y="594"/>
      <point x="235" y="644"/>
      <point x="235" y="714" type="curve" smooth="yes"/>
      <point x="235" y="789"/>
      <point x="194" y="823"/>
      <point x="140" y="823" type="curve" smooth="yes"/>
      <point x="88" y="823"/>
      <point x="47" y="783"/>
      <point x="47" y="742" type="curve" smooth="yes"/>
      <point x="47" y="721"/>
      <point x="60" y="710"/>
      <point x="73" y="710" type="curve"/>
      <point x="73" y="764"/>
      <point x="94" y="798"/>
      <point x="140" y="798" type="curve" smooth="yes"/>
      <point x="186" y="798"/>
      <point x="207" y="767"/>
      <point x="207" y="713" type="curve" smooth="yes"/>
      <point x="207" y="652"/>
      <point x="173" y="597"/>
      <point x="139" y="548" type="curve" smooth="yes"/>
      <point x="37" y="399" type="line"/>
    </contour>
  </outline>
</glyph>
<glyph name="multiply" format="2">
  <advance width="425"/>
  <unicode hex="00D7"/>
  <outline>
    <contour>
      <point x="77" y="150" type="line"/>
      <point x="219" y="340" type="line"/>
      <point x="361" y="150" type="line"/>
      <point x="384" y="168" type="line"/>
      <point x="237" y="363" type="line"/>
      <point x="384" y="560" type="line"/>
      <point x="362" y="577" type="line"/>
      <point x="219" y="387" type="line"/>
      <point x="76" y="577" type="line"/>
      <point x="54" y="560" type="line"/>
      <point x="201" y="363" type="line"/>
      <point x="54" y="168" type="line"/>
    </contour>
  </outline>
</glyph>
<glyph name="udatta-deva" format="2">
  <unicode hex="0951"/>
  <anchor x="0" y="542" name="_vedic"/>
  <outline>
    <contour>
      <point x="-13" y="902" type="line"/>
      <point x="13" y="902" type="line"/>
      <point x="13" y="1086" type="line"/>
      <point x="-13" y="1086" type="line"/>
    </contour>
  </outline>
</glyph>
<glyph name="anudatta-deva" format="2">
  <unicode hex="0952"/>
  <anchor x="0" y="0" name="_bottom"/>
  <outline>
    <contour>
      <point x="-184" y="-438" type="line"/>
      <point x="184" y="-438" type="line"/>
      <point x="184" y="-414" type="line"/>
      <point x="-184" y="-414" type="line"/>
    </contour>
  </outline>
</glyph>
<glyph name="danda-deva" format="2">
  <advance width="246"/>
  <unicode hex="0964"/>
  <outline>
    <contour>
      <point x="108" y="0" type="line"/>
      <point x="137" y="0" type="line"/>
      <point x="137" y="542" type="line"/>
      <point x="108" y="542" type="line"/>
    </contour>
  </outline>
</glyph>
<glyph name="anusvara-tamil" format="2">
  <unicode hex="0B82"/>
  <note>
uni0B82
</note>
  <anchor x="0" y="542" name="_top"/>
  <outline>
    <contour>
      <point x="0" y="650" type="curve" smooth="yes"/>
      <point x="52" y="650"/>
      <point x="87" y="688"/>
      <point x="87" y="738" type="curve" smooth="yes"/>
      <point x="87" y="788"/>
      <point x="52" y="827"/>
      <point x="0" y="827" type="curve" smooth="yes"/>
      <point x="-52" y="827"/>
      <point x="-87" y="788"/>
      <point x="-87" y="738" type="curve" smooth="yes"/>
      <point x="-87" y="688"/>
      <point x="-52" y="650"/>
    </contour>
    <contour>
      <point x="0" y="675" type="curve" smooth="yes"/>
      <point x="-36" y="675"/>
      <point x="-61" y="702"/>
      <point x="-61" y="738" type="curve" smooth="yes"/>
      <point x="-61" y="774"/>
      <point x="-36" y="802"/>
      <point x="0" y="802" type="curve" smooth="yes"/>
      <point x="36" y="802"/>
      <point x="61" y="774"/>
      <point x="61" y="738" type="curve" smooth="yes"/>
      <point x="61" y="702"/>
      <point x="36" y="675"/>
    </contour>
  </outline>
</glyph>
<glyph name="visarga-tamil" format="2">
  <advance width="639"/>
  <unicode hex="0B83"/>
  <note>
uni0B83
</note>
  <outline>
    <contour>
      <point x="471" y="0" type="curve" smooth="yes"/>
      <point x="542" y="0"/>
      <point x="583" y="77"/>
      <point x="583" y="181" type="curve" smooth="yes"/>
      <point x="583" y="283"/>
      <point x="547" y="362"/>
      <point x="472" y="362" type="curve" smooth="yes"/>
      <point x="393" y="362"/>
      <point x="363" y="277"/>
      <point x="363" y="181" type="curve" smooth="yes"/>
      <point x="363" y="81"/>
      <point x="393" y="0"/>
    </contour>
    <contour>
      <point x="163" y="0" type="curve" smooth="yes"/>
      <point x="235" y="0"/>
      <point x="275" y="77"/>
      <point x="275" y="181" type="curve" smooth="yes"/>
      <point x="275" y="283"/>
      <point x="239" y="362"/>
      <point x="165" y="362" type="curve" smooth="yes"/>
      <point x="85" y="362"/>
      <point x="56" y="277"/>
      <point x="56" y="181" type="curve" smooth="yes"/>
      <point x="56" y="81"/>
      <point x="85" y="0"/>
    </contour>
    <contour>
      <point x="318" y="404" type="curve" smooth="yes"/>
      <point x="390" y="404"/>
      <point x="430" y="480"/>
      <point x="430" y="585" type="curve" smooth="yes"/>
      <point x="430" y="687"/>
      <point x="394" y="766"/>
      <point x="319" y="766" type="curve" smooth="yes"/>
      <point x="240" y="766"/>
      <point x="210" y="681"/>
      <point x="210" y="585" type="curve" smooth="yes"/>
      <point x="210" y="485"/>
      <point x="240" y="404"/>
    </contour>
    <contour>
      <point x="160" y="26" type="curve" smooth="yes"/>
      <point x="99" y="26"/>
      <point x="81" y="96"/>
      <point x="81" y="181" type="curve" smooth="yes"/>
      <point x="81" y="264"/>
      <point x="100" y="337"/>
      <point x="162" y="337" type="curve" smooth="yes"/>
      <point x="225" y="337"/>
      <point x="248" y="267"/>
      <point x="248" y="181" type="curve" smooth="yes"/>
      <point x="248" y="91"/>
      <point x="221" y="26"/>
    </contour>
    <contour>
      <point x="315" y="430" type="curve" smooth="yes"/>
      <point x="254" y="430"/>
      <point x="236" y="500"/>
      <point x="236" y="585" type="curve" smooth="yes"/>
      <point x="236" y="668"/>
      <point x="255" y="741"/>
      <point x="317" y="741" type="curve" smooth="yes"/>
      <point x="380" y="741"/>
      <point x="403" y="671"/>
      <point x="403" y="585" type="curve" smooth="yes"/>
      <point x="403" y="495"/>
      <point x="376" y="430"/>
    </contour>
    <contour>
      <point x="468" y="26" type="curve" smooth="yes"/>
      <point x="407" y="26"/>
      <point x="389" y="96"/>
      <point x="389" y="181" type="curve" smooth="yes"/>
      <point x="389" y="264"/>
      <point x="408" y="337"/>
      <point x="470" y="337" type="curve" smooth="yes"/>
      <point x="533" y="337"/>
      <point x="556" y="267"/>
      <point x="556" y="181" type="curve" smooth="yes"/>
      <point x="556" y="91"/>
      <point x="529" y="26"/>
    </contour>
  </outline>
</glyph>
<glyph name="a-tamil" format="2">
  <advance width="934"/>
  <unicode hex="0B85"/>
  <note>
uni0B85
</note>
  <anchor x="449" y="0" name="bottom"/>
  <anchor x="319" y="-75" name="nukta"/>
  <anchor x="454" y="542" name="top"/>
  <anchor x="455" y="542" name="vedic"/>
  <outline>
    <contour>
      <point x="811" y="-136" type="line"/>
      <point x="840" y="-136" type="line"/>
      <point x="840" y="542" type="line"/>
      <point x="811" y="542" type="line"/>
      <point x="811" y="164" type="line"/>
      <point x="84" y="164" type="line" smooth="yes"/>
      <point x="52" y="164"/>
      <point x="34" y="145"/>
      <point x="34" y="108" type="curve" smooth="yes"/>
      <point x="34" y="34"/>
      <point x="133" y="-75"/>
      <point x="319" y="-75" type="curve" smooth="yes"/>
      <point x="501" y="-75"/>
      <point x="668" y="27"/>
      <point x="668" y="274" type="curve" smooth="yes"/>
      <point x="668" y="446"/>
      <point x="581" y="551"/>
      <point x="453" y="551" type="curve" smooth="yes"/>
      <point x="341" y="551"/>
      <point x="296" y="465"/>
      <point x="296" y="394" type="curve" smooth="yes"/>
      <point x="296" y="315"/>
      <point x="329" y="266"/>
      <point x="388" y="266" type="curve" smooth="yes"/>
      <point x="444" y="266"/>
      <point x="487" y="310"/>
      <point x="487" y="391" type="curve" smooth="yes"/>
      <point x="487" y="456"/>
      <point x="454" y="507"/>
      <point x="418" y="536" type="curve"/>
      <point x="393" y="530" type="line"/>
      <point x="436" y="493"/>
      <point x="459" y="447"/>
      <point x="459" y="391" type="curve" smooth="yes"/>
      <point x="459" y="328"/>
      <point x="432" y="291"/>
      <point x="387" y="291" type="curve" smooth="yes"/>
      <point x="349" y="291"/>
      <point x="323" y="329"/>
      <point x="323" y="392" type="curve" smooth="yes"/>
      <point x="323" y="458"/>
      <point x="358" y="527"/>
      <point x="449" y="527" type="curve" smooth="yes"/>
      <point x="559" y="527"/>
      <point x="639" y="434"/>
      <point x="639" y="275" type="curve" smooth="yes"/>
      <point x="639" y="42"/>
      <point x="482" y="-49"/>
      <point x="318" y="-49" type="curve" smooth="yes"/>
      <point x="156" y="-49"/>
      <point x="61" y="43"/>
      <point x="61" y="114" type="curve" smooth="yes"/>
      <point x="61" y="128"/>
      <point x="69" y="141"/>
      <point x="87" y="141" type="curve" smooth="yes"/>
      <point x="811" y="141" type="line"/>
    </contour>
  </outline>
</glyph>
<glyph name="aa-tamil" format="2">
  <advance width="1001"/>
  <unicode hex="0B86"/>
  <note>
uni0B86
</note>
  <anchor x="498" y="0" name="bottom"/>
  <anchor x="319" y="-75" name="nukta"/>
  <anchor x="503" y="542" name="top"/>
  <anchor x="503" y="542" name="vedic"/>
  <outline>
    <contour>
      <point x="709" y="-375" type="curve" smooth="yes"/>
      <point x="832" y="-375"/>
      <point x="981" y="-276"/>
      <point x="981" y="-105" type="curve" smooth="yes"/>
      <point x="981" y="-37"/>
      <point x="951" y="1"/>
      <point x="906" y="1" type="curve" smooth="yes"/>
      <point x="857" y="1"/>
      <point x="832" y="-37"/>
      <point x="825" y="-109" type="curve"/>
      <point x="838" y="-119" type="line"/>
      <point x="840" y="-58"/>
      <point x="864" y="-26"/>
      <point x="899" y="-26" type="curve" smooth="yes"/>
      <point x="931" y="-26"/>
      <point x="952" y="-51"/>
      <point x="952" y="-106" type="curve" smooth="yes"/>
      <point x="952" y="-261"/>
      <point x="815" y="-347"/>
      <point x="706" y="-347" type="curve" smooth="yes"/>
      <point x="645" y="-347"/>
      <point x="596" y="-323"/>
      <point x="596" y="-253" type="curve" smooth="yes"/>
      <point x="596" y="-208"/>
      <point x="620" y="-177"/>
      <point x="664" y="-155" type="curve"/>
      <point x="653" y="-131" type="line"/>
      <point x="598" y="-159"/>
      <point x="568" y="-196"/>
      <point x="568" y="-252" type="curve" smooth="yes"/>
      <point x="568" y="-335"/>
      <point x="625" y="-375"/>
    </contour>
    <component base="a-tamil"/>
  </outline>
</glyph>
<glyph name="i-tamil" format="2">
  <advance width="712"/>
  <unicode hex="0B87"/>
  <note>
uni0B87
</note>
  <anchor x="346" y="0" name="bottom"/>
  <anchor x="344" y="-243" name="nukta"/>
  <anchor x="354" y="771" name="top"/>
  <anchor x="352" y="542" name="vedic"/>
  <outline>
    <contour>
      <point x="171" y="-278" type="curve" smooth="yes"/>
      <point x="366" y="-278"/>
      <point x="528" y="3"/>
      <point x="528" y="267" type="curve" smooth="yes"/>
      <point x="528" y="445"/>
      <point x="462" y="551"/>
      <point x="346" y="551" type="curve" smooth="yes"/>
      <point x="250" y="551"/>
      <point x="195" y="476"/>
      <point x="195" y="394" type="curve" smooth="yes"/>
      <point x="195" y="314"/>
      <point x="229" y="266"/>
      <point x="286" y="266" type="curve" smooth="yes"/>
      <point x="344" y="266"/>
      <point x="385" y="312"/>
      <point x="385" y="391" type="curve" smooth="yes"/>
      <point x="385" y="456"/>
      <point x="355" y="507"/>
      <point x="313" y="535" type="curve"/>
      <point x="291" y="530" type="line"/>
      <point x="336" y="493"/>
      <point x="357" y="447"/>
      <point x="357" y="391" type="curve" smooth="yes"/>
      <point x="357" y="333"/>
      <point x="333" y="291"/>
      <point x="286" y="291" type="curve" smooth="yes"/>
      <point x="246" y="291"/>
      <point x="222" y="331"/>
      <point x="222" y="392" type="curve" smooth="yes"/>
      <point x="222" y="462"/>
      <point x="261" y="527"/>
      <point x="339" y="527" type="curve" smooth="yes"/>
      <point x="440" y="527"/>
      <point x="499" y="432"/>
      <point x="499" y="268" type="curve" smooth="yes"/>
      <point x="499" y="24"/>
      <point x="354" y="-252"/>
      <point x="177" y="-252" type="curve" smooth="yes"/>
      <point x="114" y="-252"/>
      <point x="76" y="-219"/>
      <point x="76" y="-146" type="curve" smooth="yes"/>
      <point x="76" y="-11"/>
      <point x="204" y="80"/>
      <point x="347" y="80" type="curve" smooth="yes"/>
      <point x="486" y="80"/>
      <point x="619" y="-14"/>
      <point x="619" y="-146" type="curve" smooth="yes"/>
      <point x="619" y="-222"/>
      <point x="576" y="-252"/>
      <point x="517" y="-252" type="curve" smooth="yes"/>
      <point x="354" y="-252"/>
      <point x="91" y="73"/>
      <point x="91" y="389" type="curve" smooth="yes"/>
      <point x="91" y="621"/>
      <point x="182" y="740"/>
      <point x="354" y="740" type="curve" smooth="yes"/>
      <point x="527" y="740"/>
      <point x="630" y="620"/>
      <point x="630" y="375" type="curve" smooth="yes"/>
      <point x="630" y="108" type="line"/>
      <point x="656" y="108" type="line"/>
      <point x="656" y="375" type="line" smooth="yes"/>
      <point x="656" y="645"/>
      <point x="542" y="771"/>
      <point x="354" y="771" type="curve" smooth="yes"/>
      <point x="166" y="771"/>
      <point x="63" y="637"/>
      <point x="63" y="394" type="curve" smooth="yes"/>
      <point x="63" y="69"/>
      <point x="338" y="-278"/>
      <point x="524" y="-278" type="curve" smooth="yes"/>
      <point x="592" y="-278"/>
      <point x="646" y="-242"/>
      <point x="646" y="-149" type="curve" smooth="yes"/>
      <point x="646" y="3"/>
      <point x="506" y="105"/>
      <point x="347" y="105" type="curve" smooth="yes"/>
      <point x="185" y="105"/>
      <point x="49" y="1"/>
      <point x="49" y="-147" type="curve" smooth="yes"/>
      <point x="49" y="-234"/>
      <point x="99" y="-278"/>
    </contour>
  </outline>
</glyph>
<glyph name="ii-tamil" format="2">
  <advance width="551"/>
  <unicode hex="0B88"/>
  <note>
uni0B88
</note>
  <anchor x="292" y="0" name="bottom"/>
  <anchor x="292" y="0" name="nukta"/>
  <anchor x="296" y="542" name="top"/>
  <anchor x="295" y="542" name="vedic"/>
  <outline>
    <contour>
      <point x="95" y="0" type="line"/>
      <point x="121" y="0" type="line"/>
      <point x="121" y="519" type="line"/>
      <point x="337" y="519" type="line"/>
      <point x="337" y="0" type="line"/>
      <point x="367" y="0" type="line"/>
      <point x="367" y="519" type="line"/>
      <point x="512" y="519" type="line"/>
      <point x="512" y="542" type="line"/>
      <point x="95" y="542" type="line"/>
    </contour>
    <contour>
      <point x="227" y="231" type="curve" smooth="yes"/>
      <point x="244" y="231"/>
      <point x="257" y="245"/>
      <point x="257" y="261" type="curve" smooth="yes"/>
      <point x="257" y="278"/>
      <point x="244" y="292"/>
      <point x="227" y="292" type="curve" smooth="yes"/>
      <point x="209" y="292"/>
      <point x="195" y="278"/>
      <point x="195" y="261" type="curve" smooth="yes"/>
      <point x="195" y="245"/>
      <point x="209" y="231"/>
    </contour>
    <contour>
      <point x="476" y="231" type="curve" smooth="yes"/>
      <point x="493" y="231"/>
      <point x="506" y="245"/>
      <point x="506" y="261" type="curve" smooth="yes"/>
      <point x="506" y="278"/>
      <point x="493" y="292"/>
      <point x="476" y="292" type="curve" smooth="yes"/>
      <point x="458" y="292"/>
      <point x="444" y="278"/>
      <point x="444" y="261" type="curve" smooth="yes"/>
      <point x="444" y="245"/>
      <point x="458" y="231"/>
    </contour>
  </outline>
</glyph>
<glyph name="e-tamil" format="2">
  <advance width="635"/>
  <unicode hex="0B8E"/>
  <note>
uni0B8E
</note>
  <anchor x="330" y="0" name="bottom"/>
  <anchor x="331" y="0" name="nukta"/>
  <anchor x="332" y="542" name="top"/>
  <anchor x="333" y="542" name="vedic"/>
  <outline>
    <contour>
      <point x="190" y="-4" type="curve" smooth="yes"/>
      <point x="260" y="-4"/>
      <point x="307" y="51"/>
      <point x="307" y="146" type="curve" smooth="yes"/>
      <point x="307" y="233"/>
      <point x="261" y="283"/>
      <point x="197" y="283" type="curve" smooth="yes"/>
      <point x="125" y="283"/>
      <point x="91" y="220"/>
      <point x="77" y="162" type="curve"/>
      <point x="86" y="130" type="line"/>
      <point x="106" y="198"/>
      <point x="137" y="258"/>
      <point x="194" y="258" type="curve" smooth="yes"/>
      <point x="246" y="258"/>
      <point x="280" y="215"/>
      <point x="280" y="142" type="curve" smooth="yes"/>
      <point x="280" y="62"/>
      <point x="238" y="21"/>
      <point x="189" y="21" type="curve" smooth="yes"/>
      <point x="124" y="21"/>
      <point x="83" y="94"/>
      <point x="83" y="229" type="curve" smooth="yes"/>
      <point x="83" y="387"/>
      <point x="142" y="519"/>
      <point x="291" y="519" type="curve" smooth="yes"/>
      <point x="458" y="519" type="line"/>
      <point x="458" y="0" type="line"/>
      <point x="487" y="0" type="line"/>
      <point x="487" y="519" type="line"/>
      <point x="610" y="519" type="line"/>
      <point x="610" y="542" type="line"/>
      <point x="291" y="542" type="line" smooth="yes"/>
      <point x="114" y="542"/>
      <point x="56" y="397"/>
      <point x="56" y="230" type="curve" smooth="yes"/>
      <point x="56" y="87"/>
      <point x="104" y="-4"/>
    </contour>
  </outline>
</glyph>
<glyph name="ee-tamil" format="2">
  <advance width="635"/>
  <unicode hex="0B8F"/>
  <note>
uni0B8F
</note>
  <anchor x="330" y="0" name="bottom"/>
  <anchor x="331" y="-171" name="nukta"/>
  <anchor x="334" y="542" name="top"/>
  <anchor x="333" y="542" name="vedic"/>
  <outline>
    <contour>
      <point x="351" y="-195" type="line"/>
      <point x="487" y="-1" type="line"/>
      <point x="487" y="519" type="line"/>
      <point x="610" y="519" type="line"/>
      <point x="610" y="542" type="line"/>
      <point x="291" y="542" type="line" smooth="yes"/>
      <point x="114" y="542"/>
      <point x="56" y="397"/>
      <point x="56" y="230" type="curve" smooth="yes"/>
      <point x="56" y="87"/>
      <point x="104" y="-4"/>
      <point x="190" y="-4" type="curve" smooth="yes"/>
      <point x="260" y="-4"/>
      <point x="307" y="51"/>
      <point x="307" y="146" type="curve" smooth="yes"/>
      <point x="307" y="233"/>
      <point x="261" y="283"/>
      <point x="197" y="283" type="curve" smooth="yes"/>
      <point x="125" y="283"/>
      <point x="91" y="220"/>
      <point x="77" y="162" type="curve"/>
      <point x="86" y="130" type="line"/>
      <point x="106" y="198"/>
      <point x="137" y="258"/>
      <point x="194" y="258" type="curve" smooth="yes"/>
      <point x="246" y="258"/>
      <point x="280" y="215"/>
      <point x="280" y="142" type="curve" smooth="yes"/>
      <point x="280" y="62"/>
      <point x="238" y="21"/>
      <point x="189" y="21" type="curve" smooth="yes"/>
      <point x="124" y="21"/>
      <point x="83" y="94"/>
      <point x="83" y="229" type="curve" smooth="yes"/>
      <point x="83" y="387"/>
      <point x="142" y="519"/>
      <point x="291" y="519" type="curve" smooth="yes"/>
      <point x="458" y="519" type="line"/>
      <point x="458" y="5" type="line"/>
      <point x="330" y="-180" type="line"/>
    </contour>
  </outline>
</glyph>
<glyph name="oo-tamil" format="2">
  <advance width="719"/>
  <unicode hex="0B93"/>
  <note>
uni0B93
</note>
  <anchor x="358" y="0" name="bottom"/>
  <anchor x="356" y="-227" name="nukta"/>
  <anchor x="351" y="542" name="top"/>
  <anchor x="351" y="542" name="vedic"/>
  <outline>
    <contour>
      <point x="257" y="-247" type="curve" smooth="yes"/>
      <point x="380" y="-247"/>
      <point x="420" y="-111"/>
      <point x="552" y="-111" type="curve" smooth="yes"/>
      <point x="560" y="-111" type="line"/>
      <point x="560" y="-87" type="line"/>
      <point x="545" y="-87" type="line" smooth="yes"/>
      <point x="463" y="-87"/>
      <point x="396" y="-33"/>
      <point x="396" y="65" type="curve" smooth="yes"/>
      <point x="396" y="108"/>
      <point x="408" y="158"/>
      <point x="438" y="217" type="curve"/>
      <point x="442" y="215" type="line"/>
      <point x="434" y="184"/>
      <point x="430" y="153"/>
      <point x="430" y="125" type="curve" smooth="yes"/>
      <point x="430" y="51"/>
      <point x="459" y="-5"/>
      <point x="532" y="-5" type="curve" smooth="yes"/>
      <point x="612" y="-5"/>
      <point x="663" y="63"/>
      <point x="663" y="205" type="curve" smooth="yes"/>
      <point x="663" y="426"/>
      <point x="532" y="551"/>
      <point x="346" y="551" type="curve" smooth="yes"/>
      <point x="169" y="551"/>
      <point x="56" y="397"/>
      <point x="56" y="230" type="curve" smooth="yes"/>
      <point x="56" y="87"/>
      <point x="104" y="-4"/>
      <point x="190" y="-4" type="curve" smooth="yes"/>
      <point x="260" y="-4"/>
      <point x="307" y="51"/>
      <point x="307" y="146" type="curve" smooth="yes"/>
      <point x="307" y="233"/>
      <point x="261" y="283"/>
      <point x="197" y="283" type="curve" smooth="yes"/>
      <point x="125" y="283"/>
      <point x="91" y="220"/>
      <point x="77" y="162" type="curve"/>
      <point x="86" y="130" type="line"/>
      <point x="106" y="198"/>
      <point x="137" y="258"/>
      <point x="194" y="258" type="curve" smooth="yes"/>
      <point x="246" y="258"/>
      <point x="280" y="215"/>
      <point x="280" y="142" type="curve" smooth="yes"/>
      <point x="280" y="62"/>
      <point x="238" y="21"/>
      <point x="189" y="21" type="curve" smooth="yes"/>
      <point x="124" y="21"/>
      <point x="83" y="94"/>
      <point x="83" y="229" type="curve" smooth="yes"/>
      <point x="83" y="387"/>
      <point x="192" y="527"/>
      <point x="346" y="527" type="curve" smooth="yes"/>
      <point x="514" y="527"/>
      <point x="633" y="408"/>
      <point x="633" y="209" type="curve" smooth="yes"/>
      <point x="633" y="81"/>
      <point x="594" y="21"/>
      <point x="529" y="21" type="curve" smooth="yes"/>
      <point x="478" y="21"/>
      <point x="454" y="66"/>
      <point x="454" y="130" type="curve" smooth="yes"/>
      <point x="454" y="164"/>
      <point x="461" y="204"/>
      <point x="475" y="245" type="curve"/>
      <point x="434" y="262" type="line"/>
      <point x="389" y="179"/>
      <point x="372" y="112"/>
      <point x="372" y="60" type="curve" smooth="yes"/>
      <point x="372" y="-34"/>
      <point x="429" y="-82"/>
      <point x="488" y="-99" type="curve"/>
      <point x="488" y="-103" type="line"/>
      <point x="400" y="-122"/>
      <point x="347" y="-220"/>
      <point x="252" y="-220" type="curve" smooth="yes"/>
      <point x="208" y="-220"/>
      <point x="177" y="-190"/>
      <point x="177" y="-152" type="curve" smooth="yes"/>
      <point x="177" y="-110"/>
      <point x="204" y="-88"/>
      <point x="233" y="-88" type="curve" smooth="yes"/>
      <point x="261" y="-88"/>
      <point x="280" y="-108"/>
      <point x="288" y="-129" type="curve"/>
      <point x="298" y="-122"/>
      <point x="306" y="-112"/>
      <point x="306" y="-95" type="curve" smooth="yes"/>
      <point x="306" y="-69"/>
      <point x="277" y="-51"/>
      <point x="246" y="-51" type="curve" smooth="yes"/>
      <point x="188" y="-51"/>
      <point x="152" y="-95"/>
      <point x="152" y="-151" type="curve" smooth="yes"/>
      <point x="152" y="-206"/>
      <point x="195" y="-247"/>
    </contour>
  </outline>
</glyph>
<glyph name="au-tamil" format="2">
  <advance width="1588"/>
  <unicode hex="0B94"/>
  <note>
uni0B94
</note>
  <anchor x="817" y="0" name="bottom"/>
  <anchor x="864" y="0" name="nukta"/>
  <anchor x="810" y="542" name="top"/>
  <anchor x="810" y="542" name="vedic"/>
  <outline>
    <contour>
      <point x="893" y="-4" type="curve" smooth="yes"/>
      <point x="961" y="-4"/>
      <point x="1010" y="48"/>
      <point x="1010" y="148" type="curve" smooth="yes"/>
      <point x="1010" y="234"/>
      <point x="962" y="283"/>
      <point x="902" y="283" type="curve" smooth="yes"/>
      <point x="834" y="283"/>
      <point x="796" y="227"/>
      <point x="781" y="162" type="curve"/>
      <point x="790" y="130" type="line"/>
      <point x="811" y="198"/>
      <point x="841" y="258"/>
      <point x="898" y="258" type="curve" smooth="yes"/>
      <point x="948" y="258"/>
      <point x="983" y="217"/>
      <point x="983" y="144" type="curve" smooth="yes"/>
      <point x="983" y="64"/>
      <point x="943" y="21"/>
      <point x="892" y="21" type="curve" smooth="yes"/>
      <point x="825" y="21"/>
      <point x="787" y="102"/>
      <point x="787" y="227" type="curve" smooth="yes"/>
      <point x="787" y="401"/>
      <point x="859" y="527"/>
      <point x="986" y="527" type="curve" smooth="yes"/>
      <point x="1086" y="527"/>
      <point x="1166" y="460"/>
      <point x="1166" y="285" type="curve"/>
      <point x="1189" y="286" type="line"/>
      <point x="1188" y="476"/>
      <point x="1108" y="551"/>
      <point x="985" y="551" type="curve" smooth="yes"/>
      <point x="837" y="551"/>
      <point x="760" y="412"/>
      <point x="760" y="229" type="curve"/>
      <point x="760" y="94"/>
      <point x="807" y="-4"/>
    </contour>
    <contour>
      <point x="1166" y="0" type="line"/>
      <point x="1194" y="0" type="line"/>
      <point x="1194" y="519" type="line"/>
      <point x="1390" y="519" type="line"/>
      <point x="1390" y="0" type="line"/>
      <point x="1419" y="0" type="line"/>
      <point x="1419" y="519" type="line"/>
      <point x="1563" y="519" type="line"/>
      <point x="1563" y="542" type="line"/>
      <point x="1166" y="542" type="line"/>
      <point x="1166" y="383" type="line"/>
      <point x="1166" y="357" type="line"/>
    </contour>
    <component base="o-tamil"/>
  </outline>
</glyph>
<glyph name="ka-tamil" format="2">
  <advance width="587"/>
  <unicode hex="0B95"/>
  <note>
uni0B95
</note>
  <anchor x="299" y="0" name="bottom"/>
  <anchor x="389" y="542" name="imatra"/>
  <anchor x="304" y="0" name="nukta"/>
  <anchor x="316" y="542" name="top"/>
  <anchor x="321" y="542" name="vedic"/>
  <outline>
    <contour>
      <point x="190" y="-4" type="curve" smooth="yes"/>
      <point x="273" y="-4"/>
      <point x="337" y="55"/>
      <point x="337" y="172" type="curve" smooth="yes"/>
      <point x="337" y="275" type="line"/>
      <point x="382" y="275" type="line" smooth="yes"/>
      <point x="464" y="275"/>
      <point x="504" y="233"/>
      <point x="504" y="148" type="curve" smooth="yes"/>
      <point x="504" y="71"/>
      <point x="464" y="21"/>
      <point x="392" y="21" type="curve" smooth="yes"/>
      <point x="367" y="21" type="line"/>
      <point x="367" y="-2" type="line"/>
      <point x="398" y="-2" type="line" smooth="yes"/>
      <point x="473" y="-2"/>
      <point x="533" y="46"/>
      <point x="533" y="147" type="curve" smooth="yes"/>
      <point x="533" y="251"/>
      <point x="483" y="299"/>
      <point x="381" y="299" type="curve" smooth="yes"/>
      <point x="337" y="299" type="line"/>
      <point x="337" y="519" type="line"/>
      <point x="463" y="519" type="line"/>
      <point x="463" y="542" type="line"/>
      <point x="146" y="542" type="line"/>
      <point x="146" y="284" type="line"/>
      <point x="172" y="284" type="line"/>
      <point x="172" y="519" type="line"/>
      <point x="309" y="519" type="line"/>
      <point x="309" y="299" type="line"/>
      <point x="188" y="299" type="line" smooth="yes"/>
      <point x="104" y="299"/>
      <point x="59" y="225"/>
      <point x="59" y="144" type="curve" smooth="yes"/>
      <point x="59" y="60"/>
      <point x="107" y="-4"/>
    </contour>
    <contour>
      <point x="190" y="21" type="curve" smooth="yes"/>
      <point x="125" y="21"/>
      <point x="89" y="72"/>
      <point x="89" y="146" type="curve" smooth="yes"/>
      <point x="89" y="208"/>
      <point x="119" y="275"/>
      <point x="192" y="275" type="curve" smooth="yes"/>
      <point x="309" y="275" type="line"/>
      <point x="309" y="168" type="line" smooth="yes"/>
      <point x="309" y="71"/>
      <point x="258" y="21"/>
    </contour>
  </outline>
</glyph>
<glyph name="ca-tamil" format="2">
  <advance width="498"/>
  <unicode hex="0B9A"/>
  <note>
uni0B9A
</note>
  <anchor x="266" y="0" name="bottom"/>
  <anchor x="414" y="542" name="imatra"/>
  <anchor x="266" y="0" name="nukta"/>
  <anchor x="303" y="542" name="top"/>
  <anchor x="272" y="542" name="vedic"/>
  <outline>
    <contour>
      <point x="190" y="-4" type="curve" smooth="yes"/>
      <point x="275" y="-4"/>
      <point x="337" y="55"/>
      <point x="337" y="172" type="curve" smooth="yes"/>
      <point x="337" y="275" type="line"/>
      <point x="463" y="275" type="line"/>
      <point x="463" y="299" type="line"/>
      <point x="337" y="299" type="line"/>
      <point x="337" y="519" type="line"/>
      <point x="463" y="519" type="line"/>
      <point x="463" y="542" type="line"/>
      <point x="146" y="542" type="line"/>
      <point x="146" y="284" type="line"/>
      <point x="172" y="284" type="line"/>
      <point x="172" y="519" type="line"/>
      <point x="309" y="519" type="line"/>
      <point x="309" y="299" type="line"/>
      <point x="193" y="299" type="line" smooth="yes"/>
      <point x="99" y="299"/>
      <point x="59" y="221"/>
      <point x="59" y="144" type="curve" smooth="yes"/>
      <point x="59" y="60"/>
      <point x="107" y="-4"/>
    </contour>
    <contour>
      <point x="190" y="21" type="curve" smooth="yes"/>
      <point x="125" y="21"/>
      <point x="89" y="72"/>
      <point x="89" y="146" type="curve" smooth="yes"/>
      <point x="89" y="208"/>
      <point x="116" y="275"/>
      <point x="197" y="275" type="curve" smooth="yes"/>
      <point x="309" y="275" type="line"/>
      <point x="309" y="168" type="line" smooth="yes"/>
      <point x="309" y="71"/>
      <point x="258" y="21"/>
    </contour>
  </outline>
</glyph>
<glyph name="nya-tamil" format="2">
  <advance width="881"/>
  <unicode hex="0B9E"/>
  <note>
uni0B9E
</note>
  <anchor x="478" y="0" name="bottom"/>
  <anchor x="719" y="542" name="imatra"/>
  <anchor x="483" y="-250" name="nukta"/>
  <anchor x="495" y="542" name="top"/>
  <anchor x="452" y="542" name="vedic"/>
  <outline>
    <contour>
      <point x="481" y="-250" type="curve" smooth="yes"/>
      <point x="677" y="-250"/>
      <point x="847" y="-124"/>
      <point x="847" y="118" type="curve" smooth="yes"/>
      <point x="847" y="264"/>
      <point x="801" y="328"/>
      <point x="726" y="328" type="curve" smooth="yes"/>
      <point x="660" y="328"/>
      <point x="622" y="270"/>
      <point x="622" y="172" type="curve" smooth="yes"/>
      <point x="622" y="159" type="line"/>
      <point x="635" y="159" type="line"/>
      <point x="635" y="172" type="line" smooth="yes"/>
      <point x="635" y="240"/>
      <point x="663" y="304"/>
      <point x="721" y="304" type="curve" smooth="yes"/>
      <point x="779" y="304"/>
      <point x="817" y="253"/>
      <point x="817" y="119" type="curve" smooth="yes"/>
      <point x="817" y="-106"/>
      <point x="656" y="-224"/>
      <point x="481" y="-224" type="curve" smooth="yes"/>
      <point x="263" y="-224"/>
      <point x="87" y="-52"/>
      <point x="87" y="220" type="curve" smooth="yes"/>
      <point x="87" y="372"/>
      <point x="114" y="484"/>
      <point x="215" y="626" type="curve"/>
      <point x="191" y="643" type="line"/>
      <point x="87" y="496"/>
      <point x="59" y="386"/>
      <point x="59" y="216" type="curve" smooth="yes"/>
      <point x="59" y="-61"/>
      <point x="239" y="-250"/>
    </contour>
    <component base="e-tamil" xOffset="149"/>
  </outline>
</glyph>
<glyph name="nna-tamil" format="2">
  <advance width="1200"/>
  <unicode hex="0BA3"/>
  <note>
uni0BA3
</note>
  <anchor x="641" y="0" name="bottom"/>
  <anchor x="1100" y="542" name="imatra"/>
  <anchor x="641" y="0" name="nukta"/>
  <anchor x="639" y="542" name="top"/>
  <anchor x="615" y="542" name="vedic"/>
  <outline>
    <contour>
      <point x="486" y="-5" type="curve" smooth="yes"/>
      <point x="554" y="-5"/>
      <point x="605" y="52"/>
      <point x="605" y="173" type="curve" smooth="yes"/>
      <point x="605" y="397"/>
      <point x="491" y="551"/>
      <point x="303" y="551" type="curve" smooth="yes"/>
      <point x="134" y="551"/>
      <point x="56" y="407"/>
      <point x="56" y="229" type="curve" smooth="yes"/>
      <point x="56" y="94"/>
      <point x="103" y="-4"/>
      <point x="188" y="-4" type="curve" smooth="yes"/>
      <point x="257" y="-4"/>
      <point x="306" y="48"/>
      <point x="306" y="148" type="curve" smooth="yes"/>
      <point x="306" y="234"/>
      <point x="258" y="283"/>
      <point x="198" y="283" type="curve" smooth="yes"/>
      <point x="130" y="283"/>
      <point x="92" y="227"/>
      <point x="77" y="162" type="curve"/>
      <point x="86" y="130" type="line"/>
      <point x="106" y="198"/>
      <point x="137" y="258"/>
      <point x="194" y="258" type="curve" smooth="yes"/>
      <point x="244" y="258"/>
      <point x="279" y="217"/>
      <point x="279" y="144" type="curve" smooth="yes"/>
      <point x="279" y="64"/>
      <point x="239" y="21"/>
      <point x="188" y="21" type="curve" smooth="yes"/>
      <point x="121" y="21"/>
      <point x="83" y="102"/>
      <point x="83" y="227" type="curve" smooth="yes"/>
      <point x="83" y="398"/>
      <point x="157" y="527"/>
      <point x="298" y="527" type="curve" smooth="yes"/>
      <point x="479" y="527"/>
      <point x="577" y="377"/>
      <point x="577" y="172" type="curve" smooth="yes"/>
      <point x="577" y="62"/>
      <point x="537" y="21"/>
      <point x="484" y="21" type="curve" smooth="yes"/>
      <point x="432" y="21"/>
      <point x="401" y="70"/>
      <point x="401" y="170" type="curve" smooth="yes"/>
      <point x="401" y="356"/>
      <point x="470" y="527"/>
      <point x="637" y="527" type="curve" smooth="yes"/>
      <point x="807" y="527"/>
      <point x="883" y="348"/>
      <point x="883" y="172" type="curve" smooth="yes"/>
      <point x="883" y="62"/>
      <point x="843" y="21"/>
      <point x="790" y="21" type="curve" smooth="yes"/>
      <point x="738" y="21"/>
      <point x="707" y="70"/>
      <point x="707" y="170" type="curve" smooth="yes"/>
      <point x="707" y="356"/>
      <point x="792" y="519"/>
      <point x="957" y="519" type="curve" smooth="yes"/>
      <point x="1175" y="519" type="line"/>
      <point x="1175" y="542" type="line"/>
      <point x="960" y="542" type="line" smooth="yes"/>
      <point x="770" y="542"/>
      <point x="683" y="361"/>
      <point x="683" y="173" type="curve" smooth="yes"/>
      <point x="683" y="47"/>
      <point x="723" y="-5"/>
      <point x="792" y="-5" type="curve" smooth="yes"/>
      <point x="860" y="-5"/>
      <point x="911" y="52"/>
      <point x="911" y="173" type="curve" smooth="yes"/>
      <point x="911" y="368"/>
      <point x="818" y="551"/>
      <point x="641" y="551" type="curve" smooth="yes"/>
      <point x="449" y="551"/>
      <point x="377" y="361"/>
      <point x="377" y="173" type="curve" smooth="yes"/>
      <point x="377" y="47"/>
      <point x="417" y="-5"/>
    </contour>
    <contour>
      <point x="1026" y="0" type="line"/>
      <point x="1055" y="0" type="line"/>
      <point x="1055" y="528" type="line"/>
      <point x="1026" y="528" type="line"/>
    </contour>
  </outline>
</glyph>
<glyph name="ta-tamil" format="2">
  <advance width="587"/>
  <unicode hex="0BA4"/>
  <note>
uni0BA4
</note>
  <anchor x="292" y="0" name="bottom"/>
  <anchor x="421" y="542" name="imatra"/>
  <anchor x="292" y="-121" name="nukta"/>
  <anchor x="310" y="542" name="top"/>
  <anchor x="298" y="542" name="vedic"/>
  <outline>
    <contour>
      <point x="117" y="-183" type="curve"/>
      <point x="117" y="-147"/>
      <point x="132" y="-113"/>
      <point x="176" y="-113" type="curve" smooth="yes"/>
      <point x="322" y="-113" type="line" smooth="yes"/>
      <point x="453" y="-113"/>
      <point x="533" y="-46"/>
      <point x="533" y="97" type="curve" smooth="yes"/>
      <point x="533" y="228"/>
      <point x="477" y="299"/>
      <point x="366" y="299" type="curve" smooth="yes"/>
      <point x="337" y="299" type="line"/>
      <point x="337" y="519" type="line"/>
      <point x="469" y="519" type="line"/>
      <point x="469" y="542" type="line"/>
      <point x="146" y="542" type="line"/>
      <point x="146" y="284" type="line"/>
      <point x="172" y="284" type="line"/>
      <point x="172" y="519" type="line"/>
      <point x="309" y="519" type="line"/>
      <point x="309" y="299" type="line"/>
      <point x="193" y="299" type="line" smooth="yes"/>
      <point x="99" y="299"/>
      <point x="59" y="221"/>
      <point x="59" y="144" type="curve" smooth="yes"/>
      <point x="59" y="60"/>
      <point x="107" y="-4"/>
      <point x="190" y="-4" type="curve" smooth="yes"/>
      <point x="275" y="-4"/>
      <point x="337" y="55"/>
      <point x="337" y="172" type="curve" smooth="yes"/>
      <point x="337" y="275" type="line"/>
      <point x="367" y="275" type="line" smooth="yes"/>
      <point x="460" y="275"/>
      <point x="504" y="206"/>
      <point x="504" y="98" type="curve" smooth="yes"/>
      <point x="504" y="-34"/>
      <point x="430" y="-87"/>
      <point x="316" y="-87" type="curve" smooth="yes"/>
      <point x="150" y="-87" type="line" smooth="yes"/>
      <point x="108" y="-87"/>
      <point x="79" y="-111"/>
      <point x="79" y="-143" type="curve" smooth="yes"/>
      <point x="79" y="-166"/>
      <point x="93" y="-183"/>
    </contour>
    <contour>
      <point x="190" y="21" type="curve" smooth="yes"/>
      <point x="125" y="21"/>
      <point x="89" y="72"/>
      <point x="89" y="146" type="curve" smooth="yes"/>
      <point x="89" y="208"/>
      <point x="116" y="275"/>
      <point x="197" y="275" type="curve" smooth="yes"/>
      <point x="309" y="275" type="line"/>
      <point x="309" y="168" type="line" smooth="yes"/>
      <point x="309" y="71"/>
      <point x="258" y="21"/>
    </contour>
  </outline>
</glyph>
<glyph name="pa-tamil" format="2">
  <advance width="651"/>
  <unicode hex="0BAA"/>
  <note>
uni0BAA
</note>
  <anchor x="325" y="0" name="bottom"/>
  <anchor x="550" y="542" name="imatra"/>
  <anchor x="325" y="0" name="nukta"/>
  <anchor x="329" y="542" name="top"/>
  <anchor x="325" y="542" name="vedic"/>
  <outline>
    <contour>
      <point x="95" y="0" type="line"/>
      <point x="557" y="0" type="line"/>
      <point x="557" y="542" type="line"/>
      <point x="528" y="542" type="line"/>
      <point x="528" y="23" type="line"/>
      <point x="124" y="23" type="line"/>
      <point x="124" y="542" type="line"/>
      <point x="95" y="542" type="line"/>
    </contour>
  </outline>
</glyph>
<glyph name="ra-tamil" format="2">
  <advance width="503"/>
  <unicode hex="0BB0"/>
  <note>
uni0BB0
</note>
  <anchor x="267" y="0" name="bottom"/>
  <anchor x="432" y="542" name="imatra"/>
  <anchor x="265" y="-165" name="nukta"/>
  <anchor x="280" y="542" name="top"/>
  <anchor x="283" y="542" name="vedic"/>
  <outline>
    <contour>
      <point x="198" y="-195" type="line"/>
      <point x="333" y="-1" type="line"/>
      <point x="333" y="519" type="line"/>
      <point x="478" y="519" type="line"/>
      <point x="478" y="542" type="line"/>
      <point x="95" y="542" type="line"/>
      <point x="95" y="0" type="line"/>
      <point x="121" y="0" type="line"/>
      <point x="121" y="519" type="line"/>
      <point x="305" y="519" type="line"/>
      <point x="305" y="5" type="line"/>
      <point x="176" y="-180" type="line"/>
    </contour>
  </outline>
</glyph>
<glyph name="rra-tamil" format="2">
  <advance width="631"/>
  <unicode hex="0BB1"/>
  <note>
uni0BB1
</note>
  <anchor x="313" y="0" name="bottom"/>
  <anchor x="322" y="-131" name="nukta"/>
  <anchor x="315" y="542" name="top"/>
  <anchor x="327" y="542" name="vedic"/>
  <outline>
    <contour>
      <point x="124" y="-184" type="curve"/>
      <point x="124" y="-148"/>
      <point x="138" y="-112"/>
      <point x="182" y="-112" type="curve" smooth="yes"/>
      <point x="304" y="-112" type="line" smooth="yes"/>
      <point x="465" y="-112"/>
      <point x="575" y="-22"/>
      <point x="575" y="266" type="curve" smooth="yes"/>
      <point x="575" y="449"/>
      <point x="525" y="551"/>
      <point x="406" y="551" type="curve" smooth="yes"/>
      <point x="340" y="551"/>
      <point x="307" y="512"/>
      <point x="294" y="476" type="curve"/>
      <point x="284" y="515"/>
      <point x="256" y="551"/>
      <point x="199" y="551" type="curve" smooth="yes"/>
      <point x="133" y="551"/>
      <point x="97" y="504"/>
      <point x="97" y="414" type="curve" smooth="yes"/>
      <point x="97" y="0" type="line"/>
      <point x="123" y="0" type="line"/>
      <point x="123" y="419" type="line" smooth="yes"/>
      <point x="123" y="490"/>
      <point x="148" y="527"/>
      <point x="199" y="527" type="curve" smooth="yes"/>
      <point x="246" y="527"/>
      <point x="278" y="494"/>
      <point x="278" y="421" type="curve" smooth="yes"/>
      <point x="278" y="0" type="line"/>
      <point x="307" y="0" type="line"/>
      <point x="307" y="420" type="line" smooth="yes"/>
      <point x="307" y="493"/>
      <point x="352" y="527"/>
      <point x="405" y="527" type="curve" smooth="yes"/>
      <point x="479" y="527"/>
      <point x="545" y="476"/>
      <point x="545" y="267" type="curve" smooth="yes"/>
      <point x="545" y="-10"/>
      <point x="444" y="-87"/>
      <point x="295" y="-87" type="curve" smooth="yes"/>
      <point x="156" y="-87" type="line" smooth="yes"/>
      <point x="115" y="-87"/>
      <point x="85" y="-112"/>
      <point x="85" y="-144" type="curve" smooth="yes"/>
      <point x="85" y="-167"/>
      <point x="100" y="-184"/>
    </contour>
  </outline>
</glyph>
<glyph name="la-tamil" format="2">
  <advance width="746"/>
  <unicode hex="0BB2"/>
  <note>
uni0BB2
</note>
  <anchor x="384" y="0" name="bottom"/>
  <anchor x="384" y="0" name="nukta"/>
  <anchor x="385" y="542" name="top"/>
  <anchor x="375" y="542" name="vedic"/>
  <outline>
    <contour>
      <point x="190" y="-4" type="curve" smooth="yes"/>
      <point x="260" y="-4"/>
      <point x="307" y="51"/>
      <point x="307" y="146" type="curve" smooth="yes"/>
      <point x="307" y="233"/>
      <point x="261" y="283"/>
      <point x="197" y="283" type="curve" smooth="yes"/>
      <point x="125" y="283"/>
      <point x="91" y="220"/>
      <point x="77" y="162" type="curve"/>
      <point x="86" y="130" type="line"/>
      <point x="106" y="198"/>
      <point x="137" y="258"/>
      <point x="194" y="258" type="curve" smooth="yes"/>
      <point x="246" y="258"/>
      <point x="280" y="215"/>
      <point x="280" y="142" type="curve" smooth="yes"/>
      <point x="280" y="62"/>
      <point x="238" y="21"/>
      <point x="189" y="21" type="curve" smooth="yes"/>
      <point x="124" y="21"/>
      <point x="83" y="94"/>
      <point x="83" y="229" type="curve" smooth="yes"/>
      <point x="83" y="387"/>
      <point x="132" y="527"/>
      <point x="266" y="527" type="curve" smooth="yes"/>
      <point x="353" y="527"/>
      <point x="413" y="467"/>
      <point x="413" y="347" type="curve" smooth="yes"/>
      <point x="413" y="139" type="line" smooth="yes"/>
      <point x="413" y="47"/>
      <point x="446" y="-4"/>
      <point x="518" y="-4" type="curve" smooth="yes"/>
      <point x="609" y="-4"/>
      <point x="690" y="86"/>
      <point x="690" y="284" type="curve" smooth="yes"/>
      <point x="690" y="384"/>
      <point x="669" y="467"/>
      <point x="611" y="549" type="curve"/>
      <point x="587" y="532" type="line"/>
      <point x="636" y="466"/>
      <point x="662" y="393"/>
      <point x="662" y="284" type="curve" smooth="yes"/>
      <point x="662" y="99"/>
      <point x="589" y="20"/>
      <point x="520" y="20" type="curve" smooth="yes"/>
      <point x="462" y="20"/>
      <point x="442" y="63"/>
      <point x="442" y="138" type="curve" smooth="yes"/>
      <point x="442" y="346" type="line" smooth="yes"/>
      <point x="442" y="489"/>
      <point x="367" y="551"/>
      <point x="267" y="551" type="curve" smooth="yes"/>
      <point x="111" y="551"/>
      <point x="56" y="397"/>
      <point x="56" y="230" type="curve" smooth="yes"/>
      <point x="56" y="87"/>
      <point x="104" y="-4"/>
    </contour>
  </outline>
</glyph>
<glyph name="llla-tamil" format="2">
  <advance width="663"/>
  <unicode hex="0BB4"/>
  <note>
uni0BB4
</note>
  <anchor x="325" y="0" name="bottom"/>
  <anchor x="337" y="-237" name="nukta"/>
  <anchor x="364" y="542" name="top"/>
  <anchor x="351" y="542" name="vedic"/>
  <anchor x="590" y="542" name="imatra"/>
  <outline>
    <contour>
      <point x="225" y="-262" type="curve" smooth="yes"/>
      <point x="335" y="-262"/>
      <point x="388" y="-125"/>
      <point x="500" y="-125" type="curve" smooth="yes"/>
      <point x="546" y="-125" type="line"/>
      <point x="546" y="-102" type="line"/>
      <point x="491" y="-102" type="line" smooth="yes"/>
      <point x="418" y="-102"/>
      <point x="365" y="-46"/>
      <point x="365" y="5" type="curve" smooth="yes"/>
      <point x="365" y="47" type="line"/>
      <point x="336" y="47" type="line"/>
      <point x="336" y="5" type="line" smooth="yes"/>
      <point x="336" y="-48"/>
      <point x="389" y="-100"/>
      <point x="443" y="-113" type="curve"/>
      <point x="443" y="-118" type="line"/>
      <point x="351" y="-141"/>
      <point x="315" y="-234"/>
      <point x="224" y="-234" type="curve" smooth="yes"/>
      <point x="179" y="-234"/>
      <point x="150" y="-204"/>
      <point x="150" y="-162" type="curve" smooth="yes"/>
      <point x="150" y="-119"/>
      <point x="175" y="-87"/>
      <point x="215" y="-87" type="curve" smooth="yes"/>
      <point x="242" y="-87"/>
      <point x="260" y="-99"/>
      <point x="282" y="-125" type="curve"/>
      <point x="300" y="-108" type="line"/>
      <point x="271" y="-70"/>
      <point x="241" y="-63"/>
      <point x="213" y="-63" type="curve" smooth="yes"/>
      <point x="158" y="-63"/>
      <point x="125" y="-107"/>
      <point x="125" y="-161" type="curve" smooth="yes"/>
      <point x="125" y="-221"/>
      <point x="163" y="-262"/>
    </contour>
    <component base="ma-tamil"/>
  </outline>
</glyph>
<glyph name="sha-tamil" format="2">
  <advance width="824"/>
  <unicode hex="0BB6"/>
  <note>
uni0BB6
</note>
  <anchor x="423" y="0" name="bottom"/>
  <anchor x="636" y="542" name="imatra"/>
  <anchor x="423" y="0" name="nukta"/>
  <anchor x="425" y="542" name="top"/>
  <anchor x="430" y="542" name="vedic"/>
  <outline>
    <contour>
      <point x="221" y="-9" type="curve" smooth="yes"/>
      <point x="299" y="-9"/>
      <point x="360" y="38"/>
      <point x="360" y="164" type="curve" smooth="yes"/>
      <point x="360" y="519" type="line"/>
      <point x="488" y="519" type="line"/>
      <point x="488" y="144" type="line" smooth="yes"/>
      <point x="488" y="39"/>
      <point x="520" y="-9"/>
      <point x="590" y="-9" type="curve" smooth="yes"/>
      <point x="703" y="-9"/>
      <point x="767" y="142"/>
      <point x="767" y="331" type="curve" smooth="yes"/>
      <point x="767" y="485"/>
      <point x="728" y="542"/>
      <point x="648" y="542" type="curve" smooth="yes"/>
      <point x="334" y="542" type="line"/>
      <point x="334" y="164" type="line" smooth="yes"/>
      <point x="334" y="54"/>
      <point x="285" y="15"/>
      <point x="223" y="15" type="curve" smooth="yes"/>
      <point x="163" y="15"/>
      <point x="122" y="51"/>
      <point x="122" y="159" type="curve" smooth="yes"/>
      <point x="122" y="542" type="line"/>
      <point x="93" y="542" type="line"/>
      <point x="93" y="159" type="line" smooth="yes"/>
      <point x="93" y="39"/>
      <point x="144" y="-9"/>
    </contour>
    <contour>
      <point x="592" y="15" type="curve" smooth="yes"/>
      <point x="539" y="15"/>
      <point x="517" y="49"/>
      <point x="517" y="143" type="curve" smooth="yes"/>
      <point x="517" y="519" type="line"/>
      <point x="645" y="519" type="line" smooth="yes"/>
      <point x="710" y="519"/>
      <point x="740" y="472"/>
      <point x="740" y="333" type="curve" smooth="yes"/>
      <point x="740" y="155"/>
      <point x="682" y="15"/>
    </contour>
  </outline>
</glyph>
<glyph name="ssa-tamil" format="2">
  <advance width="1008"/>
  <unicode hex="0BB7"/>
  <note>
uni0BB7
</note>
  <anchor x="513" y="0" name="bottom"/>
  <anchor x="479" y="0" name="nukta"/>
  <anchor x="525" y="542" name="top"/>
  <anchor x="497" y="542" name="vedic"/>
  <outline>
    <contour>
      <point x="188" y="-4" type="curve" smooth="yes"/>
      <point x="257" y="-4"/>
      <point x="306" y="48"/>
      <point x="306" y="148" type="curve" smooth="yes"/>
      <point x="306" y="234"/>
      <point x="258" y="283"/>
      <point x="198" y="283" type="curve" smooth="yes"/>
      <point x="130" y="283"/>
      <point x="92" y="227"/>
      <point x="77" y="162" type="curve"/>
      <point x="86" y="130" type="line"/>
      <point x="106" y="198"/>
      <point x="137" y="258"/>
      <point x="194" y="258" type="curve" smooth="yes"/>
      <point x="244" y="258"/>
      <point x="279" y="217"/>
      <point x="279" y="144" type="curve" smooth="yes"/>
      <point x="279" y="64"/>
      <point x="239" y="21"/>
      <point x="188" y="21" type="curve" smooth="yes"/>
      <point x="121" y="21"/>
      <point x="83" y="102"/>
      <point x="83" y="227" type="curve" smooth="yes"/>
      <point x="83" y="398"/>
      <point x="152" y="527"/>
      <point x="287" y="527" type="curve" smooth="yes"/>
      <point x="406" y="527"/>
      <point x="496" y="436"/>
      <point x="496" y="264" type="curve" smooth="yes"/>
      <point x="496" y="154"/>
      <point x="459" y="79"/>
      <point x="420" y="19" type="curve"/>
      <point x="434" y="0" type="line"/>
      <point x="949" y="0" type="line"/>
      <point x="949" y="312" type="line"/>
      <point x="920" y="304" type="line"/>
      <point x="920" y="23" type="line"/>
      <point x="453" y="23" type="line"/>
      <point x="489" y="82"/>
      <point x="525" y="158"/>
      <point x="525" y="263" type="curve" smooth="yes"/>
      <point x="525" y="448"/>
      <point x="427" y="551"/>
      <point x="291" y="551" type="curve" smooth="yes"/>
      <point x="129" y="551"/>
      <point x="56" y="407"/>
      <point x="56" y="229" type="curve" smooth="yes"/>
      <point x="56" y="94"/>
      <point x="103" y="-4"/>
    </contour>
    <contour>
      <point x="748" y="-217" type="line"/>
      <point x="776" y="-217" type="line"/>
      <point x="776" y="438" type="line" smooth="yes"/>
      <point x="776" y="514"/>
      <point x="745" y="551"/>
      <point x="692" y="551" type="curve" smooth="yes"/>
      <point x="635" y="551"/>
      <point x="595" y="495"/>
      <point x="595" y="410" type="curve" smooth="yes"/>
      <point x="595" y="293"/>
      <point x="647" y="221"/>
      <point x="752" y="221" type="curve" smooth="yes"/>
      <point x="825" y="221"/>
      <point x="883" y="250"/>
      <point x="949" y="309" type="curve"/>
      <point x="949" y="317" type="line"/>
      <point x="933" y="332" type="line"/>
      <point x="871" y="271"/>
      <point x="819" y="245"/>
      <point x="750" y="245" type="curve" smooth="yes"/>
      <point x="663" y="245"/>
      <point x="621" y="303"/>
      <point x="621" y="408" type="curve" smooth="yes"/>
      <point x="621" y="484"/>
      <point x="650" y="527"/>
      <point x="691" y="527" type="curve" smooth="yes"/>
      <point x="726" y="527"/>
      <point x="748" y="504"/>
      <point x="748" y="438" type="curve" smooth="yes"/>
    </contour>
  </outline>
</glyph>
<glyph name="ha-tamil" format="2">
  <advance width="1162"/>
  <unicode hex="0BB9"/>
  <note>
uni0BB9
</note>
  <anchor x="593" y="0" name="bottom"/>
  <anchor x="593" y="-139" name="nukta"/>
  <anchor x="598" y="542" name="top"/>
  <anchor x="591" y="542" name="vedic"/>
  <outline>
    <contour>
      <point x="138" y="-184" type="curve"/>
      <point x="138" y="-148"/>
      <point x="152" y="-112"/>
      <point x="196" y="-112" type="curve" smooth="yes"/>
      <point x="776" y="-112" type="line" smooth="yes"/>
      <point x="962" y="-112"/>
      <point x="1106" y="-30"/>
      <point x="1106" y="266" type="curve" smooth="yes"/>
      <point x="1106" y="449"/>
      <point x="1056" y="551"/>
      <point x="937" y="551" type="curve" smooth="yes"/>
      <point x="871" y="551"/>
      <point x="838" y="512"/>
      <point x="826" y="476" type="curve"/>
      <point x="815" y="515"/>
      <point x="788" y="551"/>
      <point x="730" y="551" type="curve" smooth="yes"/>
      <point x="665" y="551"/>
      <point x="628" y="504"/>
      <point x="628" y="414" type="curve" smooth="yes"/>
      <point x="628" y="23" type="line"/>
      <point x="453" y="23" type="line"/>
      <point x="489" y="82"/>
      <point x="525" y="158"/>
      <point x="525" y="263" type="curve" smooth="yes"/>
      <point x="525" y="448"/>
      <point x="427" y="551"/>
      <point x="291" y="551" type="curve" smooth="yes"/>
      <point x="129" y="551"/>
      <point x="56" y="407"/>
      <point x="56" y="229" type="curve" smooth="yes"/>
      <point x="56" y="94"/>
      <point x="103" y="-4"/>
      <point x="188" y="-4" type="curve" smooth="yes"/>
      <point x="257" y="-4"/>
      <point x="306" y="48"/>
      <point x="306" y="148" type="curve" smooth="yes"/>
      <point x="306" y="234"/>
      <point x="258" y="283"/>
      <point x="198" y="283" type="curve" smooth="yes"/>
      <point x="130" y="283"/>
      <point x="92" y="227"/>
      <point x="77" y="162" type="curve"/>
      <point x="86" y="130" type="line"/>
      <point x="106" y="198"/>
      <point x="137" y="258"/>
      <point x="194" y="258" type="curve" smooth="yes"/>
      <point x="244" y="258"/>
      <point x="279" y="217"/>
      <point x="279" y="144" type="curve" smooth="yes"/>
      <point x="279" y="64"/>
      <point x="239" y="21"/>
      <point x="188" y="21" type="curve" smooth="yes"/>
      <point x="121" y="21"/>
      <point x="83" y="102"/>
      <point x="83" y="227" type="curve" smooth="yes"/>
      <point x="83" y="398"/>
      <point x="152" y="527"/>
      <point x="287" y="527" type="curve" smooth="yes"/>
      <point x="406" y="527"/>
      <point x="496" y="436"/>
      <point x="496" y="264" type="curve" smooth="yes"/>
      <point x="496" y="154"/>
      <point x="459" y="79"/>
      <point x="420" y="19" type="curve"/>
      <point x="434" y="0" type="line"/>
      <point x="654" y="0" type="line"/>
      <point x="654" y="419" type="line" smooth="yes"/>
      <point x="654" y="490"/>
      <point x="680" y="527"/>
      <point x="730" y="527" type="curve" smooth="yes"/>
      <point x="777" y="527"/>
      <point x="810" y="494"/>
      <point x="810" y="421" type="curve" smooth="yes"/>
      <point x="810" y="0" type="line"/>
      <point x="838" y="0" type="line"/>
      <point x="838" y="420" type="line" smooth="yes"/>
      <point x="838" y="493"/>
      <point x="883" y="527"/>
      <point x="937" y="527" type="curve" smooth="yes"/>
      <point x="1010" y="527"/>
      <point x="1077" y="476"/>
      <point x="1077" y="267" type="curve" smooth="yes"/>
      <point x="1077" y="-18"/>
      <point x="941" y="-87"/>
      <point x="768" y="-87" type="curve" smooth="yes"/>
      <point x="170" y="-87" type="line" smooth="yes"/>
      <point x="129" y="-87"/>
      <point x="100" y="-112"/>
      <point x="100" y="-144" type="curve" smooth="yes"/>
      <point x="100" y="-167"/>
      <point x="114" y="-184"/>
    </contour>
  </outline>
</glyph>
<glyph name="aaMatra-tamil" format="2">
  <advance width="517"/>
  <unicode hex="0BBE"/>
  <note>
uni0BBE
</note>
  <anchor x="277" y="0" name="bottom"/>
  <anchor x="277" y="0" name="nukta"/>
  <anchor x="271" y="542" name="top"/>
  <anchor x="271" y="542" name="vedic"/>
  <outline>
    <contour>
      <point x="95" y="0" type="line"/>
      <point x="121" y="0" type="line"/>
      <point x="121" y="519" type="line"/>
      <point x="319" y="519" type="line"/>
      <point x="319" y="0" type="line"/>
      <point x="348" y="0" type="line"/>
      <point x="348" y="519" type="line"/>
      <point x="492" y="519" type="line"/>
      <point x="492" y="542" type="line"/>
      <point x="95" y="542" type="line"/>
    </contour>
  </outline>
</glyph>
<glyph name="iMatra-tamil" format="2">
  <advance width="171"/>
  <unicode hex="0BBF"/>
  <note>
uni0BBF
</note>
  <outline>
    <contour>
      <point x="62" y="0" type="line"/>
      <point x="89" y="0" type="line"/>
      <point x="89" y="557" type="line" smooth="yes"/>
      <point x="89" y="708"/>
      <point x="11" y="781"/>
      <point x="-98" y="781" type="curve" smooth="yes"/>
      <point x="-191" y="781"/>
      <point x="-249" y="713"/>
      <point x="-249" y="644" type="curve" smooth="yes"/>
      <point x="-249" y="560"/>
      <point x="-191" y="519"/>
      <point x="-122" y="519" type="curve" smooth="yes"/>
      <point x="-116" y="519" type="line"/>
      <point x="-116" y="542" type="line"/>
      <point x="-120" y="542" type="line" smooth="yes"/>
      <point x="-178" y="542"/>
      <point x="-221" y="577"/>
      <point x="-221" y="639" type="curve" smooth="yes"/>
      <point x="-221" y="694"/>
      <point x="-177" y="750"/>
      <point x="-99" y="750" type="curve" smooth="yes"/>
      <point x="-12" y="750"/>
      <point x="62" y="693"/>
      <point x="62" y="546" type="curve" smooth="yes"/>
    </contour>
  </outline>
</glyph>
<glyph name="iiMatra-tamil" format="2">
  <unicode hex="0BC0"/>
  <note>
uni0BC0
</note>
  <anchor x="0" y="542" name="_imatra"/>
  <outline>
    <contour>
      <point x="-9" y="521" type="curve" smooth="yes"/>
      <point x="0" y="521" type="line"/>
      <point x="0" y="542" type="line"/>
      <point x="-9" y="542" type="line" smooth="yes"/>
      <point x="-80" y="542"/>
      <point x="-117" y="597"/>
      <point x="-117" y="684" type="curve" smooth="yes"/>
      <point x="-117" y="774"/>
      <point x="-87" y="850"/>
      <point x="-1" y="850" type="curve" smooth="yes"/>
      <point x="61" y="850"/>
      <point x="105" y="804"/>
      <point x="105" y="731" type="curve" smooth="yes"/>
      <point x="105" y="676"/>
      <point x="81" y="645"/>
      <point x="41" y="645" type="curve" smooth="yes"/>
      <point x="1" y="645"/>
      <point x="-20" y="687"/>
      <point x="-20" y="744" type="curve" smooth="yes"/>
      <point x="-20" y="778"/>
      <point x="-13" y="816"/>
      <point x="1" y="855" type="curve"/>
      <point x="-21" y="859" type="line"/>
      <point x="-38" y="818"/>
      <point x="-46" y="777"/>
      <point x="-46" y="741" type="curve" smooth="yes"/>
      <point x="-46" y="673"/>
      <point x="-17" y="622"/>
      <point x="42" y="622" type="curve" smooth="yes"/>
      <point x="94" y="622"/>
      <point x="134" y="659"/>
      <point x="134" y="729" type="curve" smooth="yes"/>
      <point x="134" y="816"/>
      <point x="80" y="872"/>
      <point x="0" y="872" type="curve" smooth="yes"/>
      <point x="-102" y="872"/>
      <point x="-146" y="783"/>
      <point x="-146" y="685" type="curve" smooth="yes"/>
      <point x="-146" y="584"/>
      <point x="-98" y="521"/>
    </contour>
  </outline>
</glyph>
<glyph name="uMatra-tamil" format="2">
  <advance width="370"/>
  <unicode hex="0BC1"/>
  <note>
uni0BC1
</note>
  <outline>
    <contour>
      <point x="218" y="229" type="curve" smooth="yes"/>
      <point x="285" y="229"/>
      <point x="339" y="271"/>
      <point x="339" y="369" type="curve" smooth="yes"/>
      <point x="339" y="542" type="line"/>
      <point x="-192" y="542" type="line"/>
      <point x="-172" y="519" type="line"/>
      <point x="310" y="519" type="line"/>
      <point x="310" y="363" type="line" smooth="yes"/>
      <point x="310" y="288"/>
      <point x="270" y="255"/>
      <point x="215" y="255" type="curve" smooth="yes"/>
      <point x="158" y="255"/>
      <point x="128" y="293"/>
      <point x="128" y="369" type="curve" smooth="yes"/>
      <point x="128" y="529" type="line"/>
      <point x="102" y="529" type="line"/>
      <point x="102" y="372" type="line" smooth="yes"/>
      <point x="102" y="277"/>
      <point x="143" y="229"/>
    </contour>
  </outline>
</glyph>
<glyph name="uuMatra-tamil" format="2">
  <advance width="601"/>
  <unicode hex="0BC2"/>
  <note>
uni0BC2
</note>
  <outline>
    <contour>
      <point x="271" y="1" type="curve" smooth="yes"/>
      <point x="442" y="1"/>
      <point x="563" y="132"/>
      <point x="563" y="407" type="curve" smooth="yes"/>
      <point x="563" y="644"/>
      <point x="466" y="780"/>
      <point x="303" y="780" type="curve" smooth="yes"/>
      <point x="158" y="780"/>
      <point x="107" y="666"/>
      <point x="107" y="543" type="curve" smooth="yes"/>
      <point x="107" y="372" type="line" smooth="yes"/>
      <point x="107" y="277"/>
      <point x="148" y="229"/>
      <point x="223" y="229" type="curve" smooth="yes"/>
      <point x="290" y="229"/>
      <point x="344" y="271"/>
      <point x="344" y="369" type="curve" smooth="yes"/>
      <point x="344" y="542" type="line"/>
      <point x="-193" y="542" type="line"/>
      <point x="-180" y="519" type="line"/>
      <point x="315" y="519" type="line"/>
      <point x="315" y="363" type="line" smooth="yes"/>
      <point x="315" y="288"/>
      <point x="274" y="255"/>
      <point x="220" y="255" type="curve" smooth="yes"/>
      <point x="163" y="255"/>
      <point x="133" y="293"/>
      <point x="133" y="369" type="curve" smooth="yes"/>
      <point x="133" y="543" type="line" smooth="yes"/>
      <point x="133" y="655"/>
      <point x="180" y="756"/>
      <point x="301" y="756" type="curve" smooth="yes"/>
      <point x="453" y="756"/>
      <point x="532" y="622"/>
      <point x="532" y="409" type="curve" smooth="yes"/>
      <point x="532" y="154"/>
      <point x="430" y="25"/>
      <point x="271" y="25" type="curve" smooth="yes"/>
      <point x="183" y="25"/>
      <point x="128" y="59"/>
      <point x="72" y="122" type="curve"/>
      <point x="52" y="103" type="line"/>
      <point x="111" y="39"/>
      <point x="174" y="1"/>
    </contour>
  </outline>
</glyph>
<glyph name="eMatra-tamil" format="2">
  <advance width="604"/>
  <unicode hex="0BC6"/>
  <note>
uni0BC6
</note>
  <outline>
    <contour>
      <point x="220" y="-4" type="curve" smooth="yes"/>
      <point x="295" y="-4"/>
      <point x="346" y="54"/>
      <point x="346" y="151" type="curve" smooth="yes"/>
      <point x="346" y="237"/>
      <point x="298" y="290"/>
      <point x="229" y="290" type="curve" smooth="yes"/>
      <point x="162" y="290"/>
      <point x="110" y="226"/>
      <point x="89" y="144" type="curve"/>
      <point x="103" y="115" type="line"/>
      <point x="124" y="203"/>
      <point x="171" y="265"/>
      <point x="229" y="265" type="curve" smooth="yes"/>
      <point x="283" y="265"/>
      <point x="319" y="221"/>
      <point x="319" y="148" type="curve" smooth="yes"/>
      <point x="319" y="68"/>
      <point x="275" y="21"/>
      <point x="219" y="21" type="curve" smooth="yes"/>
      <point x="131" y="21"/>
      <point x="77" y="134"/>
      <point x="77" y="351" type="curve" smooth="yes"/>
      <point x="77" y="613"/>
      <point x="175" y="770"/>
      <point x="327" y="770" type="curve" smooth="yes"/>
      <point x="426" y="770"/>
      <point x="496" y="718"/>
      <point x="496" y="540" type="curve" smooth="yes"/>
      <point x="496" y="0" type="line"/>
      <point x="522" y="0" type="line"/>
      <point x="522" y="553" type="line" smooth="yes"/>
      <point x="522" y="737"/>
      <point x="444" y="800"/>
      <point x="328" y="800" type="curve" smooth="yes"/>
      <point x="159" y="800"/>
      <point x="50" y="641"/>
      <point x="50" y="353" type="curve" smooth="yes"/>
      <point x="50" y="121"/>
      <point x="111" y="-4"/>
    </contour>
  </outline>
</glyph>
<glyph name="eeMatra-tamil" format="2">
  <advance width="445"/>
  <unicode hex="0BC7"/>
  <note>
uni0BC7
</note>
  <outline>
    <contour>
      <point x="271" y="-4" type="curve" smooth="yes"/>
      <point x="350" y="-4"/>
      <point x="398" y="51"/>
      <point x="398" y="146" type="curve" smooth="yes"/>
      <point x="398" y="233"/>
      <point x="354" y="283"/>
      <point x="292" y="283" type="curve" smooth="yes"/>
      <point x="205" y="283"/>
      <point x="172" y="172"/>
      <point x="170" y="62" type="curve"/>
      <point x="189" y="33" type="line"/>
      <point x="194" y="153"/>
      <point x="218" y="258"/>
      <point x="289" y="258" type="curve" smooth="yes"/>
      <point x="339" y="258"/>
      <point x="371" y="215"/>
      <point x="371" y="142" type="curve" smooth="yes"/>
      <point x="371" y="62"/>
      <point x="328" y="21"/>
      <point x="271" y="21" type="curve" smooth="yes"/>
      <point x="164" y="21"/>
      <point x="83" y="164"/>
      <point x="83" y="388" type="curve" smooth="yes"/>
      <point x="83" y="613"/>
      <point x="164" y="755"/>
      <point x="271" y="755" type="curve" smooth="yes"/>
      <point x="328" y="755"/>
      <point x="371" y="714"/>
      <point x="371" y="634" type="curve" smooth="yes"/>
      <point x="371" y="562"/>
      <point x="339" y="519"/>
      <point x="289" y="519" type="curve" smooth="yes"/>
      <point x="218" y="519"/>
      <point x="194" y="624"/>
      <point x="189" y="744" type="curve"/>
      <point x="170" y="714" type="line"/>
      <point x="172" y="604"/>
      <point x="205" y="494"/>
      <point x="292" y="494" type="curve" smooth="yes"/>
      <point x="354" y="494"/>
      <point x="398" y="543"/>
      <point x="398" y="630" type="curve" smooth="yes"/>
      <point x="398" y="726"/>
      <point x="350" y="781"/>
      <point x="271" y="781" type="curve" smooth="yes"/>
      <point x="143" y="781"/>
      <point x="57" y="622"/>
      <point x="57" y="388" type="curve" smooth="yes"/>
      <point x="57" y="155"/>
      <point x="143" y="-4"/>
    </contour>
  </outline>
</glyph>
<glyph name="aiMatra-tamil" format="2">
  <advance width="900"/>
  <unicode hex="0BC8"/>
  <note>
uni0BC8
</note>
  <outline>
    <contour>
      <point x="751" y="-7" type="line"/>
      <point x="802" y="59"/>
      <point x="844" y="146"/>
      <point x="844" y="266" type="curve" smooth="yes"/>
      <point x="844" y="441"/>
      <point x="757" y="551"/>
      <point x="624" y="551" type="curve" smooth="yes"/>
      <point x="437" y="551"/>
      <point x="377" y="332"/>
      <point x="377" y="173" type="curve" smooth="yes"/>
      <point x="377" y="47"/>
      <point x="417" y="-5"/>
      <point x="486" y="-5" type="curve" smooth="yes"/>
      <point x="554" y="-5"/>
      <point x="605" y="52"/>
      <point x="605" y="173" type="curve" smooth="yes"/>
      <point x="605" y="393"/>
      <point x="491" y="551"/>
      <point x="303" y="551" type="curve" smooth="yes"/>
      <point x="134" y="551"/>
      <point x="56" y="407"/>
      <point x="56" y="229" type="curve" smooth="yes"/>
      <point x="56" y="94"/>
      <point x="103" y="-4"/>
      <point x="188" y="-4" type="curve" smooth="yes"/>
      <point x="257" y="-4"/>
      <point x="306" y="48"/>
      <point x="306" y="148" type="curve" smooth="yes"/>
      <point x="306" y="234"/>
      <point x="258" y="283"/>
      <point x="198" y="283" type="curve" smooth="yes"/>
      <point x="130" y="283"/>
      <point x="92" y="227"/>
      <point x="77" y="162" type="curve"/>
      <point x="86" y="130" type="line"/>
      <point x="106" y="198"/>
      <point x="137" y="258"/>
      <point x="194" y="258" type="curve" smooth="yes"/>
      <point x="244" y="258"/>
      <point x="279" y="217"/>
      <point x="279" y="144" type="curve" smooth="yes"/>
      <point x="279" y="64"/>
      <point x="239" y="21"/>
      <point x="188" y="21" type="curve" smooth="yes"/>
      <point x="121" y="21"/>
      <point x="83" y="102"/>
      <point x="83" y="227" type="curve" smooth="yes"/>
      <point x="83" y="398"/>
      <point x="157" y="527"/>
      <point x="298" y="527" type="curve" smooth="yes"/>
      <point x="479" y="527"/>
      <point x="577" y="373"/>
      <point x="577" y="172" type="curve" smooth="yes"/>
      <point x="577" y="62"/>
      <point x="537" y="21"/>
      <point x="484" y="21" type="curve" smooth="yes"/>
      <point x="432" y="21"/>
      <point x="401" y="70"/>
      <point x="401" y="170" type="curve" smooth="yes"/>
      <point x="401" y="325"/>
      <point x="459" y="527"/>
      <point x="619" y="527" type="curve" smooth="yes"/>
      <point x="739" y="527"/>
      <point x="815" y="426"/>
      <point x="815" y="266" type="curve" smooth="yes"/>
      <point x="815" y="151"/>
      <point x="775" y="68"/>
      <point x="730" y="9" type="curve"/>
    </contour>
  </outline>
</glyph>
<glyph name="halant-tamil" format="2">
  <unicode hex="0BCD"/>
  <note>
uni0BCD
</note>
  <anchor x="0" y="542" name="_top"/>
  <anchor x="0" y="622" name="top"/>
  <outline>
    <contour>
      <point x="0" y="636" type="curve" smooth="yes"/>
      <point x="20" y="636"/>
      <point x="35" y="651"/>
      <point x="35" y="670" type="curve" smooth="yes"/>
      <point x="35" y="688"/>
      <point x="20" y="705"/>
      <point x="0" y="705" type="curve" smooth="yes"/>
      <point x="-20" y="705"/>
      <point x="-35" y="688"/>
      <point x="-35" y="670" type="curve" smooth="yes"/>
      <point x="-35" y="651"/>
      <point x="-20" y="636"/>
    </contour>
  </outline>
</glyph>
<glyph name="om-tamil" format="2">
  <advance width="719"/>
  <unicode hex="0BD0"/>
  <note>
uni0BD0
</note>
  <outline>
    <contour>
      <point x="245" y="-279" type="curve" smooth="yes"/>
      <point x="407" y="-279"/>
      <point x="420" y="-111"/>
      <point x="552" y="-111" type="curve" smooth="yes"/>
      <point x="564" y="-111" type="line"/>
      <point x="564" y="-87" type="line"/>
      <point x="545" y="-87" type="line" smooth="yes"/>
      <point x="463" y="-87"/>
      <point x="396" y="-33"/>
      <point x="396" y="65" type="curve" smooth="yes"/>
      <point x="396" y="108"/>
      <point x="408" y="158"/>
      <point x="438" y="217" type="curve"/>
      <point x="442" y="215" type="line"/>
      <point x="434" y="184"/>
      <point x="430" y="153"/>
      <point x="430" y="125" type="curve" smooth="yes"/>
      <point x="430" y="51"/>
      <point x="459" y="-5"/>
      <point x="532" y="-5" type="curve" smooth="yes"/>
      <point x="612" y="-5"/>
      <point x="663" y="63"/>
      <point x="663" y="205" type="curve" smooth="yes"/>
      <point x="663" y="416"/>
      <point x="532" y="551"/>
      <point x="346" y="551" type="curve" smooth="yes"/>
      <point x="168" y="551"/>
      <point x="56" y="397"/>
      <point x="56" y="221" type="curve" smooth="yes"/>
      <point x="56" y="77"/>
      <point x="104" y="-4"/>
      <point x="190" y="-4" type="curve" smooth="yes"/>
      <point x="260" y="-4"/>
      <point x="307" y="51"/>
      <point x="307" y="146" type="curve" smooth="yes"/>
      <point x="307" y="233"/>
      <point x="261" y="283"/>
      <point x="197" y="283" type="curve" smooth="yes"/>
      <point x="125" y="283"/>
      <point x="91" y="220"/>
      <point x="77" y="162" type="curve"/>
      <point x="86" y="130" type="line"/>
      <point x="106" y="198"/>
      <point x="137" y="258"/>
      <point x="194" y="258" type="curve" smooth="yes"/>
      <point x="246" y="258"/>
      <point x="280" y="215"/>
      <point x="280" y="142" type="curve" smooth="yes"/>
      <point x="280" y="62"/>
      <point x="238" y="21"/>
      <point x="189" y="21" type="curve" smooth="yes"/>
      <point x="124" y="21"/>
      <point x="83" y="84"/>
      <point x="83" y="219" type="curve" smooth="yes"/>
      <point x="83" y="387"/>
      <point x="190" y="527"/>
      <point x="346" y="527" type="curve" smooth="yes"/>
      <point x="514" y="527"/>
      <point x="633" y="398"/>
      <point x="633" y="209" type="curve" smooth="yes"/>
      <point x="633" y="81"/>
      <point x="594" y="21"/>
      <point x="529" y="21" type="curve" smooth="yes"/>
      <point x="478" y="21"/>
      <point x="454" y="66"/>
      <point x="454" y="130" type="curve" smooth="yes"/>
      <point x="454" y="164"/>
      <point x="461" y="204"/>
      <point x="475" y="245" type="curve"/>
      <point x="434" y="262" type="line"/>
      <point x="389" y="179"/>
      <point x="372" y="113"/>
      <point x="372" y="60" type="curve" smooth="yes"/>
      <point x="372" y="-34"/>
      <point x="429" y="-82"/>
      <point x="489" y="-99" type="curve"/>
      <point x="489" y="-103" type="line"/>
      <point x="400" y="-122"/>
      <point x="376" y="-252"/>
      <point x="239" y="-252" type="curve" smooth="yes"/>
      <point x="164" y="-252"/>
      <point x="126" y="-208"/>
      <point x="126" y="-155" type="curve" smooth="yes"/>
      <point x="126" y="-148"/>
      <point x="126" y="-140"/>
      <point x="128" y="-132" type="curve"/>
      <point x="102" y="-127" type="line"/>
      <point x="100" y="-137"/>
      <point x="99" y="-147"/>
      <point x="99" y="-156" type="curve" smooth="yes"/>
      <point x="99" y="-224"/>
      <point x="150" y="-279"/>
    </contour>
    <contour>
      <point x="177" y="-202" type="line"/>
      <point x="202" y="-202" type="line"/>
      <point x="202" y="-64" type="line"/>
      <point x="177" y="-64" type="line"/>
    </contour>
    <contour>
      <point x="185" y="-202" type="line"/>
      <point x="316" y="-202" type="line"/>
      <point x="316" y="-179" type="line"/>
      <point x="185" y="-179" type="line"/>
    </contour>
    <contour>
      <point x="238" y="-202" type="line"/>
      <point x="263" y="-202" type="line"/>
      <point x="263" y="-111" type="line" smooth="yes"/>
      <point x="263" y="-95"/>
      <point x="269" y="-86"/>
      <point x="283" y="-86" type="curve" smooth="yes"/>
      <point x="296" y="-86"/>
      <point x="303" y="-95"/>
      <point x="303" y="-111" type="curve" smooth="yes"/>
      <point x="303" y="-202" type="line"/>
      <point x="328" y="-202" type="line"/>
      <point x="328" y="-113" type="line" smooth="yes"/>
      <point x="328" y="-77"/>
      <point x="308" y="-62"/>
      <point x="283" y="-62" type="curve" smooth="yes"/>
      <point x="258" y="-62"/>
      <point x="238" y="-80"/>
      <point x="238" y="-113" type="curve" smooth="yes"/>
    </contour>
    <contour>
      <point x="251" y="-51" type="curve" smooth="yes"/>
      <point x="261" y="-51"/>
      <point x="269" y="-42"/>
      <point x="269" y="-33" type="curve" smooth="yes"/>
      <point x="269" y="-23"/>
      <point x="261" y="-15"/>
      <point x="251" y="-15" type="curve" smooth="yes"/>
      <point x="240" y="-15"/>
      <point x="232" y="-23"/>
      <point x="232" y="-33" type="curve" smooth="yes"/>
      <point x="232" y="-42"/>
      <point x="240" y="-51"/>
    </contour>
  </outline>
</glyph>
<glyph name="zero-tamil" format="2">
  <advance width="438"/>
  <unicode hex="0BE6"/>
  <note>
uni0BE6
</note>
  <outline>
    <contour>
      <point x="218" y="-4" type="curve" smooth="yes"/>
      <point x="327" y="-4"/>
      <point x="384" y="113"/>
      <point x="384" y="273" type="curve" smooth="yes"/>
      <point x="384" y="428"/>
      <point x="333" y="550"/>
      <point x="221" y="550" type="curve" smooth="yes"/>
      <point x="99" y="550"/>
      <point x="55" y="420"/>
      <point x="55" y="273" type="curve" smooth="yes"/>
      <point x="55" y="119"/>
      <point x="99" y="-4"/>
    </contour>
    <contour>
      <point x="213" y="21" type="curve" smooth="yes"/>
      <point x="113" y="21"/>
      <point x="81" y="137"/>
      <point x="81" y="273" type="curve" smooth="yes"/>
      <point x="81" y="405"/>
      <point x="115" y="526"/>
      <point x="216" y="526" type="curve" smooth="yes"/>
      <point x="317" y="526"/>
      <point x="356" y="411"/>
      <point x="356" y="273" type="curve" smooth="yes"/>
      <point x="356" y="127"/>
      <point x="310" y="21"/>
    </contour>
  </outline>
</glyph>
<glyph name="two-tamil" format="2">
  <advance width="673"/>
  <unicode hex="0BE8"/>
  <note>
uni0BE8
</note>
  <outline>
    <contour>
      <point x="134" y="0" type="curve" smooth="yes"/>
      <point x="652" y="0" type="line"/>
      <point x="652" y="23" type="line"/>
      <point x="133" y="23" type="line" smooth="yes"/>
      <point x="97" y="23"/>
      <point x="76" y="49"/>
      <point x="76" y="86" type="curve" smooth="yes"/>
      <point x="76" y="124"/>
      <point x="96" y="146"/>
      <point x="133" y="146" type="curve" smooth="yes"/>
      <point x="295" y="146" type="line" smooth="yes"/>
      <point x="396" y="146"/>
      <point x="470" y="211"/>
      <point x="470" y="343" type="curve" smooth="yes"/>
      <point x="470" y="485"/>
      <point x="390" y="551"/>
      <point x="283" y="551" type="curve" smooth="yes"/>
      <point x="167" y="551"/>
      <point x="105" y="460"/>
      <point x="105" y="344" type="curve" smooth="yes"/>
      <point x="105" y="215"/>
      <point x="181" y="150"/>
      <point x="282" y="150" type="curve"/>
      <point x="282" y="170" type="line"/>
      <point x="192" y="170"/>
      <point x="131" y="226"/>
      <point x="131" y="343" type="curve" smooth="yes"/>
      <point x="131" y="454"/>
      <point x="183" y="527"/>
      <point x="279" y="527" type="curve" smooth="yes"/>
      <point x="374" y="527"/>
      <point x="440" y="469"/>
      <point x="440" y="344" type="curve" smooth="yes"/>
      <point x="440" y="225"/>
      <point x="377" y="170"/>
      <point x="289" y="170" type="curve" smooth="yes"/>
      <point x="134" y="170" type="line" smooth="yes"/>
      <point x="79" y="170"/>
      <point x="49" y="138"/>
      <point x="49" y="86" type="curve" smooth="yes"/>
      <point x="49" y="35"/>
      <point x="79" y="0"/>
    </contour>
  </outline>
</glyph>
<glyph name="six-tamil" format="2">
  <advance width="754"/>
  <unicode hex="0BEC"/>
  <note>
uni0BEC
</note>
  <outline>
    <contour>
      <point x="190" y="-4" type="curve" smooth="yes"/>
      <point x="273" y="-4"/>
      <point x="337" y="55"/>
      <point x="337" y="172" type="curve" smooth="yes"/>
      <point x="337" y="275" type="line"/>
      <point x="417" y="275" type="line" smooth="yes"/>
      <point x="443" y="275"/>
      <point x="458" y="255"/>
      <point x="458" y="228" type="curve" smooth="yes"/>
      <point x="458" y="0" type="line"/>
      <point x="485" y="0" type="line"/>
      <point x="485" y="228" type="line" smooth="yes"/>
      <point x="485" y="255"/>
      <point x="500" y="275"/>
      <point x="527" y="275" type="curve" smooth="yes"/>
      <point x="706" y="275" type="line"/>
      <point x="706" y="299" type="line"/>
      <point x="524" y="299" type="line" smooth="yes"/>
      <point x="500" y="299"/>
      <point x="479" y="287"/>
      <point x="472" y="260" type="curve"/>
      <point x="464" y="287"/>
      <point x="445" y="299"/>
      <point x="419" y="299" type="curve" smooth="yes"/>
      <point x="337" y="299" type="line"/>
      <point x="337" y="519" type="line"/>
      <point x="463" y="519" type="line"/>
      <point x="463" y="542" type="line"/>
      <point x="146" y="542" type="line"/>
      <point x="146" y="284" type="line"/>
      <point x="172" y="284" type="line"/>
      <point x="172" y="519" type="line"/>
      <point x="309" y="519" type="line"/>
      <point x="309" y="299" type="line"/>
      <point x="188" y="299" type="line" smooth="yes"/>
      <point x="104" y="299"/>
      <point x="59" y="225"/>
      <point x="59" y="144" type="curve" smooth="yes"/>
      <point x="59" y="60"/>
      <point x="107" y="-4"/>
    </contour>
    <contour>
      <point x="190" y="21" type="curve" smooth="yes"/>
      <point x="125" y="21"/>
      <point x="89" y="72"/>
      <point x="89" y="146" type="curve" smooth="yes"/>
      <point x="89" y="208"/>
      <point x="119" y="275"/>
      <point x="192" y="275" type="curve" smooth="yes"/>
      <point x="309" y="275" type="line"/>
      <point x="309" y="168" type="line" smooth="yes"/>
      <point x="309" y="71"/>
      <point x="258" y="21"/>
    </contour>
    <contour>
      <point x="613" y="0" type="line"/>
      <point x="639" y="0" type="line"/>
      <point x="639" y="288" type="line"/>
      <point x="613" y="288" type="line"/>
    </contour>
  </outline>
</glyph>
<glyph name="nine-tamil" format="2">
  <advance width="893"/>
  <unicode hex="0BEF"/>
  <note>
uni0BEF
</note>
  <outline>
    <contour>
      <point x="769" y="-7" type="line"/>
      <point x="804" y="39"/>
      <point x="842" y="103"/>
      <point x="842" y="189" type="curve" smooth="yes"/>
      <point x="842" y="331"/>
      <point x="757" y="414"/>
      <point x="645" y="414" type="curve" smooth="yes"/>
      <point x="521" y="414"/>
      <point x="441" y="311"/>
      <point x="441" y="177" type="curve" smooth="yes"/>
      <point x="441" y="69"/>
      <point x="479" y="-4"/>
      <point x="559" y="-4" type="curve" smooth="yes"/>
      <point x="615" y="-4"/>
      <point x="664" y="39"/>
      <point x="664" y="127" type="curve" smooth="yes"/>
      <point x="664" y="230"/>
      <point x="600" y="299"/>
      <point x="498" y="299" type="curve" smooth="yes"/>
      <point x="337" y="299" type="line"/>
      <point x="337" y="519" type="line"/>
      <point x="463" y="519" type="line"/>
      <point x="463" y="542" type="line"/>
      <point x="146" y="542" type="line"/>
      <point x="146" y="284" type="line"/>
      <point x="172" y="284" type="line"/>
      <point x="172" y="519" type="line"/>
      <point x="309" y="519" type="line"/>
      <point x="309" y="299" type="line"/>
      <point x="193" y="299" type="line" smooth="yes"/>
      <point x="99" y="299"/>
      <point x="59" y="221"/>
      <point x="59" y="144" type="curve" smooth="yes"/>
      <point x="59" y="60"/>
      <point x="107" y="-4"/>
      <point x="190" y="-4" type="curve" smooth="yes"/>
      <point x="275" y="-4"/>
      <point x="337" y="55"/>
      <point x="337" y="172" type="curve" smooth="yes"/>
      <point x="337" y="275" type="line"/>
      <point x="497" y="275" type="line" smooth="yes"/>
      <point x="576" y="275"/>
      <point x="634" y="222"/>
      <point x="634" y="123" type="curve" smooth="yes"/>
      <point x="634" y="52"/>
      <point x="599" y="21"/>
      <point x="557" y="21" type="curve" smooth="yes"/>
      <point x="498" y="21"/>
      <point x="469" y="83"/>
      <point x="469" y="175" type="curve" smooth="yes"/>
      <point x="469" y="301"/>
      <point x="535" y="390"/>
      <point x="641" y="390" type="curve" smooth="yes"/>
      <point x="738" y="390"/>
      <point x="813" y="320"/>
      <point x="813" y="190" type="curve" smooth="yes"/>
      <point x="813" y="110"/>
      <point x="777" y="48"/>
      <point x="748" y="9" type="curve"/>
    </contour>
    <contour>
      <point x="190" y="21" type="curve" smooth="yes"/>
      <point x="125" y="21"/>
      <point x="89" y="72"/>
      <point x="89" y="146" type="curve" smooth="yes"/>
      <point x="89" y="208"/>
      <point x="116" y="275"/>
      <point x="197" y="275" type="curve" smooth="yes"/>
      <point x="309" y="275" type="line"/>
      <point x="309" y="168" type="line" smooth="yes"/>
      <point x="309" y="71"/>
      <point x="258" y="21"/>
    </contour>
  </outline>
</glyph>
<glyph name="ten-tamil" format="2">
  <advance width="583"/>
  <unicode hex="0BF0"/>
  <note>
uni0BF0
</note>
  <outline>
    <contour>
      <point x="345" y="-5" type="curve" smooth="yes"/>
      <point x="443" y="-5"/>
      <point x="525" y="110"/>
      <point x="525" y="303" type="curve" smooth="yes"/>
      <point x="525" y="593"/>
      <point x="409" y="754"/>
      <point x="228" y="778" type="curve"/>
      <point x="223" y="750" type="line"/>
      <point x="392" y="725"/>
      <point x="498" y="571"/>
      <point x="498" y="310" type="curve" smooth="yes"/>
      <point x="498" y="120"/>
      <point x="421" y="21"/>
      <point x="348" y="21" type="curve" smooth="yes"/>
      <point x="298" y="21"/>
      <point x="279" y="56"/>
      <point x="279" y="116" type="curve" smooth="yes"/>
      <point x="279" y="542" type="line"/>
      <point x="251" y="542" type="line"/>
      <point x="251" y="126" type="line" smooth="yes"/>
      <point x="251" y="41"/>
      <point x="283" y="-5"/>
    </contour>
    <contour>
      <point x="167" y="-5" type="curve" smooth="yes"/>
      <point x="225" y="-5"/>
      <point x="270" y="44"/>
      <point x="270" y="121" type="curve" smooth="yes"/>
      <point x="270" y="159" type="line"/>
      <point x="251" y="159" type="line"/>
      <point x="251" y="130" type="line" smooth="yes"/>
      <point x="251" y="70"/>
      <point x="218" y="21"/>
      <point x="170" y="21" type="curve" smooth="yes"/>
      <point x="126" y="21"/>
      <point x="100" y="52"/>
      <point x="100" y="123" type="curve" smooth="yes"/>
      <point x="100" y="542" type="line"/>
      <point x="71" y="542" type="line"/>
      <point x="71" y="127" type="line" smooth="yes"/>
      <point x="71" y="36"/>
      <point x="111" y="-5"/>
    </contour>
  </outline>
</glyph>
<glyph name="onehundred-tamil" format="2">
  <advance width="675"/>
  <unicode hex="0BF1"/>
  <note>
uni0BF1
</note>
  <outline>
    <contour>
      <point x="252" y="0" type="line"/>
      <point x="279" y="0" type="line"/>
      <point x="279" y="519" type="line"/>
      <point x="478" y="519" type="line"/>
      <point x="478" y="0" type="line"/>
      <point x="506" y="0" type="line"/>
      <point x="506" y="519" type="line"/>
      <point x="649" y="519" type="line"/>
      <point x="649" y="542" type="line"/>
      <point x="252" y="542" type="line"/>
    </contour>
    <contour>
      <point x="77" y="0" type="line"/>
      <point x="103" y="0" type="line"/>
      <point x="103" y="429" type="line" smooth="yes"/>
      <point x="103" y="483"/>
      <point x="125" y="521"/>
      <point x="171" y="521" type="curve" smooth="yes"/>
      <point x="221" y="521"/>
      <point x="252" y="474"/>
      <point x="252" y="409" type="curve"/>
      <point x="271" y="409" type="line"/>
      <point x="271" y="496"/>
      <point x="227" y="547"/>
      <point x="168" y="547" type="curve" smooth="yes"/>
      <point x="109" y="547"/>
      <point x="77" y="498"/>
      <point x="77" y="424" type="curve" smooth="yes"/>
    </contour>
  </outline>
</glyph>
<glyph name="onethousand-tamil" format="2">
  <advance width="778"/>
  <unicode hex="0BF2"/>
  <note>
uni0BF2
</note>
  <outline>
    <contour>
      <point x="167" y="-4" type="curve" smooth="yes"/>
      <point x="251" y="-4"/>
      <point x="313" y="55"/>
      <point x="313" y="172" type="curve" smooth="yes"/>
      <point x="313" y="519" type="line"/>
      <point x="440" y="519" type="line"/>
      <point x="440" y="542" type="line"/>
      <point x="123" y="542" type="line"/>
      <point x="123" y="284" type="line"/>
      <point x="148" y="284" type="line"/>
      <point x="148" y="519" type="line"/>
      <point x="286" y="519" type="line"/>
      <point x="286" y="168" type="line" smooth="yes"/>
      <point x="286" y="71"/>
      <point x="235" y="21"/>
      <point x="167" y="21" type="curve" smooth="yes"/>
      <point x="102" y="21"/>
      <point x="65" y="72"/>
      <point x="65" y="146" type="curve" smooth="yes"/>
      <point x="65" y="208"/>
      <point x="93" y="275"/>
      <point x="174" y="275" type="curve" smooth="yes"/>
      <point x="691" y="275" type="line"/>
      <point x="691" y="299" type="line"/>
      <point x="169" y="299" type="line" smooth="yes"/>
      <point x="75" y="299"/>
      <point x="35" y="221"/>
      <point x="35" y="144" type="curve" smooth="yes"/>
      <point x="35" y="60"/>
      <point x="84" y="-4"/>
    </contour>
    <contour>
      <point x="307" y="-244" type="curve"/>
      <point x="307" y="-208"/>
      <point x="322" y="-172"/>
      <point x="365" y="-172" type="curve" smooth="yes"/>
      <point x="563" y="-172" type="line" smooth="yes"/>
      <point x="668" y="-172"/>
      <point x="743" y="-114"/>
      <point x="743" y="10" type="curve" smooth="yes"/>
      <point x="743" y="109"/>
      <point x="701" y="164"/>
      <point x="624" y="164" type="curve" smooth="yes"/>
      <point x="488" y="164" type="line" smooth="yes"/>
      <point x="434" y="164"/>
      <point x="395" y="127"/>
      <point x="395" y="55" type="curve" smooth="yes"/>
      <point x="395" y="-16"/>
      <point x="432" y="-56"/>
      <point x="490" y="-56" type="curve" smooth="yes"/>
      <point x="552" y="-56"/>
      <point x="593" y="-13"/>
      <point x="593" y="70" type="curve" smooth="yes"/>
      <point x="593" y="291" type="line"/>
      <point x="566" y="291" type="line"/>
      <point x="566" y="67" type="line" smooth="yes"/>
      <point x="566" y="-1"/>
      <point x="533" y="-31"/>
      <point x="488" y="-31" type="curve" smooth="yes"/>
      <point x="445" y="-31"/>
      <point x="421" y="0"/>
      <point x="421" y="52" type="curve" smooth="yes"/>
      <point x="421" y="113"/>
      <point x="444" y="139"/>
      <point x="491" y="139" type="curve" smooth="yes"/>
      <point x="624" y="139" type="line" smooth="yes"/>
      <point x="682" y="139"/>
      <point x="713" y="92"/>
      <point x="713" y="10" type="curve" smooth="yes"/>
      <point x="713" y="-96"/>
      <point x="649" y="-146"/>
      <point x="553" y="-146" type="curve" smooth="yes"/>
      <point x="340" y="-146" type="line" smooth="yes"/>
      <point x="298" y="-146"/>
      <point x="269" y="-171"/>
      <point x="269" y="-204" type="curve" smooth="yes"/>
      <point x="269" y="-227"/>
      <point x="282" y="-244"/>
    </contour>
  </outline>
</glyph>
<glyph name="day-tamil" format="2">
  <advance width="727"/>
  <unicode hex="0BF3"/>
  <note>
uni0BF3
</note>
  <outline>
    <contour>
      <point x="188" y="-4" type="curve" smooth="yes"/>
      <point x="257" y="-4"/>
      <point x="306" y="48"/>
      <point x="306" y="148" type="curve" smooth="yes"/>
      <point x="306" y="234"/>
      <point x="258" y="283"/>
      <point x="198" y="283" type="curve" smooth="yes"/>
      <point x="130" y="283"/>
      <point x="92" y="227"/>
      <point x="77" y="162" type="curve"/>
      <point x="86" y="130" type="line"/>
      <point x="106" y="198"/>
      <point x="137" y="258"/>
      <point x="194" y="258" type="curve" smooth="yes"/>
      <point x="244" y="258"/>
      <point x="279" y="217"/>
      <point x="279" y="144" type="curve" smooth="yes"/>
      <point x="279" y="64"/>
      <point x="239" y="21"/>
      <point x="188" y="21" type="curve" smooth="yes"/>
      <point x="121" y="21"/>
      <point x="83" y="102"/>
      <point x="83" y="227" type="curve" smooth="yes"/>
      <point x="83" y="398"/>
      <point x="152" y="527"/>
      <point x="287" y="527" type="curve" smooth="yes"/>
      <point x="406" y="527"/>
      <point x="496" y="436"/>
      <point x="496" y="264" type="curve" smooth="yes"/>
      <point x="496" y="154"/>
      <point x="459" y="79"/>
      <point x="420" y="19" type="curve"/>
      <point x="434" y="0" type="line"/>
      <point x="700" y="0" type="line"/>
      <point x="700" y="23" type="line"/>
      <point x="453" y="23" type="line"/>
      <point x="489" y="82"/>
      <point x="525" y="158"/>
      <point x="525" y="263" type="curve" smooth="yes"/>
      <point x="525" y="448"/>
      <point x="427" y="551"/>
      <point x="291" y="551" type="curve" smooth="yes"/>
      <point x="129" y="551"/>
      <point x="56" y="407"/>
      <point x="56" y="229" type="curve" smooth="yes"/>
      <point x="56" y="94"/>
      <point x="103" y="-4"/>
    </contour>
  </outline>
</glyph>
<glyph name="month-tamil" format="2">
  <advance width="790"/>
  <unicode hex="0BF4"/>
  <note>
uni0BF4
</note>
  <anchor x="335" y="0" name="bottom"/>
  <anchor x="590" y="542" name="imatra"/>
  <anchor x="336" y="0" name="nukta"/>
  <anchor x="354" y="542" name="top"/>
  <anchor x="350" y="542" name="vedic"/>
  <outline>
    <contour>
      <point x="531" y="471" type="curve"/>
      <point x="544" y="481" type="line"/>
      <point x="520" y="521"/>
      <point x="499" y="559"/>
      <point x="499" y="627" type="curve" smooth="yes"/>
      <point x="499" y="721"/>
      <point x="531" y="778"/>
      <point x="599" y="778" type="curve" smooth="yes"/>
      <point x="655" y="778"/>
      <point x="687" y="728"/>
      <point x="687" y="661" type="curve" smooth="yes"/>
      <point x="687" y="609"/>
      <point x="670" y="581"/>
      <point x="640" y="581" type="curve" smooth="yes"/>
      <point x="603" y="581"/>
      <point x="581" y="630"/>
      <point x="581" y="701" type="curve" smooth="yes"/>
      <point x="581" y="780"/>
      <point x="619" y="852"/>
      <point x="688" y="852" type="curve" smooth="yes"/>
      <point x="736" y="852"/>
      <point x="774" y="829"/>
      <point x="774" y="754" type="curve" smooth="yes"/>
      <point x="774" y="563" type="line"/>
      <point x="803" y="563" type="line"/>
      <point x="803" y="763" type="line" smooth="yes"/>
      <point x="803" y="833"/>
      <point x="830" y="854"/>
      <point x="871" y="849" type="curve"/>
      <point x="873" y="875" type="line"/>
      <point x="824" y="877"/>
      <point x="796" y="850"/>
      <point x="790" y="809" type="curve"/>
      <point x="787" y="809" type="line"/>
      <point x="771" y="851"/>
      <point x="739" y="874"/>
      <point x="690" y="874" type="curve" smooth="yes"/>
      <point x="609" y="874"/>
      <point x="558" y="792"/>
      <point x="558" y="699" type="curve" smooth="yes"/>
      <point x="558" y="618"/>
      <point x="585" y="560"/>
      <point x="641" y="560" type="curve" smooth="yes"/>
      <point x="684" y="560"/>
      <point x="714" y="597"/>
      <point x="714" y="659" type="curve" smooth="yes"/>
      <point x="714" y="738"/>
      <point x="674" y="799"/>
      <point x="598" y="799" type="curve" smooth="yes"/>
      <point x="518" y="799"/>
      <point x="474" y="727"/>
      <point x="474" y="633" type="curve" smooth="yes"/>
      <point x="474" y="566"/>
      <point x="490" y="529"/>
    </contour>
    <component base="ma-tamil"/>
  </outline>
</glyph>
<glyph name="debit-tamil" format="2">
  <advance width="836"/>
  <unicode hex="0BF6"/>
  <note>
uni0BF6
</note>
  <outline>
    <contour>
      <point x="286" y="-250" type="curve" smooth="yes"/>
      <point x="424" y="-250"/>
      <point x="551" y="-173"/>
      <point x="551" y="-9" type="curve" smooth="yes"/>
      <point x="551" y="542" type="line"/>
      <point x="522" y="542" type="line"/>
      <point x="522" y="-8" type="line" smooth="yes"/>
      <point x="522" y="-158"/>
      <point x="409" y="-224"/>
      <point x="279" y="-224" type="curve" smooth="yes"/>
      <point x="165" y="-224"/>
      <point x="86" y="-164"/>
      <point x="86" y="-115" type="curve" smooth="yes"/>
      <point x="86" y="-101"/>
      <point x="94" y="-92"/>
      <point x="113" y="-92" type="curve" smooth="yes"/>
      <point x="742" y="-92" type="line"/>
      <point x="742" y="542" type="line"/>
      <point x="713" y="542" type="line"/>
      <point x="713" y="-68" type="line"/>
      <point x="110" y="-68" type="line" smooth="yes"/>
      <point x="77" y="-68"/>
      <point x="59" y="-85"/>
      <point x="59" y="-118" type="curve" smooth="yes"/>
      <point x="59" y="-170"/>
      <point x="143" y="-250"/>
    </contour>
    <contour>
      <point x="96" y="11" type="line"/>
      <point x="535" y="11" type="line"/>
      <point x="535" y="35" type="line"/>
      <point x="125" y="35" type="line"/>
      <point x="125" y="542" type="line"/>
      <point x="96" y="542" type="line"/>
    </contour>
  </outline>
</glyph>
<glyph name="asabove-tamil" format="2">
  <advance width="1335"/>
  <unicode hex="0BF8"/>
  <note>
uni0BF8
</note>
  <outline>
    <contour>
      <point x="508" y="-5" type="curve" smooth="yes"/>
      <point x="583" y="-5"/>
      <point x="640" y="64"/>
      <point x="640" y="213" type="curve" smooth="yes"/>
      <point x="640" y="479"/>
      <point x="502" y="635"/>
      <point x="330" y="635" type="curve" smooth="yes"/>
      <point x="141" y="635"/>
      <point x="56" y="454"/>
      <point x="56" y="229" type="curve" smooth="yes"/>
      <point x="56" y="94"/>
      <point x="103" y="-4"/>
      <point x="188" y="-4" type="curve" smooth="yes"/>
      <point x="257" y="-4"/>
      <point x="306" y="48"/>
      <point x="306" y="148" type="curve" smooth="yes"/>
      <point x="306" y="234"/>
      <point x="258" y="283"/>
      <point x="198" y="283" type="curve" smooth="yes"/>
      <point x="130" y="283"/>
      <point x="92" y="227"/>
      <point x="77" y="162" type="curve"/>
      <point x="86" y="130" type="line"/>
      <point x="106" y="198"/>
      <point x="137" y="258"/>
      <point x="194" y="258" type="curve" smooth="yes"/>
      <point x="244" y="258"/>
      <point x="279" y="217"/>
      <point x="279" y="144" type="curve" smooth="yes"/>
      <point x="279" y="64"/>
      <point x="239" y="21"/>
      <point x="188" y="21" type="curve" smooth="yes"/>
      <point x="121" y="21"/>
      <point x="83" y="102"/>
      <point x="83" y="227" type="curve" smooth="yes"/>
      <point x="83" y="445"/>
      <point x="167" y="611"/>
      <point x="329" y="611" type="curve" smooth="yes"/>
      <point x="492" y="611"/>
      <point x="609" y="461"/>
      <point x="609" y="212" type="curve" smooth="yes"/>
      <point x="609" y="72"/>
      <point x="563" y="21"/>
      <point x="503" y="21" type="curve" smooth="yes"/>
      <point x="445" y="21"/>
      <point x="417" y="88"/>
      <point x="417" y="187" type="curve" smooth="yes"/>
      <point x="417" y="366"/>
      <point x="486" y="527"/>
      <point x="633" y="527" type="curve" smooth="yes"/>
      <point x="752" y="527"/>
      <point x="836" y="426"/>
      <point x="836" y="257" type="curve" smooth="yes"/>
      <point x="836" y="148"/>
      <point x="805" y="79"/>
      <point x="762" y="19" type="curve"/>
      <point x="775" y="0" type="line"/>
      <point x="1311" y="0" type="line"/>
      <point x="1311" y="23" type="line"/>
      <point x="787" y="23" type="line"/>
      <point x="791" y="18" type="line"/>
      <point x="834" y="77"/>
      <point x="865" y="149"/>
      <point x="865" y="256" type="curve" smooth="yes"/>
      <point x="865" y="438"/>
      <point x="773" y="551"/>
      <point x="636" y="551" type="curve" smooth="yes"/>
      <point x="472" y="551"/>
      <point x="390" y="382"/>
      <point x="390" y="190" type="curve" smooth="yes"/>
      <point x="390" y="69"/>
      <point x="428" y="-5"/>
    </contour>
    <contour>
      <point x="1167" y="-217" type="line"/>
      <point x="1195" y="-217" type="line"/>
      <point x="1195" y="437" type="line" smooth="yes"/>
      <point x="1195" y="510"/>
      <point x="1158" y="551"/>
      <point x="1099" y="551" type="curve" smooth="yes"/>
      <point x="1003" y="551"/>
      <point x="960" y="439"/>
      <point x="960" y="303" type="curve" smooth="yes"/>
      <point x="960" y="125"/>
      <point x="1025" y="4"/>
      <point x="1161" y="4" type="curve"/>
      <point x="1161" y="23" type="line"/>
      <point x="1042" y="23"/>
      <point x="987" y="138"/>
      <point x="987" y="301" type="curve" smooth="yes"/>
      <point x="987" y="428"/>
      <point x="1016" y="527"/>
      <point x="1099" y="527" type="curve" smooth="yes"/>
      <point x="1138" y="527"/>
      <point x="1167" y="500"/>
      <point x="1167" y="437" type="curve" smooth="yes"/>
    </contour>
  </outline>
</glyph>
<glyph name="rupee-tamil" format="2">
  <advance width="729"/>
  <unicode hex="0BF9"/>
  <note>
uni0BF9
</note>
  <outline>
    <contour>
      <point x="389" y="-217" type="curve" smooth="yes"/>
      <point x="545" y="-217"/>
      <point x="680" y="-97"/>
      <point x="680" y="122" type="curve" smooth="yes"/>
      <point x="680" y="269"/>
      <point x="631" y="328"/>
      <point x="561" y="328" type="curve" smooth="yes"/>
      <point x="498" y="328"/>
      <point x="458" y="265"/>
      <point x="458" y="176" type="curve" smooth="yes"/>
      <point x="458" y="152" type="line"/>
      <point x="470" y="152" type="line"/>
      <point x="470" y="172" type="line" smooth="yes"/>
      <point x="470" y="224"/>
      <point x="498" y="304"/>
      <point x="555" y="304" type="curve" smooth="yes"/>
      <point x="613" y="304"/>
      <point x="649" y="257"/>
      <point x="649" y="123" type="curve" smooth="yes"/>
      <point x="649" y="-82"/>
      <point x="530" y="-191"/>
      <point x="385" y="-191" type="curve" smooth="yes"/>
      <point x="212" y="-191"/>
      <point x="88" y="-54"/>
      <point x="88" y="299" type="curve" smooth="yes"/>
      <point x="88" y="557"/>
      <point x="141" y="809"/>
      <point x="287" y="809" type="curve" smooth="yes"/>
      <point x="348" y="809"/>
      <point x="387" y="771"/>
      <point x="387" y="699" type="curve" smooth="yes"/>
      <point x="387" y="647"/>
      <point x="365" y="623"/>
      <point x="336" y="623" type="curve" smooth="yes"/>
      <point x="302" y="623"/>
      <point x="278" y="661"/>
      <point x="278" y="722" type="curve" smooth="yes"/>
      <point x="278" y="792"/>
      <point x="320" y="864"/>
      <point x="397" y="864" type="curve" smooth="yes"/>
      <point x="465" y="864"/>
      <point x="503" y="809"/>
      <point x="503" y="736" type="curve" smooth="yes"/>
      <point x="503" y="691"/>
      <point x="485" y="648"/>
      <point x="460" y="620" type="curve"/>
      <point x="470" y="606" type="line"/>
      <point x="613" y="606" type="line"/>
      <point x="613" y="629" type="line"/>
      <point x="483" y="629" type="line"/>
      <point x="483" y="616" type="line"/>
      <point x="510" y="647"/>
      <point x="531" y="684"/>
      <point x="531" y="740" type="curve" smooth="yes"/>
      <point x="531" y="829"/>
      <point x="476" y="886"/>
      <point x="400" y="886" type="curve" smooth="yes"/>
      <point x="307" y="886"/>
      <point x="255" y="802"/>
      <point x="255" y="720" type="curve" smooth="yes"/>
      <point x="255" y="653"/>
      <point x="282" y="601"/>
      <point x="339" y="601" type="curve" smooth="yes"/>
      <point x="377" y="601"/>
      <point x="415" y="632"/>
      <point x="415" y="699" type="curve" smooth="yes"/>
      <point x="415" y="787"/>
      <point x="362" y="834"/>
      <point x="290" y="834" type="curve" smooth="yes"/>
      <point x="123" y="834"/>
      <point x="59" y="577"/>
      <point x="59" y="299" type="curve" smooth="yes"/>
      <point x="59" y="-56"/>
      <point x="190" y="-217"/>
    </contour>
    <contour>
      <point x="249" y="0" type="line"/>
      <point x="274" y="0" type="line"/>
      <point x="274" y="519" type="line"/>
      <point x="441" y="519" type="line"/>
      <point x="441" y="0" type="line"/>
      <point x="470" y="0" type="line"/>
      <point x="470" y="519" type="line"/>
      <point x="613" y="519" type="line"/>
      <point x="613" y="542" type="line"/>
      <point x="249" y="542" type="line"/>
    </contour>
  </outline>
</glyph>
<glyph name="number-tamil" format="2">
  <advance width="633"/>
  <unicode hex="0BFA"/>
  <note>
uni0BFA
</note>
  <anchor x="293" y="0" name="bottom"/>
  <anchor x="417" y="542" name="imatra"/>
  <anchor x="299" y="-151" name="nukta"/>
  <anchor x="308" y="542" name="top"/>
  <anchor x="303" y="542" name="vedic"/>
  <outline>
    <contour>
      <point x="529" y="519" type="line"/>
      <point x="662" y="519" type="line"/>
      <point x="662" y="542" type="line"/>
      <point x="546" y="542" type="line"/>
      <point x="547" y="529" type="line"/>
      <point x="594" y="580"/>
      <point x="630" y="637"/>
      <point x="630" y="725" type="curve" smooth="yes"/>
      <point x="630" y="822"/>
      <point x="581" y="898"/>
      <point x="497" y="898" type="curve" smooth="yes"/>
      <point x="412" y="898"/>
      <point x="373" y="815"/>
      <point x="373" y="723" type="curve" smooth="yes"/>
      <point x="373" y="640"/>
      <point x="402" y="584"/>
      <point x="457" y="584" type="curve" smooth="yes"/>
      <point x="495" y="584"/>
      <point x="530" y="619"/>
      <point x="530" y="679" type="curve" smooth="yes"/>
      <point x="530" y="764"/>
      <point x="486" y="824"/>
      <point x="411" y="824" type="curve" smooth="yes"/>
      <point x="329" y="824"/>
      <point x="291" y="749"/>
      <point x="291" y="667" type="curve" smooth="yes"/>
      <point x="291" y="594"/>
      <point x="328" y="525"/>
      <point x="401" y="525" type="curve"/>
      <point x="405" y="542" type="line"/>
      <point x="344" y="542"/>
      <point x="316" y="604"/>
      <point x="316" y="666" type="curve" smooth="yes"/>
      <point x="316" y="743"/>
      <point x="342" y="803"/>
      <point x="412" y="803" type="curve" smooth="yes"/>
      <point x="468" y="803"/>
      <point x="502" y="749"/>
      <point x="502" y="681" type="curve" smooth="yes"/>
      <point x="502" y="632"/>
      <point x="480" y="605"/>
      <point x="453" y="605" type="curve" smooth="yes"/>
      <point x="416" y="605"/>
      <point x="396" y="654"/>
      <point x="396" y="725" type="curve" smooth="yes"/>
      <point x="396" y="805"/>
      <point x="423" y="876"/>
      <point x="495" y="876" type="curve" smooth="yes"/>
      <point x="567" y="876"/>
      <point x="602" y="803"/>
      <point x="602" y="721" type="curve" smooth="yes"/>
      <point x="602" y="643"/>
      <point x="569" y="583"/>
      <point x="519" y="532" type="curve"/>
    </contour>
    <component base="na-tamil"/>
  </outline>
</glyph>
<glyph name="doubleSvarita-vedic" format="2">
  <unicode hex="1CDA"/>
  <note>
uni1CDA
</note>
  <anchor x="0" y="542" name="_vedic"/>
  <outline>
    <contour>
      <point x="-62" y="902" type="line"/>
      <point x="-34" y="902" type="line"/>
      <point x="-34" y="1086" type="line"/>
      <point x="-62" y="1086" type="line"/>
    </contour>
    <contour>
      <point x="35" y="902" type="line"/>
      <point x="63" y="902" type="line"/>
      <point x="63" y="1086" type="line"/>
      <point x="35" y="1086" type="line"/>
    </contour>
  </outline>
</glyph>
<glyph name="endash" format="2">
  <advance width="500"/>
  <unicode hex="2013"/>
  <outline>
    <contour>
      <point x="-3" y="255" type="line"/>
      <point x="503" y="255" type="line"/>
      <point x="503" y="283" type="line"/>
      <point x="-3" y="283" type="line"/>
    </contour>
  </outline>
</glyph>
<glyph name="emdash" format="2">
  <advance width="1000"/>
  <unicode hex="2014"/>
  <outline>
    <contour>
      <point x="-3" y="255" type="line"/>
      <point x="1003" y="255" type="line"/>
      <point x="1003" y="283" type="line"/>
      <point x="-3" y="283" type="line"/>
    </contour>
  </outline>
</glyph>
<glyph name="quoteright" format="2">
  <advance width="168"/>
  <unicode hex="2019"/>
  <outline>
    <contour>
      <point x="12" y="462" type="line"/>
      <point x="95" y="501"/>
      <point x="118" y="549"/>
      <point x="118" y="626" type="curve" smooth="yes"/>
      <point x="118" y="676"/>
      <point x="101" y="714"/>
      <point x="71" y="714" type="curve" smooth="yes"/>
      <point x="51" y="714"/>
      <point x="41" y="700"/>
      <point x="41" y="687" type="curve" smooth="yes"/>
      <point x="41" y="650"/>
      <point x="86" y="652"/>
      <point x="86" y="593" type="curve" smooth="yes"/>
      <point x="86" y="558"/>
      <point x="72" y="517"/>
      <point x="12" y="488" type="curve"/>
    </contour>
  </outline>
</glyph>
<glyph name="rupeeIndian" format="2">
  <advance width="417"/>
  <unicode hex="20B9"/>
  <outline>
    <contour>
      <point x="289" y="0" type="curve" smooth="yes"/>
      <point x="305" y="0" type="line"/>
      <point x="305" y="28" type="line"/>
      <point x="290" y="28" type="line" smooth="yes"/>
      <point x="254" y="28"/>
      <point x="231" y="57"/>
      <point x="208" y="108" type="curve" smooth="yes"/>
      <point x="109" y="326" type="line"/>
      <point x="245" y="326"/>
      <point x="291" y="412"/>
      <point x="294" y="511" type="curve"/>
      <point x="364" y="511" type="line"/>
      <point x="364" y="536" type="line"/>
      <point x="294" y="536" type="line"/>
      <point x="292" y="597"/>
      <point x="269" y="672"/>
      <point x="229" y="689" type="curve"/>
      <point x="364" y="689" type="line"/>
      <point x="364" y="714" type="line"/>
      <point x="63" y="714" type="line"/>
      <point x="63" y="689" type="line"/>
      <point x="133" y="689" type="line" smooth="yes"/>
      <point x="238" y="689"/>
      <point x="259" y="596"/>
      <point x="263" y="536" type="curve"/>
      <point x="63" y="536" type="line"/>
      <point x="63" y="511" type="line"/>
      <point x="264" y="511" type="line"/>
      <point x="262" y="423"/>
      <point x="216" y="351"/>
      <point x="109" y="351" type="curve" smooth="yes"/>
      <point x="66" y="351" type="line"/>
      <point x="66" y="346" type="line"/>
      <point x="179" y="96" type="line" smooth="yes"/>
      <point x="204" y="41"/>
      <point x="233" y="0"/>
    </contour>
  </outline>
</glyph>
<glyph name="minus" format="2">
  <advance width="425"/>
  <unicode hex="2212"/>
  <outline>
    <contour>
      <point x="50" y="344" type="line"/>
      <point x="375" y="344" type="line"/>
      <point x="375" y="372" type="line"/>
      <point x="50" y="372" type="line"/>
    </contour>
  </outline>
</glyph>
<glyph name="dottedCircle" format="2">
  <advance width="594"/>
  <unicode hex="25CC"/>
  <anchor x="297" y="300" name="bottom"/>
  <anchor x="297" y="554" name="imatra"/>
  <anchor x="297" y="0" name="nukta"/>
  <anchor x="297" y="554" name="top"/>
  <anchor x="297" y="304" name="vedic"/>
  <outline>
    <contour>
      <point x="381" y="472" type="curve" smooth="yes"/>
      <point x="394" y="472"/>
      <point x="406" y="483"/>
      <point x="406" y="496" type="curve" smooth="yes"/>
      <point x="406" y="509"/>
      <point x="394" y="521"/>
      <point x="381" y="521" type="curve" smooth="yes"/>
      <point x="368" y="521"/>
      <point x="356" y="509"/>
      <point x="356" y="496" type="curve" smooth="yes"/>
      <point x="356" y="483"/>
      <point x="368" y="472"/>
    </contour>
    <contour>
      <point x="139" y="108" type="curve" smooth="yes"/>
      <point x="152" y="108"/>
      <point x="164" y="120"/>
      <point x="164" y="133" type="curve" smooth="yes"/>
      <point x="164" y="146"/>
      <point x="152" y="158"/>
      <point x="139" y="158" type="curve" smooth="yes"/>
      <point x="126" y="158"/>
      <point x="114" y="146"/>
      <point x="114" y="133" type="curve" smooth="yes"/>
      <point x="114" y="120"/>
      <point x="126" y="108"/>
    </contour>
    <contour>
      <point x="92" y="183" type="curve" smooth="yes"/>
      <point x="105" y="183"/>
      <point x="117" y="194"/>
      <point x="117" y="207" type="curve" smooth="yes"/>
      <point x="117" y="220"/>
      <point x="105" y="231"/>
      <point x="92" y="231" type="curve" smooth="yes"/>
      <point x="79" y="231"/>
      <point x="67" y="220"/>
      <point x="67" y="207" type="curve" smooth="yes"/>
      <point x="67" y="194"/>
      <point x="79" y="183"/>
    </contour>
    <contour>
      <point x="213" y="62" type="curve" smooth="yes"/>
      <point x="226" y="62"/>
      <point x="238" y="73"/>
      <point x="238" y="86" type="curve" smooth="yes"/>
      <point x="238" y="99"/>
      <point x="226" y="110"/>
      <point x="213" y="110" type="curve" smooth="yes"/>
      <point x="200" y="110"/>
      <point x="188" y="99"/>
      <point x="188" y="86" type="curve" smooth="yes"/>
      <point x="188" y="73"/>
      <point x="200" y="62"/>
    </contour>
    <contour>
      <point x="74" y="267" type="curve" smooth="yes"/>
      <point x="87" y="267"/>
      <point x="99" y="278"/>
      <point x="99" y="291" type="curve" smooth="yes"/>
      <point x="99" y="304"/>
      <point x="87" y="315"/>
      <point x="74" y="315" type="curve" smooth="yes"/>
      <point x="61" y="315"/>
      <point x="49" y="304"/>
      <point x="49" y="291" type="curve" smooth="yes"/>
      <point x="49" y="278"/>
      <point x="61" y="267"/>
    </contour>
    <contour>
      <point x="297" y="43" type="curve" smooth="yes"/>
      <point x="310" y="43"/>
      <point x="322" y="55"/>
      <point x="322" y="68" type="curve" smooth="yes"/>
      <point x="322" y="81"/>
      <point x="310" y="93"/>
      <point x="297" y="93" type="curve" smooth="yes"/>
      <point x="284" y="93"/>
      <point x="272" y="81"/>
      <point x="272" y="68" type="curve" smooth="yes"/>
      <point x="272" y="55"/>
      <point x="284" y="43"/>
    </contour>
    <contour>
      <point x="92" y="351" type="curve" smooth="yes"/>
      <point x="105" y="351"/>
      <point x="117" y="362"/>
      <point x="117" y="375" type="curve" smooth="yes"/>
      <point x="117" y="388"/>
      <point x="105" y="399"/>
      <point x="92" y="399" type="curve" smooth="yes"/>
      <point x="79" y="399"/>
      <point x="67" y="388"/>
      <point x="67" y="375" type="curve" smooth="yes"/>
      <point x="67" y="362"/>
      <point x="79" y="351"/>
    </contour>
    <contour>
      <point x="381" y="62" type="curve" smooth="yes"/>
      <point x="394" y="62"/>
      <point x="406" y="73"/>
      <point x="406" y="86" type="curve" smooth="yes"/>
      <point x="406" y="99"/>
      <point x="394" y="110"/>
      <point x="381" y="110" type="curve" smooth="yes"/>
      <point x="368" y="110"/>
      <point x="356" y="99"/>
      <point x="356" y="86" type="curve" smooth="yes"/>
      <point x="356" y="73"/>
      <point x="368" y="62"/>
    </contour>
    <contour>
      <point x="455" y="108" type="curve" smooth="yes"/>
      <point x="468" y="108"/>
      <point x="480" y="120"/>
      <point x="480" y="133" type="curve" smooth="yes"/>
      <point x="480" y="146"/>
      <point x="468" y="158"/>
      <point x="455" y="158" type="curve" smooth="yes"/>
      <point x="442" y="158"/>
      <point x="430" y="146"/>
      <point x="430" y="133" type="curve" smooth="yes"/>
      <point x="430" y="120"/>
      <point x="442" y="108"/>
    </contour>
    <contour>
      <point x="139" y="424" type="curve" smooth="yes"/>
      <point x="152" y="424"/>
      <point x="164" y="436"/>
      <point x="164" y="449" type="curve" smooth="yes"/>
      <point x="164" y="462"/>
      <point x="152" y="474"/>
      <point x="139" y="474" type="curve" smooth="yes"/>
      <point x="126" y="474"/>
      <point x="114" y="462"/>
      <point x="114" y="449" type="curve" smooth="yes"/>
      <point x="114" y="436"/>
      <point x="126" y="424"/>
    </contour>
    <contour>
      <point x="213" y="472" type="curve" smooth="yes"/>
      <point x="226" y="472"/>
      <point x="238" y="483"/>
      <point x="238" y="496" type="curve" smooth="yes"/>
      <point x="238" y="509"/>
      <point x="226" y="521"/>
      <point x="213" y="521" type="curve" smooth="yes"/>
      <point x="200" y="521"/>
      <point x="188" y="509"/>
      <point x="188" y="496" type="curve" smooth="yes"/>
      <point x="188" y="483"/>
      <point x="200" y="472"/>
    </contour>
    <contour>
      <point x="502" y="183" type="curve" smooth="yes"/>
      <point x="515" y="183"/>
      <point x="527" y="194"/>
      <point x="527" y="207" type="curve" smooth="yes"/>
      <point x="527" y="220"/>
      <point x="515" y="231"/>
      <point x="502" y="231" type="curve" smooth="yes"/>
      <point x="489" y="231"/>
      <point x="477" y="220"/>
      <point x="477" y="207" type="curve" smooth="yes"/>
      <point x="477" y="194"/>
      <point x="489" y="183"/>
    </contour>
    <contour>
      <point x="297" y="489" type="curve" smooth="yes"/>
      <point x="310" y="489"/>
      <point x="322" y="501"/>
      <point x="322" y="514" type="curve" smooth="yes"/>
      <point x="322" y="527"/>
      <point x="310" y="539"/>
      <point x="297" y="539" type="curve" smooth="yes"/>
      <point x="284" y="539"/>
      <point x="272" y="527"/>
      <point x="272" y="514" type="curve" smooth="yes"/>
      <point x="272" y="501"/>
      <point x="284" y="489"/>
    </contour>
    <contour>
      <point x="520" y="267" type="curve" smooth="yes"/>
      <point x="533" y="267"/>
      <point x="545" y="278"/>
      <point x="545" y="291" type="curve" smooth="yes"/>
      <point x="545" y="304"/>
      <point x="533" y="315"/>
      <point x="520" y="315" type="curve" smooth="yes"/>
      <point x="507" y="315"/>
      <point x="495" y="304"/>
      <point x="495" y="291" type="curve" smooth="yes"/>
      <point x="495" y="278"/>
      <point x="507" y="267"/>
    </contour>
    <contour>
      <point x="502" y="351" type="curve" smooth="yes"/>
      <point x="515" y="351"/>
      <point x="527" y="362"/>
      <point x="527" y="375" type="curve" smooth="yes"/>
      <point x="527" y="388"/>
      <point x="515" y="399"/>
      <point x="502" y="399" type="curve" smooth="yes"/>
      <point x="489" y="399"/>
      <point x="477" y="388"/>
      <point x="477" y="375" type="curve" smooth="yes"/>
      <point x="477" y="362"/>
      <point x="489" y="351"/>
    </contour>
    <contour>
      <point x="455" y="424" type="curve" smooth="yes"/>
      <point x="468" y="424"/>
      <point x="480" y="436"/>
      <point x="480" y="449" type="curve" smooth="yes"/>
      <point x="480" y="462"/>
      <point x="468" y="474"/>
      <point x="455" y="474" type="curve" smooth="yes"/>
      <point x="442" y="474"/>
      <point x="430" y="462"/>
      <point x="430" y="449" type="curve" smooth="yes"/>
      <point x="430" y="436"/>
      <point x="442" y="424"/>
    </contour>
  </outline>
</glyph>
<glyph name="candrabinduhalant-deva" format="2">
  <advance width="363"/>
  <unicode hex="A8F3"/>
  <note>
uniA8F3
</note>
  <outline>
    <contour>
      <point x="181" y="375" type="curve" smooth="yes"/>
      <point x="249" y="375"/>
      <point x="297" y="414"/>
      <point x="317" y="539" type="curve"/>
      <point x="292" y="543" type="line"/>
      <point x="275" y="428"/>
      <point x="235" y="400"/>
      <point x="179" y="400" type="curve" smooth="yes"/>
      <point x="114" y="400"/>
      <point x="86" y="448"/>
      <point x="71" y="542" type="curve"/>
      <point x="47" y="538" type="line"/>
      <point x="67" y="421"/>
      <point x="110" y="375"/>
    </contour>
    <contour>
      <point x="179" y="501" type="curve" smooth="yes"/>
      <point x="194" y="501"/>
      <point x="208" y="509"/>
      <point x="208" y="532" type="curve" smooth="yes"/>
      <point x="208" y="556"/>
      <point x="194" y="563"/>
      <point x="179" y="563" type="curve" smooth="yes"/>
      <point x="163" y="563"/>
      <point x="150" y="556"/>
      <point x="150" y="532" type="curve" smooth="yes"/>
      <point x="150" y="509"/>
      <point x="163" y="501"/>
    </contour>
    <contour>
      <point x="293" y="74" type="curve"/>
      <point x="315" y="85" type="line"/>
      <point x="235" y="234"/>
      <point x="207" y="261"/>
      <point x="150" y="261" type="curve" smooth="yes"/>
      <point x="125" y="261"/>
      <point x="110" y="256"/>
      <point x="99" y="251" type="curve"/>
      <point x="106" y="227" type="line"/>
      <point x="121" y="232"/>
      <point x="133" y="235"/>
      <point x="150" y="235" type="curve" smooth="yes"/>
      <point x="201" y="235"/>
      <point x="225" y="203"/>
    </contour>
  </outline>
</glyph>
<glyph name="u11301" format="2">
  <unicode hex="11301"/>
  <anchor x="0" y="542" name="_vedic"/>
  <outline>
    <contour>
      <point x="1" y="908" type="curve" smooth="yes"/>
      <point x="92" y="908"/>
      <point x="121" y="971"/>
      <point x="121" y="1024" type="curve" smooth="yes"/>
      <point x="121" y="1060"/>
      <point x="108" y="1079"/>
      <point x="93" y="1079" type="curve" smooth="yes"/>
      <point x="90" y="1079"/>
      <point x="87" y="1078"/>
      <point x="84" y="1077" type="curve"/>
      <point x="91" y="1062"/>
      <point x="94" y="1045"/>
      <point x="94" y="1030" type="curve" smooth="yes"/>
      <point x="94" y="974"/>
      <point x="66" y="932"/>
      <point x="1" y="932" type="curve" smooth="yes"/>
      <point x="-63" y="932"/>
      <point x="-94" y="974"/>
      <point x="-94" y="1030" type="curve" smooth="yes"/>
      <point x="-94" y="1045"/>
      <point x="-91" y="1062"/>
      <point x="-84" y="1077" type="curve"/>
      <point x="-87" y="1078"/>
      <point x="-90" y="1079"/>
      <point x="-93" y="1079" type="curve" smooth="yes"/>
      <point x="-108" y="1079"/>
      <point x="-121" y="1060"/>
      <point x="-121" y="1024" type="curve" smooth="yes"/>
      <point x="-121" y="971"/>
      <point x="-90" y="908"/>
    </contour>
    <contour>
      <point x="0" y="1018" type="curve" smooth="yes"/>
      <point x="23" y="1018"/>
      <point x="26" y="1032"/>
      <point x="26" y="1049" type="curve" smooth="yes"/>
      <point x="26" y="1065"/>
      <point x="23" y="1080"/>
      <point x="0" y="1080" type="curve" smooth="yes"/>
      <point x="-21" y="1080"/>
      <point x="-26" y="1065"/>
      <point x="-26" y="1049" type="curve" smooth="yes"/>
      <point x="-26" y="1032"/>
      <point x="-21" y="1018"/>
    </contour>
  </outline>
</glyph>
<glyph name="visarga-grantha" format="2">
  <advance width="240"/>
  <unicode hex="11303"/>
  <outline>
    <contour>
      <point x="123" y="-4" type="curve" smooth="yes"/>
      <point x="178" y="-4"/>
      <point x="216" y="36"/>
      <point x="216" y="90" type="curve" smooth="yes"/>
      <point x="216" y="144"/>
      <point x="178" y="185"/>
      <point x="123" y="185" type="curve" smooth="yes"/>
      <point x="67" y="185"/>
      <point x="29" y="144"/>
      <point x="29" y="90" type="curve" smooth="yes"/>
      <point x="29" y="36"/>
      <point x="67" y="-4"/>
    </contour>
    <contour>
      <point x="123" y="18" type="curve" smooth="yes"/>
      <point x="82" y="18"/>
      <point x="55" y="49"/>
      <point x="55" y="90" type="curve" smooth="yes"/>
      <point x="55" y="131"/>
      <point x="82" y="163"/>
      <point x="123" y="163" type="curve" smooth="yes"/>
      <point x="164" y="163"/>
      <point x="190" y="131"/>
      <point x="190" y="90" type="curve" smooth="yes"/>
      <point x="190" y="49"/>
      <point x="164" y="18"/>
    </contour>
    <contour>
      <point x="123" y="362" type="curve" smooth="yes"/>
      <point x="178" y="362"/>
      <point x="216" y="402"/>
      <point x="216" y="456" type="curve" smooth="yes"/>
      <point x="216" y="510"/>
      <point x="178" y="551"/>
      <point x="123" y="551" type="curve" smooth="yes"/>
      <point x="67" y="551"/>
      <point x="29" y="510"/>
      <point x="29" y="456" type="curve" smooth="yes"/>
      <point x="29" y="402"/>
      <point x="67" y="362"/>
    </contour>
    <contour>
      <point x="123" y="384" type="curve" smooth="yes"/>
      <point x="82" y="384"/>
      <point x="55" y="416"/>
      <point x="55" y="456" type="curve" smooth="yes"/>
      <point x="55" y="497"/>
      <point x="82" y="529"/>
      <point x="123" y="529" type="curve" smooth="yes"/>
      <point x="164" y="529"/>
      <point x="190" y="497"/>
      <point x="190" y="456" type="curve" smooth="yes"/>
      <point x="190" y="416"/>
      <point x="164" y="384"/>
    </contour>
  </outline>
</glyph>
<glyph name="nukta-grantha" format="2">
  <unicode hex="1133C"/>
  <anchor x="0" y="0" name="_nukta"/>
  <outline>
    <contour>
      <point x="-73" y="-131" type="curve" smooth="yes"/>
      <point x="-53" y="-131"/>
      <point x="-38" y="-116"/>
      <point x="-38" y="-97" type="curve" smooth="yes"/>
      <point x="-38" y="-79"/>
      <point x="-53" y="-62"/>
      <point x="-73" y="-62" type="curve" smooth="yes"/>
      <point x="-93" y="-62"/>
      <point x="-108" y="-79"/>
      <point x="-108" y="-97" type="curve" smooth="yes"/>
      <point x="-108" y="-116"/>
      <point x="-93" y="-131"/>
    </contour>
    <contour>
      <point x="73" y="-131" type="curve" smooth="yes"/>
      <point x="93" y="-131"/>
      <point x="108" y="-116"/>
      <point x="108" y="-97" type="curve" smooth="yes"/>
      <point x="108" y="-79"/>
      <point x="93" y="-62"/>
      <point x="73" y="-62" type="curve" smooth="yes"/>
      <point x="53" y="-62"/>
      <point x="38" y="-79"/>
      <point x="38" y="-97" type="curve" smooth="yes"/>
      <point x="38" y="-116"/>
      <point x="53" y="-131"/>
    </contour>
  </outline>
</glyph>
<glyph name="anusvara-tamil.alt" format="2">
  <note>
uni0B82
</note>
  <anchor x="0" y="412" name="_top"/>
  <outline>
    <contour>
      <point x="0" y="650" type="curve" smooth="yes"/>
      <point x="52" y="650"/>
      <point x="87" y="688"/>
      <point x="87" y="738" type="curve" smooth="yes"/>
      <point x="87" y="788"/>
      <point x="52" y="827"/>
      <point x="0" y="827" type="curve" smooth="yes"/>
      <point x="-52" y="827"/>
      <point x="-87" y="788"/>
      <point x="-87" y="738" type="curve" smooth="yes"/>
      <point x="-87" y="688"/>
      <point x="-52" y="650"/>
    </contour>
    <contour>
      <point x="0" y="675" type="curve" smooth="yes"/>
      <point x="-36" y="675"/>
      <point x="-61" y="702"/>
      <point x="-61" y="738" type="curve" smooth="yes"/>
      <point x="-61" y="774"/>
      <point x="-36" y="802"/>
      <point x="0" y="802" type="curve" smooth="yes"/>
      <point x="36" y="802"/>
      <point x="61" y="774"/>
      <point x="61" y="738" type="curve" smooth="yes"/>
      <point x="61" y="702"/>
      <point x="36" y="675"/>
    </contour>
  </outline>
</glyph>
<glyph name="cii-tamil" format="2">
  <advance width="498"/>
  <note>
uni0B9A
</note>
  <anchor x="266" y="0" name="bottom"/>
  <anchor x="266" y="0" name="nukta"/>
  <anchor x="415" y="872" name="top"/>
  <anchor x="272" y="542" name="vedic"/>
  <outline>
    <contour>
      <point x="190" y="-4" type="curve" smooth="yes"/>
      <point x="275" y="-4"/>
      <point x="337" y="55"/>
      <point x="337" y="172" type="curve" smooth="yes"/>
      <point x="337" y="275" type="line"/>
      <point x="463" y="275" type="line"/>
      <point x="463" y="299" type="line"/>
      <point x="337" y="299" type="line"/>
      <point x="337" y="519" type="line"/>
      <point x="463" y="519" type="line"/>
      <point x="463" y="542" type="line"/>
      <point x="146" y="542" type="line"/>
      <point x="146" y="284" type="line"/>
      <point x="172" y="284" type="line"/>
      <point x="172" y="519" type="line"/>
      <point x="309" y="519" type="line"/>
      <point x="309" y="299" type="line"/>
      <point x="193" y="299" type="line" smooth="yes"/>
      <point x="99" y="299"/>
      <point x="59" y="221"/>
      <point x="59" y="144" type="curve" smooth="yes"/>
      <point x="59" y="60"/>
      <point x="107" y="-4"/>
    </contour>
    <contour>
      <point x="190" y="21" type="curve" smooth="yes"/>
      <point x="125" y="21"/>
      <point x="89" y="72"/>
      <point x="89" y="146" type="curve" smooth="yes"/>
      <point x="89" y="208"/>
      <point x="116" y="275"/>
      <point x="197" y="275" type="curve" smooth="yes"/>
      <point x="309" y="275" type="line"/>
      <point x="309" y="168" type="line" smooth="yes"/>
      <point x="309" y="71"/>
      <point x="258" y="21"/>
    </contour>
    <component base="iiMatra-tamil" xOffset="414"/>
  </outline>
</glyph>
<glyph name="cu-tamil" format="2">
  <advance width="617"/>
  <note>
g106
</note>
  <anchor x="320" y="0" name="bottom"/>
  <anchor x="320" y="0" name="nukta"/>
  <anchor x="336" y="542" name="top"/>
  <anchor x="331" y="542" name="vedic"/>
  <outline>
    <contour>
      <point x="190" y="-4" type="curve" smooth="yes"/>
      <point x="275" y="-4"/>
      <point x="337" y="55"/>
      <point x="337" y="172" type="curve" smooth="yes"/>
      <point x="337" y="275" type="line"/>
      <point x="455" y="275" type="line"/>
      <point x="455" y="0" type="line"/>
      <point x="483" y="0" type="line"/>
      <point x="483" y="275" type="line"/>
      <point x="591" y="275" type="line"/>
      <point x="591" y="299" type="line"/>
      <point x="337" y="299" type="line"/>
      <point x="337" y="519" type="line"/>
      <point x="463" y="519" type="line"/>
      <point x="463" y="542" type="line"/>
      <point x="146" y="542" type="line"/>
      <point x="146" y="284" type="line"/>
      <point x="172" y="284" type="line"/>
      <point x="172" y="519" type="line"/>
      <point x="309" y="519" type="line"/>
      <point x="309" y="299" type="line"/>
      <point x="193" y="299" type="line" smooth="yes"/>
      <point x="99" y="299"/>
      <point x="59" y="221"/>
      <point x="59" y="144" type="curve" smooth="yes"/>
      <point x="59" y="60"/>
      <point x="107" y="-4"/>
    </contour>
    <contour>
      <point x="190" y="21" type="curve" smooth="yes"/>
      <point x="125" y="21"/>
      <point x="89" y="72"/>
      <point x="89" y="146" type="curve" smooth="yes"/>
      <point x="89" y="208"/>
      <point x="116" y="275"/>
      <point x="197" y="275" type="curve" smooth="yes"/>
      <point x="309" y="275" type="line"/>
      <point x="309" y="168" type="line" smooth="yes"/>
      <point x="309" y="71"/>
      <point x="258" y="21"/>
    </contour>
  </outline>
</glyph>
<glyph name="cuu-tamil" format="2">
  <advance width="800"/>
  <note>
g107
</note>
  <anchor x="435" y="-2" name="bottom"/>
  <anchor x="435" y="-217" name="nukta"/>
  <anchor x="469" y="542" name="top"/>
  <anchor x="450" y="542" name="vedic"/>
  <outline>
    <contour>
      <point x="435" y="-217" type="curve" smooth="yes"/>
      <point x="601" y="-217"/>
      <point x="766" y="-141"/>
      <point x="766" y="46" type="curve" smooth="yes"/>
      <point x="766" y="133"/>
      <point x="728" y="170"/>
      <point x="682" y="170" type="curve" smooth="yes"/>
      <point x="631" y="170"/>
      <point x="599" y="127"/>
      <point x="599" y="52" type="curve" smooth="yes"/>
      <point x="599" y="33" type="line"/>
      <point x="613" y="33" type="line"/>
      <point x="613" y="47" type="line" smooth="yes"/>
      <point x="613" y="111"/>
      <point x="640" y="146"/>
      <point x="675" y="146" type="curve" smooth="yes"/>
      <point x="710" y="146"/>
      <point x="736" y="118"/>
      <point x="736" y="45" type="curve" smooth="yes"/>
      <point x="736" y="-122"/>
      <point x="584" y="-191"/>
      <point x="434" y="-191" type="curve" smooth="yes"/>
      <point x="229" y="-191"/>
      <point x="88" y="-49"/>
      <point x="88" y="157" type="curve" smooth="yes"/>
      <point x="88" y="273"/>
      <point x="114" y="355"/>
      <point x="173" y="458" type="curve"/>
      <point x="148" y="474" type="line"/>
      <point x="84" y="361"/>
      <point x="59" y="279"/>
      <point x="59" y="153" type="curve" smooth="yes"/>
      <point x="59" y="-64"/>
      <point x="213" y="-217"/>
    </contour>
    <contour>
      <point x="320" y="-4" type="curve" smooth="yes"/>
      <point x="405" y="-4"/>
      <point x="467" y="55"/>
      <point x="467" y="172" type="curve" smooth="yes"/>
      <point x="467" y="275" type="line"/>
      <point x="585" y="275" type="line"/>
      <point x="585" y="0" type="line"/>
      <point x="613" y="0" type="line"/>
      <point x="613" y="275" type="line"/>
      <point x="721" y="275" type="line"/>
      <point x="721" y="299" type="line"/>
      <point x="467" y="299" type="line"/>
      <point x="467" y="519" type="line"/>
      <point x="593" y="519" type="line"/>
      <point x="593" y="542" type="line"/>
      <point x="276" y="542" type="line"/>
      <point x="276" y="284" type="line"/>
      <point x="302" y="284" type="line"/>
      <point x="302" y="519" type="line"/>
      <point x="439" y="519" type="line"/>
      <point x="439" y="299" type="line"/>
      <point x="323" y="299" type="line" smooth="yes"/>
      <point x="229" y="299"/>
      <point x="188" y="221"/>
      <point x="188" y="144" type="curve" smooth="yes"/>
      <point x="188" y="60"/>
      <point x="237" y="-4"/>
    </contour>
    <contour>
      <point x="320" y="21" type="curve" smooth="yes"/>
      <point x="255" y="21"/>
      <point x="219" y="72"/>
      <point x="219" y="146" type="curve" smooth="yes"/>
      <point x="219" y="208"/>
      <point x="246" y="275"/>
      <point x="327" y="275" type="curve" smooth="yes"/>
      <point x="439" y="275" type="line"/>
      <point x="439" y="168" type="line" smooth="yes"/>
      <point x="439" y="71"/>
      <point x="388" y="21"/>
    </contour>
  </outline>
</glyph>
<glyph name="iMatra-tamil.alt01" format="2">
  <advance width="188"/>
  <note>
uni0BBF
</note>
  <outline>
    <contour>
      <point x="79" y="0" type="line"/>
      <point x="106" y="0" type="line"/>
      <point x="106" y="561" type="line" smooth="yes"/>
      <point x="106" y="707"/>
      <point x="22" y="781"/>
      <point x="-82" y="781" type="curve" smooth="yes"/>
      <point x="-169" y="781"/>
      <point x="-233" y="719"/>
      <point x="-233" y="633" type="curve" smooth="yes"/>
      <point x="-233" y="583"/>
      <point x="-212" y="551"/>
      <point x="-185" y="521" type="curve"/>
      <point x="-171" y="534" type="line"/>
      <point x="-194" y="562"/>
      <point x="-205" y="586"/>
      <point x="-205" y="628" type="curve" smooth="yes"/>
      <point x="-205" y="705"/>
      <point x="-153" y="750"/>
      <point x="-82" y="750" type="curve" smooth="yes"/>
      <point x="8" y="750"/>
      <point x="79" y="690"/>
      <point x="79" y="549" type="curve" smooth="yes"/>
    </contour>
  </outline>
</glyph>
<glyph name="iMatra-tamil.alt02" format="2">
  <advance width="185"/>
  <note>
uni0BBF
</note>
  <anchor x="-126" y="781" name="top"/>
  <outline>
    <contour>
      <point x="76" y="0" type="line"/>
      <point x="103" y="0" type="line"/>
      <point x="103" y="502" type="line" smooth="yes"/>
      <point x="103" y="707"/>
      <point x="-12" y="781"/>
      <point x="-126" y="781" type="curve" smooth="yes"/>
      <point x="-242" y="781"/>
      <point x="-305" y="695"/>
      <point x="-305" y="616" type="curve" smooth="yes"/>
      <point x="-305" y="567"/>
      <point x="-289" y="539"/>
      <point x="-263" y="505" type="curve"/>
      <point x="-249" y="515" type="line"/>
      <point x="-271" y="548"/>
      <point x="-277" y="571"/>
      <point x="-277" y="611" type="curve" smooth="yes"/>
      <point x="-277" y="680"/>
      <point x="-225" y="750"/>
      <point x="-127" y="750" type="curve" smooth="yes"/>
      <point x="-26" y="750"/>
      <point x="76" y="688"/>
      <point x="76" y="490" type="curve" smooth="yes"/>
    </contour>
  </outline>
</glyph>
<glyph name="iiMatra-tamil.alt01" format="2">
  <note>
uni0BC0
</note>
  <outline>
    <contour>
      <point x="-178" y="520" type="curve"/>
      <point x="-178" y="540" type="line"/>
      <point x="-227" y="577"/>
      <point x="-248" y="630"/>
      <point x="-248" y="689" type="curve" smooth="yes"/>
      <point x="-248" y="776"/>
      <point x="-218" y="850"/>
      <point x="-132" y="850" type="curve" smooth="yes"/>
      <point x="-70" y="850"/>
      <point x="-25" y="804"/>
      <point x="-25" y="731" type="curve" smooth="yes"/>
      <point x="-25" y="676"/>
      <point x="-50" y="645"/>
      <point x="-90" y="645" type="curve" smooth="yes"/>
      <point x="-130" y="645"/>
      <point x="-150" y="686"/>
      <point x="-150" y="743" type="curve" smooth="yes"/>
      <point x="-150" y="777"/>
      <point x="-143" y="816"/>
      <point x="-129" y="855" type="curve"/>
      <point x="-151" y="859" type="line"/>
      <point x="-169" y="818"/>
      <point x="-177" y="776"/>
      <point x="-177" y="740" type="curve" smooth="yes"/>
      <point x="-177" y="672"/>
      <point x="-147" y="622"/>
      <point x="-89" y="622" type="curve" smooth="yes"/>
      <point x="-37" y="622"/>
      <point x="3" y="659"/>
      <point x="3" y="729" type="curve" smooth="yes"/>
      <point x="3" y="816"/>
      <point x="-51" y="872"/>
      <point x="-130" y="872" type="curve" smooth="yes"/>
      <point x="-232" y="872"/>
      <point x="-277" y="785"/>
      <point x="-277" y="690" type="curve" smooth="yes"/>
      <point x="-277" y="630"/>
      <point x="-249" y="557"/>
    </contour>
  </outline>
</glyph>
<glyph name="iiMatra-tamil.alt02" format="2">
  <note>
uni0BC0
</note>
  <anchor x="-259" y="872" name="top"/>
  <outline>
    <contour>
      <point x="-293" y="526" type="curve"/>
      <point x="-292" y="547" type="line"/>
      <point x="-350" y="577"/>
      <point x="-376" y="635"/>
      <point x="-376" y="692" type="curve" smooth="yes"/>
      <point x="-376" y="775"/>
      <point x="-347" y="850"/>
      <point x="-260" y="850" type="curve" smooth="yes"/>
      <point x="-198" y="850"/>
      <point x="-154" y="804"/>
      <point x="-154" y="731" type="curve" smooth="yes"/>
      <point x="-154" y="676"/>
      <point x="-178" y="645"/>
      <point x="-218" y="645" type="curve" smooth="yes"/>
      <point x="-283" y="645"/>
      <point x="-296" y="750"/>
      <point x="-258" y="855" type="curve"/>
      <point x="-280" y="859" type="line"/>
      <point x="-329" y="741"/>
      <point x="-307" y="622"/>
      <point x="-218" y="622" type="curve" smooth="yes"/>
      <point x="-166" y="622"/>
      <point x="-125" y="659"/>
      <point x="-125" y="729" type="curve" smooth="yes"/>
      <point x="-125" y="816"/>
      <point x="-179" y="872"/>
      <point x="-259" y="872" type="curve" smooth="yes"/>
      <point x="-361" y="872"/>
      <point x="-406" y="784"/>
      <point x="-406" y="693" type="curve" smooth="yes"/>
      <point x="-406" y="622"/>
      <point x="-368" y="557"/>
    </contour>
  </outline>
</glyph>
<glyph name="jii-tamil" format="2">
  <advance width="708"/>
  <note>
uni0B9C
</note>
  <anchor x="367" y="0" name="bottom"/>
  <anchor x="366" y="-278" name="nukta"/>
  <anchor x="607" y="872" name="top"/>
  <anchor x="363" y="542" name="vedic"/>
  <outline>
    <contour>
      <point x="196" y="-278" type="curve" smooth="yes"/>
      <point x="361" y="-278"/>
      <point x="369" y="2"/>
      <point x="521" y="2" type="curve" smooth="yes"/>
      <point x="584" y="2"/>
      <point x="622" y="-43"/>
      <point x="622" y="-126" type="curve" smooth="yes"/>
      <point x="622" y="-215"/>
      <point x="575" y="-254"/>
      <point x="520" y="-254" type="curve" smooth="yes"/>
      <point x="488" y="-254"/>
      <point x="469" y="-243"/>
      <point x="443" y="-223" type="curve"/>
      <point x="429" y="-243" type="line"/>
      <point x="457" y="-265"/>
      <point x="481" y="-278"/>
      <point x="524" y="-278" type="curve" smooth="yes"/>
      <point x="591" y="-278"/>
      <point x="652" y="-227"/>
      <point x="652" y="-129" type="curve" smooth="yes"/>
      <point x="652" y="-32"/>
      <point x="603" y="26"/>
      <point x="525" y="26" type="curve" smooth="yes"/>
      <point x="350" y="26"/>
      <point x="343" y="-254"/>
      <point x="198" y="-254" type="curve" smooth="yes"/>
      <point x="130" y="-254"/>
      <point x="92" y="-199"/>
      <point x="92" y="-106" type="curve" smooth="yes"/>
      <point x="92" y="16"/>
      <point x="164" y="64"/>
      <point x="370" y="90" type="curve" smooth="yes"/>
      <point x="539" y="111"/>
      <point x="651" y="169"/>
      <point x="651" y="352" type="curve" smooth="yes"/>
      <point x="651" y="484"/>
      <point x="590" y="551"/>
      <point x="504" y="551" type="curve" smooth="yes"/>
      <point x="427" y="551"/>
      <point x="390" y="498"/>
      <point x="370" y="436" type="curve"/>
      <point x="347" y="498"/>
      <point x="304" y="551"/>
      <point x="222" y="551" type="curve" smooth="yes"/>
      <point x="111" y="551"/>
      <point x="56" y="458"/>
      <point x="56" y="351" type="curve" smooth="yes"/>
      <point x="56" y="239"/>
      <point x="97" y="164"/>
      <point x="165" y="164" type="curve" smooth="yes"/>
      <point x="214" y="164"/>
      <point x="259" y="204"/>
      <point x="259" y="286" type="curve" smooth="yes"/>
      <point x="259" y="356"/>
      <point x="226" y="398"/>
      <point x="176" y="398" type="curve" smooth="yes"/>
      <point x="117" y="398"/>
      <point x="86" y="334"/>
      <point x="77" y="264" type="curve"/>
      <point x="92" y="244" type="line"/>
      <point x="103" y="318"/>
      <point x="128" y="374"/>
      <point x="173" y="374" type="curve" smooth="yes"/>
      <point x="210" y="374"/>
      <point x="232" y="341"/>
      <point x="232" y="283" type="curve" smooth="yes"/>
      <point x="232" y="222"/>
      <point x="202" y="190"/>
      <point x="163" y="190" type="curve" smooth="yes"/>
      <point x="112" y="190"/>
      <point x="83" y="248"/>
      <point x="83" y="347" type="curve" smooth="yes"/>
      <point x="83" y="442"/>
      <point x="126" y="526"/>
      <point x="217" y="526" type="curve" smooth="yes"/>
      <point x="304" y="526"/>
      <point x="356" y="458"/>
      <point x="356" y="356" type="curve" smooth="yes"/>
      <point x="356" y="208" type="line"/>
      <point x="384" y="208" type="line"/>
      <point x="384" y="374" type="line" smooth="yes"/>
      <point x="384" y="444"/>
      <point x="420" y="527"/>
      <point x="500" y="527" type="curve" smooth="yes"/>
      <point x="577" y="527"/>
      <point x="621" y="466"/>
      <point x="621" y="355" type="curve" smooth="yes"/>
      <point x="621" y="194"/>
      <point x="543" y="134"/>
      <point x="350" y="111" type="curve" smooth="yes"/>
      <point x="141" y="86"/>
      <point x="62" y="26"/>
      <point x="62" y="-104" type="curve" smooth="yes"/>
      <point x="62" y="-213"/>
      <point x="115" y="-278"/>
    </contour>
    <component base="iiMatra-tamil.alt01" xOffset="737"/>
  </outline>
</glyph>
<glyph name="kssii-tamil" format="2">
  <advance width="1323"/>
  <note>
g76
</note>
  <anchor x="669" y="0" name="bottom"/>
  <anchor x="630" y="0" name="nukta"/>
  <anchor x="1065" y="872" name="top"/>
  <anchor x="670" y="542" name="vedic"/>
  <outline>
    <contour>
      <point x="559" y="-4" type="curve" smooth="yes"/>
      <point x="615" y="-4"/>
      <point x="664" y="39"/>
      <point x="664" y="127" type="curve" smooth="yes"/>
      <point x="664" y="230"/>
      <point x="600" y="299"/>
      <point x="498" y="299" type="curve" smooth="yes"/>
      <point x="337" y="299" type="line"/>
      <point x="337" y="519" type="line"/>
      <point x="463" y="519" type="line"/>
      <point x="463" y="542" type="line"/>
      <point x="146" y="542" type="line"/>
      <point x="146" y="284" type="line"/>
      <point x="172" y="284" type="line"/>
      <point x="172" y="519" type="line"/>
      <point x="309" y="519" type="line"/>
      <point x="309" y="299" type="line"/>
      <point x="193" y="299" type="line" smooth="yes"/>
      <point x="99" y="299"/>
      <point x="59" y="221"/>
      <point x="59" y="144" type="curve" smooth="yes"/>
      <point x="59" y="60"/>
      <point x="107" y="-4"/>
      <point x="190" y="-4" type="curve" smooth="yes"/>
      <point x="275" y="-4"/>
      <point x="337" y="55"/>
      <point x="337" y="172" type="curve" smooth="yes"/>
      <point x="337" y="275" type="line"/>
      <point x="497" y="275" type="line" smooth="yes"/>
      <point x="576" y="275"/>
      <point x="634" y="222"/>
      <point x="634" y="123" type="curve" smooth="yes"/>
      <point x="634" y="52"/>
      <point x="599" y="21"/>
      <point x="557" y="21" type="curve" smooth="yes"/>
      <point x="498" y="21"/>
      <point x="469" y="83"/>
      <point x="469" y="175" type="curve" smooth="yes"/>
      <point x="469" y="301"/>
      <point x="531" y="390"/>
      <point x="638" y="390" type="curve" smooth="yes"/>
      <point x="734" y="390"/>
      <point x="813" y="320"/>
      <point x="813" y="187" type="curve" smooth="yes"/>
      <point x="813" y="116"/>
      <point x="788" y="64"/>
      <point x="758" y="19" type="curve"/>
      <point x="771" y="0" type="line"/>
      <point x="1264" y="0" type="line"/>
      <point x="1264" y="312" type="line"/>
      <point x="1235" y="304" type="line"/>
      <point x="1235" y="23" type="line"/>
      <point x="783" y="23" type="line"/>
      <point x="788" y="18" type="line"/>
      <point x="817" y="64"/>
      <point x="842" y="112"/>
      <point x="842" y="186" type="curve" smooth="yes"/>
      <point x="842" y="332"/>
      <point x="752" y="414"/>
      <point x="643" y="414" type="curve" smooth="yes"/>
      <point x="518" y="414"/>
      <point x="441" y="311"/>
      <point x="441" y="177" type="curve" smooth="yes"/>
      <point x="441" y="69"/>
      <point x="479" y="-4"/>
    </contour>
    <contour>
      <point x="190" y="21" type="curve" smooth="yes"/>
      <point x="125" y="21"/>
      <point x="89" y="72"/>
      <point x="89" y="146" type="curve" smooth="yes"/>
      <point x="89" y="208"/>
      <point x="116" y="275"/>
      <point x="197" y="275" type="curve" smooth="yes"/>
      <point x="309" y="275" type="line"/>
      <point x="309" y="168" type="line" smooth="yes"/>
      <point x="309" y="71"/>
      <point x="258" y="21"/>
    </contour>
    <contour>
      <point x="1061" y="-217" type="line"/>
      <point x="1090" y="-217" type="line"/>
      <point x="1090" y="438" type="line" smooth="yes"/>
      <point x="1090" y="514"/>
      <point x="1059" y="551"/>
      <point x="1006" y="551" type="curve" smooth="yes"/>
      <point x="948" y="551"/>
      <point x="909" y="495"/>
      <point x="909" y="410" type="curve" smooth="yes"/>
      <point x="909" y="293"/>
      <point x="961" y="221"/>
      <point x="1066" y="221" type="curve" smooth="yes"/>
      <point x="1138" y="221"/>
      <point x="1197" y="250"/>
      <point x="1263" y="309" type="curve"/>
      <point x="1263" y="317" type="line"/>
      <point x="1246" y="332" type="line"/>
      <point x="1185" y="271"/>
      <point x="1133" y="245"/>
      <point x="1064" y="245" type="curve" smooth="yes"/>
      <point x="976" y="245"/>
      <point x="935" y="303"/>
      <point x="935" y="408" type="curve" smooth="yes"/>
      <point x="935" y="484"/>
      <point x="963" y="527"/>
      <point x="1005" y="527" type="curve" smooth="yes"/>
      <point x="1039" y="527"/>
      <point x="1061" y="504"/>
      <point x="1061" y="438" type="curve" smooth="yes"/>
    </contour>
    <component base="iiMatra-tamil.alt02" xOffset="1324"/>
  </outline>
</glyph>
<glyph name="ku-tamil" format="2">
  <advance width="738"/>
  <note>
g101
</note>
  <anchor x="396" y="0" name="bottom"/>
  <anchor x="396" y="-217" name="nukta"/>
  <anchor x="438" y="542" name="top"/>
  <anchor x="438" y="542" name="vedic"/>
  <outline>
    <contour>
      <point x="396" y="-217" type="curve" smooth="yes"/>
      <point x="556" y="-217"/>
      <point x="684" y="-116"/>
      <point x="684" y="76" type="curve" smooth="yes"/>
      <point x="684" y="206"/>
      <point x="625" y="299"/>
      <point x="483" y="299" type="curve" smooth="yes"/>
      <point x="321" y="299" type="line" smooth="yes"/>
      <point x="227" y="299"/>
      <point x="187" y="221"/>
      <point x="187" y="144" type="curve" smooth="yes"/>
      <point x="187" y="60"/>
      <point x="235" y="-4"/>
      <point x="318" y="-4" type="curve" smooth="yes"/>
      <point x="403" y="-4"/>
      <point x="465" y="54"/>
      <point x="465" y="172" type="curve" smooth="yes"/>
      <point x="465" y="519" type="line"/>
      <point x="591" y="519" type="line"/>
      <point x="591" y="542" type="line"/>
      <point x="274" y="542" type="line"/>
      <point x="274" y="284" type="line"/>
      <point x="300" y="284" type="line"/>
      <point x="300" y="519" type="line"/>
      <point x="437" y="519" type="line"/>
      <point x="437" y="168" type="line" smooth="yes"/>
      <point x="437" y="71"/>
      <point x="386" y="21"/>
      <point x="318" y="21" type="curve" smooth="yes"/>
      <point x="253" y="21"/>
      <point x="217" y="72"/>
      <point x="217" y="146" type="curve" smooth="yes"/>
      <point x="217" y="208"/>
      <point x="244" y="275"/>
      <point x="325" y="275" type="curve" smooth="yes"/>
      <point x="480" y="275" type="line" smooth="yes"/>
      <point x="610" y="275"/>
      <point x="655" y="184"/>
      <point x="655" y="77" type="curve" smooth="yes"/>
      <point x="655" y="-98"/>
      <point x="536" y="-191"/>
      <point x="396" y="-191" type="curve" smooth="yes"/>
      <point x="184" y="-191"/>
      <point x="88" y="-20"/>
      <point x="88" y="157" type="curve" smooth="yes"/>
      <point x="88" y="264"/>
      <point x="113" y="368"/>
      <point x="173" y="471" type="curve"/>
      <point x="148" y="486" type="line"/>
      <point x="86" y="378"/>
      <point x="59" y="278"/>
      <point x="59" y="153" type="curve" smooth="yes"/>
      <point x="59" y="-31"/>
      <point x="166" y="-217"/>
    </contour>
  </outline>
</glyph>
<glyph name="kuu-tamil" format="2">
  <advance width="970"/>
  <note>
g102
</note>
  <anchor x="486" y="0" name="bottom"/>
  <anchor x="486" y="0" name="nukta"/>
  <anchor x="322" y="542" name="top"/>
  <anchor x="502" y="542" name="vedic"/>
  <outline>
    <contour>
      <point x="559" y="-4" type="curve" smooth="yes"/>
      <point x="615" y="-4"/>
      <point x="664" y="39"/>
      <point x="664" y="127" type="curve" smooth="yes"/>
      <point x="664" y="230"/>
      <point x="600" y="299"/>
      <point x="498" y="299" type="curve" smooth="yes"/>
      <point x="337" y="299" type="line"/>
      <point x="337" y="519" type="line"/>
      <point x="463" y="519" type="line"/>
      <point x="463" y="542" type="line"/>
      <point x="146" y="542" type="line"/>
      <point x="146" y="284" type="line"/>
      <point x="172" y="284" type="line"/>
      <point x="172" y="519" type="line"/>
      <point x="309" y="519" type="line"/>
      <point x="309" y="299" type="line"/>
      <point x="193" y="299" type="line" smooth="yes"/>
      <point x="99" y="299"/>
      <point x="59" y="221"/>
      <point x="59" y="144" type="curve" smooth="yes"/>
      <point x="59" y="60"/>
      <point x="107" y="-4"/>
      <point x="190" y="-4" type="curve" smooth="yes"/>
      <point x="275" y="-4"/>
      <point x="337" y="55"/>
      <point x="337" y="172" type="curve" smooth="yes"/>
      <point x="337" y="275" type="line"/>
      <point x="497" y="275" type="line" smooth="yes"/>
      <point x="576" y="275"/>
      <point x="634" y="222"/>
      <point x="634" y="123" type="curve" smooth="yes"/>
      <point x="634" y="52"/>
      <point x="599" y="21"/>
      <point x="557" y="21" type="curve" smooth="yes"/>
      <point x="498" y="21"/>
      <point x="469" y="83"/>
      <point x="469" y="175" type="curve" smooth="yes"/>
      <point x="469" y="301"/>
      <point x="531" y="390"/>
      <point x="638" y="390" type="curve" smooth="yes"/>
      <point x="734" y="390"/>
      <point x="813" y="320"/>
      <point x="813" y="187" type="curve" smooth="yes"/>
      <point x="813" y="116"/>
      <point x="788" y="64"/>
      <point x="758" y="19" type="curve"/>
      <point x="771" y="0" type="line"/>
      <point x="947" y="0" type="line"/>
      <point x="946" y="23" type="line"/>
      <point x="783" y="23" type="line"/>
      <point x="788" y="18" type="line"/>
      <point x="817" y="64"/>
      <point x="842" y="112"/>
      <point x="842" y="186" type="curve" smooth="yes"/>
      <point x="842" y="332"/>
      <point x="752" y="414"/>
      <point x="643" y="414" type="curve" smooth="yes"/>
      <point x="518" y="414"/>
      <point x="441" y="311"/>
      <point x="441" y="177" type="curve" smooth="yes"/>
      <point x="441" y="69"/>
      <point x="479" y="-4"/>
    </contour>
    <contour>
      <point x="190" y="21" type="curve" smooth="yes"/>
      <point x="125" y="21"/>
      <point x="89" y="72"/>
      <point x="89" y="146" type="curve" smooth="yes"/>
      <point x="89" y="208"/>
      <point x="116" y="275"/>
      <point x="197" y="275" type="curve" smooth="yes"/>
      <point x="309" y="275" type="line"/>
      <point x="309" y="168" type="line" smooth="yes"/>
      <point x="309" y="71"/>
      <point x="258" y="21"/>
    </contour>
  </outline>
</glyph>
<glyph name="li-tamil" format="2">
  <advance width="906"/>
  <note>
g134
</note>
  <anchor x="455" y="0" name="bottom"/>
  <anchor x="455" y="0" name="nukta"/>
  <anchor x="677" y="800" name="top"/>
  <anchor x="439" y="542" name="vedic"/>
  <outline>
    <contour>
      <point x="190" y="-4" type="curve" smooth="yes"/>
      <point x="260" y="-4"/>
      <point x="307" y="51"/>
      <point x="307" y="146" type="curve" smooth="yes"/>
      <point x="307" y="233"/>
      <point x="261" y="283"/>
      <point x="197" y="283" type="curve" smooth="yes"/>
      <point x="125" y="283"/>
      <point x="91" y="220"/>
      <point x="77" y="162" type="curve"/>
      <point x="86" y="130" type="line"/>
      <point x="106" y="198"/>
      <point x="137" y="258"/>
      <point x="194" y="258" type="curve" smooth="yes"/>
      <point x="246" y="258"/>
      <point x="280" y="215"/>
      <point x="280" y="142" type="curve" smooth="yes"/>
      <point x="280" y="62"/>
      <point x="238" y="21"/>
      <point x="189" y="21" type="curve" smooth="yes"/>
      <point x="124" y="21"/>
      <point x="83" y="94"/>
      <point x="83" y="229" type="curve" smooth="yes"/>
      <point x="83" y="387"/>
      <point x="132" y="527"/>
      <point x="266" y="527" type="curve" smooth="yes"/>
      <point x="353" y="527"/>
      <point x="413" y="467"/>
      <point x="413" y="347" type="curve" smooth="yes"/>
      <point x="413" y="139" type="line" smooth="yes"/>
      <point x="413" y="47"/>
      <point x="454" y="-4"/>
      <point x="524" y="-4" type="curve" smooth="yes"/>
      <point x="607" y="-4"/>
      <point x="685" y="53"/>
      <point x="685" y="199" type="curve" smooth="yes"/>
      <point x="685" y="357"/>
      <point x="575" y="478"/>
      <point x="575" y="632" type="curve" smooth="yes"/>
      <point x="575" y="718"/>
      <point x="610" y="770"/>
      <point x="675" y="770" type="curve" smooth="yes"/>
      <point x="749" y="770"/>
      <point x="796" y="716"/>
      <point x="796" y="582" type="curve" smooth="yes"/>
      <point x="796" y="0" type="line"/>
      <point x="824" y="0" type="line"/>
      <point x="824" y="588" type="line" smooth="yes"/>
      <point x="824" y="733"/>
      <point x="765" y="800"/>
      <point x="677" y="800" type="curve" smooth="yes"/>
      <point x="594" y="800"/>
      <point x="547" y="733"/>
      <point x="547" y="637" type="curve" smooth="yes"/>
      <point x="547" y="468"/>
      <point x="657" y="352"/>
      <point x="657" y="199" type="curve" smooth="yes"/>
      <point x="657" y="63"/>
      <point x="589" y="20"/>
      <point x="526" y="20" type="curve" smooth="yes"/>
      <point x="469" y="20"/>
      <point x="442" y="63"/>
      <point x="442" y="138" type="curve" smooth="yes"/>
      <point x="442" y="346" type="line" smooth="yes"/>
      <point x="442" y="489"/>
      <point x="367" y="551"/>
      <point x="267" y="551" type="curve" smooth="yes"/>
      <point x="111" y="551"/>
      <point x="56" y="397"/>
      <point x="56" y="230" type="curve" smooth="yes"/>
      <point x="56" y="87"/>
      <point x="104" y="-4"/>
    </contour>
  </outline>
</glyph>
<glyph name="lii-tamil" format="2">
  <advance width="736"/>
  <note>
g135
</note>
  <anchor x="376" y="0" name="bottom"/>
  <anchor x="376" y="0" name="nukta"/>
  <anchor x="610" y="861" name="top"/>
  <anchor x="413" y="542" name="vedic"/>
  <outline>
    <contour>
      <point x="190" y="-4" type="curve" smooth="yes"/>
      <point x="260" y="-4"/>
      <point x="307" y="51"/>
      <point x="307" y="146" type="curve" smooth="yes"/>
      <point x="307" y="233"/>
      <point x="261" y="283"/>
      <point x="197" y="283" type="curve" smooth="yes"/>
      <point x="125" y="283"/>
      <point x="91" y="220"/>
      <point x="77" y="162" type="curve"/>
      <point x="86" y="130" type="line"/>
      <point x="106" y="198"/>
      <point x="137" y="258"/>
      <point x="194" y="258" type="curve" smooth="yes"/>
      <point x="246" y="258"/>
      <point x="280" y="215"/>
      <point x="280" y="142" type="curve" smooth="yes"/>
      <point x="280" y="62"/>
      <point x="238" y="21"/>
      <point x="189" y="21" type="curve" smooth="yes"/>
      <point x="124" y="21"/>
      <point x="83" y="94"/>
      <point x="83" y="229" type="curve" smooth="yes"/>
      <point x="83" y="387"/>
      <point x="132" y="527"/>
      <point x="266" y="527" type="curve" smooth="yes"/>
      <point x="353" y="527"/>
      <point x="413" y="467"/>
      <point x="413" y="347" type="curve" smooth="yes"/>
      <point x="413" y="139" type="line" smooth="yes"/>
      <point x="413" y="47"/>
      <point x="452" y="-4"/>
      <point x="522" y="-4" type="curve" smooth="yes"/>
      <point x="604" y="-4"/>
      <point x="680" y="60"/>
      <point x="680" y="195" type="curve" smooth="yes"/>
      <point x="680" y="396"/>
      <point x="492" y="492"/>
      <point x="492" y="676" type="curve" smooth="yes"/>
      <point x="492" y="771"/>
      <point x="537" y="839"/>
      <point x="610" y="839" type="curve" smooth="yes"/>
      <point x="670" y="839"/>
      <point x="708" y="792"/>
      <point x="708" y="722" type="curve" smooth="yes"/>
      <point x="708" y="671"/>
      <point x="684" y="634"/>
      <point x="642" y="634" type="curve" smooth="yes"/>
      <point x="597" y="634"/>
      <point x="576" y="681"/>
      <point x="576" y="740" type="curve" smooth="yes"/>
      <point x="576" y="773"/>
      <point x="583" y="810"/>
      <point x="596" y="844" type="curve"/>
      <point x="574" y="849" type="line"/>
      <point x="558" y="813"/>
      <point x="550" y="775"/>
      <point x="550" y="740" type="curve" smooth="yes"/>
      <point x="550" y="669"/>
      <point x="582" y="611"/>
      <point x="644" y="611" type="curve" smooth="yes"/>
      <point x="697" y="611"/>
      <point x="736" y="654"/>
      <point x="736" y="720" type="curve" smooth="yes"/>
      <point x="736" y="806"/>
      <point x="688" y="861"/>
      <point x="612" y="861" type="curve" smooth="yes"/>
      <point x="522" y="861"/>
      <point x="463" y="782"/>
      <point x="463" y="679" type="curve" smooth="yes"/>
      <point x="463" y="480"/>
      <point x="652" y="382"/>
      <point x="652" y="195" type="curve" smooth="yes"/>
      <point x="652" y="71"/>
      <point x="586" y="20"/>
      <point x="524" y="20" type="curve" smooth="yes"/>
      <point x="466" y="20"/>
      <point x="442" y="63"/>
      <point x="442" y="138" type="curve" smooth="yes"/>
      <point x="442" y="346" type="line" smooth="yes"/>
      <point x="442" y="489"/>
      <point x="367" y="551"/>
      <point x="267" y="551" type="curve" smooth="yes"/>
      <point x="111" y="551"/>
      <point x="56" y="397"/>
      <point x="56" y="230" type="curve" smooth="yes"/>
      <point x="56" y="87"/>
      <point x="104" y="-4"/>
    </contour>
  </outline>
</glyph>
<glyph name="lllu-tamil" format="2">
  <advance width="884"/>
  <note>
g140
</note>
  <anchor x="431" y="0" name="bottom"/>
  <anchor x="472" y="-240" name="nukta"/>
  <anchor x="571" y="542" name="top"/>
  <anchor x="572" y="542" name="vedic"/>
  <outline>
    <contour>
      <point x="315" y="0" type="line"/>
      <point x="709" y="0" type="line" smooth="yes"/>
      <point x="797" y="0"/>
      <point x="827" y="77"/>
      <point x="827" y="212" type="curve" smooth="yes"/>
      <point x="827" y="416"/>
      <point x="759" y="551"/>
      <point x="653" y="551" type="curve" smooth="yes"/>
      <point x="576" y="551"/>
      <point x="557" y="489"/>
      <point x="557" y="402" type="curve" smooth="yes"/>
      <point x="557" y="-132" type="line"/>
      <point x="585" y="-132" type="line"/>
      <point x="585" y="402" type="line" smooth="yes"/>
      <point x="585" y="483"/>
      <point x="599" y="526"/>
      <point x="657" y="526" type="curve" smooth="yes"/>
      <point x="738" y="526"/>
      <point x="800" y="397"/>
      <point x="800" y="210" type="curve" smooth="yes"/>
      <point x="800" y="90"/>
      <point x="777" y="23"/>
      <point x="703" y="23" type="curve" smooth="yes"/>
      <point x="344" y="23" type="line"/>
      <point x="344" y="542" type="line"/>
      <point x="315" y="542" type="line"/>
    </contour>
    <contour>
      <point x="472" y="-240" type="curve" smooth="yes"/>
      <point x="589" y="-240"/>
      <point x="705" y="-196"/>
      <point x="705" y="-104" type="curve" smooth="yes"/>
      <point x="705" y="-69"/>
      <point x="683" y="-41"/>
      <point x="642" y="-41" type="curve" smooth="yes"/>
      <point x="596" y="-41"/>
      <point x="572" y="-79"/>
      <point x="572" y="-118" type="curve" smooth="yes"/>
      <point x="572" y="-126" type="line"/>
      <point x="585" y="-126" type="line"/>
      <point x="585" y="-118" type="line" smooth="yes"/>
      <point x="585" y="-93"/>
      <point x="603" y="-64"/>
      <point x="636" y="-64" type="curve" smooth="yes"/>
      <point x="660" y="-64"/>
      <point x="674" y="-79"/>
      <point x="674" y="-104" type="curve" smooth="yes"/>
      <point x="674" y="-179"/>
      <point x="566" y="-214"/>
      <point x="474" y="-214" type="curve" smooth="yes"/>
      <point x="206" y="-214"/>
      <point x="88" y="-26"/>
      <point x="88" y="196" type="curve" smooth="yes"/>
      <point x="88" y="331"/>
      <point x="120" y="444"/>
      <point x="180" y="547" type="curve"/>
      <point x="155" y="562" type="line"/>
      <point x="93" y="454"/>
      <point x="59" y="345"/>
      <point x="59" y="192" type="curve" smooth="yes"/>
      <point x="59" y="-40"/>
      <point x="192" y="-240"/>
    </contour>
  </outline>
</glyph>
